<svg width="105" height="91" viewBox="0 0 105 91" fill="none" xmlns="http://www.w3.org/2000/svg">
<path d="M97.4151 29.3469C95.0631 26.6075 92.0051 24.3606 88.4351 22.6676C84.5331 20.8178 79.993 19.8555 75.3351 19.053C70.244 18.1757 65.0021 17.4659 60.4301 15.8031C55.5481 14.0279 52.4291 10.9114 49.3041 7.58218C46.4671 4.55923 43.3591 1.46162 38.4331 0.44168C34.1731 -0.44025 28.9871 0.235608 24.1811 2.19703C22.0961 3.04776 20.1311 4.14428 18.3011 5.42606C16.9311 6.05182 15.6311 6.79478 14.3971 7.67293C14.2781 7.75706 14.2121 7.85349 14.1771 7.94707C12.1651 9.22979 10.3221 10.763 8.73911 12.4333C4.92811 16.4544 2.88307 20.9728 1.79807 25.3871C0.579069 30.3479 0.378067 35.2396 0.134067 40.0425C-0.123933 45.1195 -0.0919008 50.1729 0.979099 54.8737C1.0971 55.3907 1.2291 55.9012 1.3721 56.4078C2.2631 65.2243 6.97805 73.7468 13.7051 79.8106C20.7411 86.1524 30.0381 89.5705 39.6251 90.5025C42.2471 90.7577 44.9141 90.8475 47.5911 90.7842C47.7881 91.0243 48.1511 90.9666 48.3241 90.7596C50.1611 90.6963 52.0011 90.5592 53.8331 90.3494C53.9291 90.3664 54.0311 90.3541 54.1271 90.3106C59.5481 89.6678 64.8901 88.3936 69.8551 86.504C76.0191 84.1579 81.2541 80.4629 85.9691 76.1874C86.2811 76.2432 86.6831 76.0258 86.5881 75.6789C86.5841 75.6638 86.5781 75.6487 86.5741 75.6335C88.0011 74.313 89.3751 72.9367 90.7191 71.5349C91.0341 71.7031 91.5491 71.3931 91.3961 70.9602C91.3851 70.929 91.3741 70.8968 91.3631 70.8656C92.7061 69.4449 94.0141 67.9977 95.2991 66.5448C95.5281 66.4985 95.7371 66.3019 95.7201 66.0732C98.5931 62.83 101.868 59.4516 103.549 55.4616C103.602 55.404 103.632 55.334 103.637 55.2527C103.908 54.5844 104.13 53.8982 104.306 53.1949C104.54 53.1098 104.733 52.8707 104.638 52.5805C104.596 52.4529 104.549 52.3252 104.507 52.1976C105.241 47.6131 103.611 43.0494 101.811 38.8061C101.3 35.2585 99.7181 32.0305 97.4151 29.3469ZM8.90207 70.2276C9.96507 72.4962 11.0841 74.7431 12.2011 76.99C8.18808 72.7202 5.31308 67.6338 3.64408 62.1541C4.30608 63.4378 5.0721 64.6666 5.9061 65.8539C5.6881 65.938 5.5421 66.1488 5.6901 66.3983C6.5631 67.8682 7.31808 69.3882 7.99308 70.9488C8.21408 71.4611 9.02909 71.118 8.82309 70.6047C8.50509 69.8164 8.15407 69.0451 7.77207 68.286C8.18407 68.7691 8.61311 69.2398 9.05411 69.703C8.89211 69.8117 8.79607 70.0007 8.90207 70.2276ZM25.9851 86.2819C23.4101 85.2469 20.9441 83.9764 18.6411 82.4394C18.6481 82.3676 18.6411 82.291 18.5951 82.2088C17.3211 79.8711 16.1731 77.4815 15.1181 75.0494C14.8801 74.5011 13.9941 74.8698 14.2271 75.419C15.0801 77.4267 16.0321 79.3928 17.0551 81.3259C17.0251 81.3032 16.9931 81.2824 16.9621 81.2597C15.9911 80.53 15.0711 79.7568 14.1911 78.9514C14.1841 78.9268 14.1861 78.9051 14.1731 78.8796C12.8971 76.2395 11.6391 73.5889 10.3281 70.9639C12.6951 73.2061 15.4321 75.1694 18.4661 76.8274C18.3341 76.9389 18.2691 77.1138 18.3701 77.3133C19.2591 79.0715 20.0331 80.8693 20.7061 82.7107C20.9121 83.2741 21.8091 82.8998 21.6041 82.3383C20.9811 80.634 20.2471 78.975 19.4311 77.3473C20.3901 77.8398 21.3871 78.2907 22.4021 78.7217C22.3301 78.8276 22.2961 78.9599 22.3431 79.1083C22.8681 80.7568 23.7441 82.3317 24.7901 83.7363C24.7981 83.7467 24.8081 83.7505 24.8161 83.76C25.1951 84.606 25.5911 85.4444 25.9851 86.2819ZM40.9841 83.0765C41.7651 85.3867 42.9121 87.6261 44.0101 89.8257C43.6111 89.8144 43.2121 89.8058 42.8151 89.7879C41.0611 89.7085 39.3101 89.5346 37.5701 89.2926C36.9481 88.2339 36.3401 87.1922 35.8671 86.0607C35.6361 85.5077 34.7391 85.8802 34.9731 86.4313C35.3621 87.3482 35.8071 88.2632 36.3541 89.112C34.5491 88.819 32.7591 88.4466 31.0041 87.9654C30.3641 86.8822 29.8691 85.7601 29.4411 84.5842C29.2351 84.018 28.3831 84.4008 28.5541 84.9519C28.8351 85.8613 29.2261 86.7347 29.6841 87.576C28.7841 87.3018 27.8911 87.0107 27.0121 86.6827C27.0891 86.5721 27.1191 86.4332 27.0461 86.2744C26.5581 85.2157 26.0871 84.1485 25.5741 83.1002C25.5261 83.0028 25.4561 82.9442 25.3781 82.9007C24.5691 81.6842 23.9271 80.4364 23.3501 79.1121C24.1541 79.4325 24.9801 79.7275 25.8151 80.0091C26.1531 80.7502 26.4721 81.5036 26.8441 82.2296C27.1141 82.7561 27.9511 82.4101 27.7241 81.8647C27.5211 81.377 27.2941 80.8977 27.0641 80.4194C27.9541 80.6935 28.8651 80.9402 29.7871 81.169C31.1541 83.3355 32.1401 85.607 32.8431 88.042C32.9991 88.5846 33.9171 88.4825 33.7791 87.9134C33.2231 85.6259 32.2551 83.4669 31.0121 81.4441C31.6151 81.5792 32.2261 81.7012 32.8411 81.8184C33.1861 82.6445 33.5911 83.4518 33.9691 84.2638C34.2211 84.8054 35.1111 84.4377 34.8601 83.8942C34.5721 83.2694 34.2901 82.6398 33.9921 82.0178C35.0891 82.2031 36.2091 82.3487 37.3421 82.4725C37.3331 82.5377 37.3351 82.6058 37.3601 82.6795C37.9451 84.3819 38.6441 86.0494 39.3711 87.7008C39.6131 88.2519 40.5141 87.8785 40.2691 87.3283C39.5671 85.7545 38.9361 84.1579 38.2971 82.5614C38.7301 82.6011 39.1571 82.653 39.5961 82.6824C40.0591 82.7126 40.5281 82.7306 40.9971 82.7504C40.9561 82.8468 40.9431 82.9565 40.9841 83.0765ZM85.4641 75.3802C83.8761 76.834 82.2331 78.2273 80.5031 79.5138C80.6191 79.3957 80.6841 79.2303 80.6181 79.0403C80.3951 78.389 80.1601 77.7415 79.9301 77.0921C79.7321 76.5325 78.8481 76.9049 79.0431 77.4598C79.2701 78.1101 79.4931 78.7614 79.7271 79.4098C79.8361 79.7104 80.1341 79.7388 80.3621 79.6188C79.5081 80.2492 78.6351 80.8571 77.7401 81.4365C77.4521 80.4184 77.1021 79.4155 76.6301 78.4608C76.3661 77.9267 75.5081 78.2822 75.7431 78.8285C76.1861 79.8598 76.5881 80.8911 76.8971 81.9649C75.5681 82.7844 74.1971 83.5492 72.7651 84.2326C71.9001 84.6447 71.0171 85.0313 70.1201 85.3962C70.1131 85.3244 70.0931 85.2516 70.0431 85.1807C69.5671 84.5001 69.2431 83.776 68.9321 83.0198C68.7431 82.5604 67.8831 82.7741 68.0311 83.2637C68.2981 84.1466 68.7481 84.9519 69.2911 85.711C66.7541 86.6922 64.1141 87.5041 61.4071 88.1271C61.4091 88.0883 61.4121 88.0496 61.3991 88.0061C61.1041 87.0183 60.6781 86.0172 60.1521 85.1192C59.8601 84.6211 59.0301 84.9396 59.2791 85.4813C59.7021 86.4001 60.1111 87.3198 60.5171 88.2452C60.5281 88.2698 60.5471 88.2859 60.5621 88.3067C58.4991 88.7519 56.4091 89.1083 54.3091 89.3578C53.9541 88.2103 53.6071 87.0599 53.2261 85.9208C53.0651 85.4397 52.1701 85.676 52.3141 86.1675C52.6361 87.2678 52.9881 88.3605 53.3361 89.4542C51.6041 89.6357 49.8701 89.769 48.1461 89.8219C47.7441 88.9324 47.3451 88.0411 46.9111 87.1657C46.6541 86.6468 45.8191 86.9918 46.0491 87.523C46.3871 88.3048 46.7541 89.0761 47.1201 89.8475C46.4431 89.8588 45.7671 89.8626 45.0961 89.8541C43.9611 87.5249 43.0171 85.107 41.8541 82.793C43.1691 82.8308 44.5051 82.8223 45.8541 82.7721C45.8561 82.7769 45.8551 82.7807 45.8571 82.7854C46.3311 83.9235 46.8181 85.1353 47.4981 86.1779C47.7121 86.505 48.3531 86.2394 48.2431 85.8688C47.9231 84.7941 47.3871 83.7382 46.8671 82.7259C47.6361 82.6843 48.4101 82.6256 49.1871 82.5519C48.9121 83.0992 49.2591 83.8611 49.4941 84.3753C49.7371 84.9075 50.6091 84.5474 50.3671 84.0133C50.1481 83.5303 50.1291 82.9092 49.8071 82.481C51.1291 82.3411 52.4601 82.1483 53.7961 81.9082C54.9471 83.9745 55.8181 86.0929 56.5251 88.3313C56.6801 88.8218 57.5781 88.5817 57.4481 88.0817C56.8711 85.8603 55.9291 83.724 54.7351 81.7361C55.3231 81.6189 55.9121 81.4923 56.5011 81.3524C58.4811 80.8826 60.4341 80.2663 62.3591 79.5526C62.8801 80.7143 63.3931 81.8836 63.9641 83.0236C64.2311 83.5567 65.0851 83.2032 64.8511 82.6559C64.3561 81.4979 63.8001 80.3608 63.2551 79.2227C64.9791 78.5497 66.6761 77.7793 68.3491 76.9475C68.3221 77.0335 68.3221 77.1308 68.382 77.2386C69.249 78.8143 69.7661 80.4288 70.3541 82.1039C70.5161 82.5661 71.2831 82.3354 71.2101 81.8723C70.9361 80.1339 70.1221 78.4117 69.2261 76.8888C69.1531 76.765 69.0441 76.696 68.9271 76.6686C70.7671 75.7318 72.5741 74.71 74.3411 73.623C75.1451 73.1286 75.9371 72.603 76.7341 72.0878C77.1581 72.9518 77.5301 73.83 77.7951 74.7516C77.9591 75.3216 78.9341 75.1902 78.7651 74.6183C78.4561 73.5662 78.0651 72.5473 77.5271 71.5784C79.1021 70.5433 80.6461 69.461 82.1691 68.3578C83.5551 70.6066 84.6441 72.9036 85.4641 75.3802ZM101.351 51.3403C101.775 52.5937 102.198 53.849 102.647 55.0939C101.835 56.9977 100.628 58.7455 99.2961 60.4091C98.662 58.858 98.0361 57.2992 97.3371 55.7736C97.0901 55.2357 96.2511 55.594 96.4601 56.1365C97.1241 57.8569 97.8831 59.548 98.6161 61.2438C97.9581 62.0322 97.2851 62.8063 96.6211 63.5682C96.1781 64.0767 95.7241 64.5863 95.2761 65.0948C95.1661 64.8264 95.0771 64.5503 95.0191 64.2516C94.9101 63.6873 93.9821 63.8111 94.0831 64.3802C94.1761 64.9039 94.3331 65.4143 94.5761 65.8888C93.4031 67.2131 92.2171 68.5337 91.0011 69.8362C90.6941 68.96 90.3861 68.0847 90.0601 67.215C89.8531 66.6601 88.9911 67.0316 89.1801 67.5799C89.5291 68.5932 89.9031 69.598 90.2721 70.6047C88.9671 71.981 87.6401 73.3384 86.257 74.6401C85.4891 72.2334 84.3771 69.9062 82.8911 67.8266C84.6561 66.5269 86.3531 65.1742 88.0031 63.7941C88.2131 64.3235 88.4851 64.8226 88.8591 65.2687C89.2411 65.7234 89.9691 65.1629 89.5991 64.7006C89.2221 64.229 88.9441 63.7298 88.7461 63.1712C89.0581 62.9037 89.3891 62.6466 89.6951 62.3762C90.5101 61.6578 91.2991 60.9167 92.0701 60.1653C92.5641 60.9612 92.8381 61.7911 93.1131 62.6787C93.2651 63.1703 94.0461 62.9075 93.9951 62.4405C93.8821 61.396 93.3531 60.3864 92.7161 59.5367C95.3551 56.8833 97.6551 54.0437 99.2971 51.0662C99.7991 52.4982 100.281 53.9407 100.831 55.3577C101.048 55.9173 101.896 55.5401 101.715 54.9918C101.216 53.4813 100.64 51.9925 100.093 50.4971C100.025 50.3119 99.8811 50.2381 99.7291 50.2334C99.7961 50.101 99.87 49.9706 99.9341 49.8383C100.123 49.4479 100.293 49.0584 100.454 48.6709C100.694 49.5755 101.056 50.4697 101.351 51.3403ZM103.491 52.2751C103.402 52.7544 103.294 53.227 103.154 53.6874C102.879 52.8556 102.606 52.0228 102.324 51.1928C101.905 49.9602 101.573 48.6123 100.909 47.4751C101.029 47.1291 101.126 46.7851 101.225 46.4419C102.017 48.375 102.781 50.3128 103.491 52.2751ZM101.577 45.0278C101.608 44.8813 101.623 44.7367 101.651 44.5902C102.104 45.5855 102.573 46.5743 103.035 47.5649C103.142 47.7927 103.361 47.8494 103.56 47.8059C103.65 48.5045 103.7 49.2068 103.7 49.9129C103.104 48.3126 102.449 46.7283 101.709 45.1904C101.674 45.1186 101.628 45.0675 101.577 45.0278ZM103.107 45.4485C102.758 44.6828 102.404 43.919 102.026 43.1657C101.988 43.091 101.937 43.039 101.88 42.9974C101.919 42.6146 101.959 42.2317 101.971 41.8546C102.417 43.0352 102.807 44.2348 103.107 45.4485ZM100.487 37.1396C100.29 37.2483 100.158 37.4601 100.268 37.7153C100.478 38.2002 100.69 38.6898 100.899 39.1823C101.091 40.5804 101.116 42.0342 100.93 43.5438C99.8361 52.4236 91.5181 60.5434 82.6361 67.1129C77.3771 71.0027 71.7381 74.745 65.6791 77.4617C64.7101 77.8965 63.7331 78.285 62.7541 78.6536C62.5851 78.6329 62.4101 78.6981 62.3001 78.821C57.6331 80.5272 52.8841 81.5112 48.2361 81.8657C41.8751 82.3506 35.8561 81.8344 30.3791 80.4856C30.3061 80.4364 30.2221 80.4194 30.1351 80.4251C18.0641 77.3879 8.6661 70.2824 4.1431 60.8751C3.3341 59.1935 2.72409 57.4391 2.25809 55.6355C2.20309 55.2064 2.1451 54.7773 2.1041 54.3453C2.0891 54.1827 1.99908 54.0872 1.88608 54.04C0.576082 47.7237 0.940085 40.8299 1.49009 33.9739C2.17109 25.4845 4.1161 15.063 14.8201 8.33555C15.0561 8.18715 15.2961 8.04537 15.5361 7.90547C17.3441 6.52539 19.3241 5.29467 21.4121 4.31348C25.0401 2.3256 29.0891 1.12037 32.8991 0.884051C38.3341 0.547538 42.3621 2.43618 45.4721 5.17555C48.6631 7.98676 51.0211 11.4398 54.6281 13.9268C58.0111 16.2588 62.4031 17.5292 66.9561 18.4338C71.6001 19.3573 76.4501 19.9424 80.9891 21.0371C85.1031 22.0286 88.7861 23.5911 91.8911 25.7378C96.0081 28.584 99.2311 32.4851 100.487 37.1396Z" fill="#4b9097"/>
<path d="M86.8901 29.1324C84.5581 26.3202 81.4841 24.044 77.3521 22.9144C73.7751 21.9361 69.7511 21.6932 65.8231 21.3434C61.7731 20.9823 57.6441 20.5201 54.4171 18.9093C50.2681 16.8373 48.5101 12.9353 45.9531 9.67983C44.0691 7.2817 41.4741 5.13216 37.7681 4.48844C33.5771 3.76153 29.3451 5.65015 25.2241 8.07097C23.5291 9.06727 21.8451 10.0834 20.0771 10.919C19.8911 10.9984 19.7091 11.0845 19.5271 11.1714C19.1631 11.334 18.7931 11.4853 18.4201 11.6299C17.4711 12.2887 16.5221 12.9485 15.5681 13.6017C15.4651 13.7426 15.3581 13.8815 15.2551 14.0224C15.2441 14.0318 15.2321 14.0422 15.2201 14.0517C15.1331 14.1301 15.0921 14.2067 15.0721 14.2804C5.86508 27.1275 2.47608 41.5267 6.11108 53.1534C10.2271 66.3143 23.4291 75.2905 40.4181 77.0052C49.1361 77.8852 59.5421 77.0685 68.7221 72.0473C73.8681 69.2323 78.1961 65.3615 81.9801 61.363C83.8721 59.3638 85.6561 57.3135 87.4111 55.2528C88.9651 53.4284 90.5241 51.5852 91.7511 49.654C92.8241 47.9639 93.6451 46.2076 93.8731 44.4948C94.1361 42.5249 93.5901 40.7695 92.8531 39.1427C91.2631 35.6292 89.3791 32.1336 86.8901 29.1324ZM88.6861 33.4938C89.6481 35.0951 90.5181 36.7493 91.3651 38.412C92.2341 40.1173 93.0671 41.9171 92.9741 43.9985C92.8061 47.7578 89.5491 51.5748 86.6301 55.0023C83.1271 59.1161 79.4881 63.2422 75.0811 66.8568C70.8461 70.3307 65.9911 73.0332 60.7211 74.5957C55.7511 76.0684 50.7401 76.5628 46.0301 76.5108C28.7171 76.3189 14.4941 68.7483 8.62512 56.7416C2.96112 45.1536 5.50812 29.6371 14.9061 15.8146C15.2301 15.3382 15.5721 14.8674 15.9151 14.3967C17.4171 13.0865 19.0561 12.1195 20.9301 11.3123C21.0261 11.2716 21.0951 11.2168 21.1541 11.1582C24.6981 9.32062 27.9771 6.86576 31.7661 5.68418C36.2571 4.2833 40.0241 5.64827 42.5941 7.67397C45.6461 10.0806 47.1221 13.5696 49.6091 16.3685C51.8141 18.8489 54.8271 20.4275 58.6711 21.2262C65.9231 22.733 74.7221 21.9049 80.7581 25.2266C84.3741 27.2173 86.7511 30.2743 88.6861 33.4938Z" fill="#4b9097"/>
<path d="M20.5361 20.3585C20.5071 20.3717 20.4881 20.3906 20.4621 20.4057C20.2771 20.4804 20.0931 20.5589 19.9091 20.6383C19.8961 20.6458 19.8841 20.6543 19.8711 20.6619C19.0561 21.2045 18.2651 21.7716 17.5071 22.3709C17.4611 22.4135 17.4161 22.4569 17.3701 22.4985C16.1851 24.3957 15.5461 26.4828 15.1941 28.3138C14.5541 31.643 14.9071 35.6159 18.9031 36.426C22.2171 37.0972 26.6211 35.2341 29.1661 32.4985C32.0951 29.3508 32.7881 25.4213 31.5921 22.5827C30.1811 19.2355 25.3881 18.1002 20.5361 20.3585ZM29.4501 30.9378C27.5191 33.7198 23.6441 35.9562 20.2291 35.7653C16.2211 35.5413 15.6001 31.9748 16.0171 28.9623C16.2701 27.1294 16.8251 24.926 18.0041 22.94C18.0111 22.9353 18.0181 22.9334 18.0251 22.9286C18.6441 22.4768 19.2801 22.0354 19.8811 21.5665C19.9741 21.4937 20.0191 21.4143 20.0381 21.3378C20.5511 21.1043 21.0711 20.8897 21.6001 20.6969C21.6191 20.6903 21.6301 20.6799 21.6481 20.6714C25.1101 19.4028 28.6141 19.8896 30.1411 22.0628C31.7531 24.356 31.5391 27.9291 29.4501 30.9378Z" fill="#4b9097"/>
<path d="M27.8201 23.8992C26.3681 22.4435 22.9191 22.5541 20.6911 24.4447C20.6301 24.4966 20.5971 24.5515 20.5771 24.6063C20.4601 24.6157 20.3331 24.6696 20.2171 24.7906C18.4771 26.6093 18.4231 28.8534 19.8851 30.052C21.3631 31.2628 24.0241 30.8167 26.0581 29.2901C28.1491 27.719 29.2171 25.3011 27.8201 23.8992ZM25.5031 28.8165C23.8781 30.0208 21.7891 30.3781 20.6281 29.3959C19.5201 28.4582 19.4541 26.6528 20.8241 25.2198C20.9161 25.1234 20.9531 25.0288 20.9601 24.9419C21.0071 24.9267 21.0571 24.9031 21.1061 24.8691C23.0581 23.5107 25.7131 23.2461 26.9751 24.4532C28.1571 25.5846 27.2091 27.5517 25.5031 28.8165Z" fill="#4b9097"/>
<path d="M86.7601 67.3229C86.6271 66.786 85.7421 66.8918 85.8511 67.4476C85.9931 68.1727 86.2661 68.8476 86.6611 69.4838C86.9601 69.9639 87.8131 69.6217 87.5131 69.1312C87.1641 68.5612 86.9181 67.9647 86.7601 67.3229Z" fill="#4b9097"/>
</svg>
