<svg width="131" height="90" viewBox="0 0 131 90" fill="none" xmlns="http://www.w3.org/2000/svg">
<path d="M130.352 84.0397C129.644 83.2939 129.19 82.4697 128.628 81.635C128.354 81.2276 127.599 81.4885 127.777 81.98C128.048 82.7296 128.539 83.4281 129.08 84.0605C128.395 84.1787 127.71 84.3015 127.026 84.4273C126.89 84.2618 126.661 84.1749 126.419 84.3242C122.173 86.9549 117.166 87.9531 112.185 88.4503C106.964 88.9721 101.692 89.0459 96.4543 88.7264C85.7403 88.0732 75.1613 85.744 65.1433 82.1189C55.2153 78.526 45.8323 73.639 37.1203 67.8956C29.0133 62.552 21.1563 56.5137 14.5363 49.549C7.83631 42.4992 2.3753 33.9446 1.9193 24.2557C1.8923 23.6715 0.929305 23.6828 0.954305 24.2717C1.31731 32.8292 5.52628 40.5671 11.0893 47.1537C17.2213 54.4143 24.9013 60.5415 32.7543 66.0712C50.2583 78.3965 70.7413 87.2073 92.5933 89.3559C98.8173 89.9674 105.104 90.0279 111.335 89.4712C116.54 89.0061 121.812 88.0685 126.323 85.4671C127.599 85.2705 128.869 85.0379 130.141 84.8177C130.529 84.7496 130.576 84.2751 130.352 84.0397Z" fill="#4b9097"/>
<path d="M4.30029 23.3473C3.57529 23.0552 2.84331 22.782 2.11431 22.5013C1.66031 22.3264 1.02529 21.9445 0.508294 22.0731C-0.276706 22.2697 -0.095707 23.2055 0.663293 23.2575C0.808293 23.267 0.955293 23.1686 1.02529 23.0552C1.02829 23.0505 1.0313 23.0458 1.0343 23.041C1.0583 23.0448 1.07431 23.0543 1.10131 23.0571C1.19231 23.093 1.28328 23.128 1.37328 23.1639C1.69228 23.2868 2.00929 23.4135 2.32729 23.5382C2.86629 23.75 3.40431 23.9645 3.94631 24.1678C4.43831 24.3512 4.79029 23.5448 4.30029 23.3473Z" fill="#4b9097"/>
<path d="M27.5323 55.143C17.5923 46.9362 10.1523 36.2661 6.07133 24.403C5.88233 23.8538 4.96631 24.0949 5.15431 24.6498C9.23631 36.6659 16.7863 47.4996 26.8393 55.8037C27.3153 56.197 28.0103 55.5372 27.5323 55.143Z" fill="#4b9097"/>
<path d="M46.9793 17.0225C46.8353 15.1868 46.6783 13.3445 46.4593 11.5154C46.4763 11.4048 46.4493 11.2876 46.3833 11.1874C46.3573 11.1477 46.3243 11.1137 46.2873 11.0815C46.2783 11.074 46.2713 11.0645 46.2623 11.057C46.2253 11.0296 46.1833 11.0116 46.1383 10.9946C46.1283 10.9908 46.1203 10.9861 46.1103 10.9823C46.0753 10.9719 46.0373 10.9681 45.9993 10.9653C45.9683 10.9624 45.9383 10.9624 45.9083 10.9653C45.8923 10.9672 45.8783 10.9624 45.8613 10.9653C44.3953 11.2328 42.7503 11.5977 41.7643 12.7537C41.3583 13.2292 41.1073 13.7689 41.0333 14.3247L40.6963 13.9958C40.4123 13.7188 39.9973 13.8975 39.8713 14.2113C39.5233 15.08 39.4053 15.9411 39.4823 16.8212C38.5933 16.2143 37.9413 15.3976 37.5653 14.3644C37.4193 13.9627 36.8923 13.9863 36.6933 14.2434C36.6103 14.2113 36.5153 14.199 36.4033 14.2349C35.2933 14.5913 34.1803 14.9382 33.0643 15.2785C32.8103 15.1263 32.4353 15.2341 32.3373 15.4959C24.2923 17.9139 16.1123 19.88 7.80332 21.3046C7.60932 21.1656 7.3043 21.2233 7.1493 21.4142C6.4413 21.5333 5.73531 21.6581 5.02631 21.7687C4.42731 21.8623 4.69032 22.7206 5.28532 22.6279C5.92532 22.5287 6.5623 22.4171 7.2013 22.3113C8.6443 28.3761 11.4633 34.0902 15.4763 39.0197C15.8523 39.481 16.6893 39.0225 16.3103 38.5537C12.3723 33.6847 9.60232 28.1199 8.12232 22.16C16.3883 20.761 24.5623 18.8563 32.5403 16.3816L33.6663 19.6768C33.8563 20.2336 34.7853 19.9878 34.5943 19.4273C34.2163 18.3166 33.8373 17.2068 33.4593 16.0962C34.5263 15.7587 35.5903 15.4137 36.6493 15.0554C36.7063 15.0365 36.7493 15.0072 36.7893 14.976C37.3833 16.3712 38.4303 17.4677 39.8853 18.1408C40.2733 18.3204 40.7123 18.0169 40.6063 17.6076C40.3903 16.7777 40.3853 16.0035 40.5753 15.2218C40.8563 15.4959 41.1363 15.77 41.4173 16.0432C41.8213 16.4383 42.4363 15.9317 42.1893 15.4742C41.0523 13.3681 43.8093 12.3936 45.5803 11.9663C45.7013 13.6583 45.8683 15.3522 46.0503 17.0376C46.1093 17.5925 47.0233 17.5925 46.9793 17.0225Z" fill="#4b9097"/>
<path d="M109.479 7.08595C108.938 6.88367 108.458 7.14548 108.143 7.58409C107.992 7.79394 107.933 8.35733 107.735 8.07091C107.504 7.73818 107.93 7.23435 107.964 6.82411C108.107 5.07159 105.311 5.18785 104.123 4.79841C102.967 4.4203 101.908 3.55635 100.734 3.28884C99.7893 3.07332 98.6773 3.35783 97.7053 3.31151C94.8873 3.17823 92.1793 2.16868 89.9783 0.511638C89.8103 0.384973 89.6193 0.385916 89.4613 0.450194C89.4083 0.209152 89.1923 0.0106608 88.8783 0.122202C79.0903 3.58186 69.0713 6.37604 58.8863 8.51233C58.7523 8.48303 58.6033 8.51423 58.4863 8.5993C54.6853 9.38954 50.8633 10.0947 47.0183 10.6987C46.4063 10.7952 46.6753 11.6686 47.2823 11.576C48.6573 11.3652 50.0273 11.1307 51.3973 10.8954C51.4013 11.8576 51.4043 12.8209 51.4073 13.7831C51.4093 14.372 52.3793 14.3579 52.3763 13.7671L52.3623 10.8641C52.3623 10.8169 52.3463 10.78 52.3353 10.7403C54.3613 10.383 56.3783 9.98884 58.3923 9.57765C58.7763 11.799 58.9903 14.0175 58.9603 16.2748C58.9523 16.8685 59.9303 16.8533 59.9373 16.2588C59.9633 13.9542 59.7593 11.6516 59.2903 9.38954C60.4383 9.15039 61.5833 8.89989 62.7263 8.64373C62.7923 8.94149 62.8573 9.2402 62.9243 9.53796C63.0533 10.1089 63.9803 9.86029 63.8483 9.28936C63.7823 9.00389 63.7153 8.71936 63.6483 8.43389C66.6823 7.74007 69.6933 6.96399 72.6933 6.14917C72.6843 6.18982 72.6753 6.23049 72.6823 6.2787C72.8083 7.10864 72.9513 7.93574 73.0873 8.76379C73.1793 9.32622 74.0783 9.07854 73.9893 8.52084C73.8623 7.72965 73.7423 6.93754 73.6053 6.14825C73.5893 6.05278 73.5353 5.9866 73.4693 5.93556C78.7573 4.47891 83.9943 2.85495 89.1483 1.01736C89.1583 1.01358 89.1633 1.00695 89.1723 1.00316C89.1993 1.05704 89.2403 1.11 89.3023 1.15727C91.1083 2.53262 93.1853 3.52418 95.4633 3.97413C96.6263 4.20383 97.8223 4.30308 99.0093 4.25109C99.8503 4.21423 100.426 4.14239 101.212 4.53656C101.787 4.82487 102.338 5.12452 102.94 5.36462C103.464 5.57352 103.999 5.75406 104.546 5.90152C105.088 6.04709 105.95 6.03954 106.447 6.28152C107.395 6.74281 106.354 7.96976 106.652 8.78268C106.82 9.24019 107.249 9.59371 107.783 9.52282C108.255 9.46043 109.223 7.98584 109.232 7.98962C109.823 8.21176 110.063 7.30526 109.479 7.08595Z" fill="#4b9097"/>
<path d="M129.653 80.0593C129.26 79.9846 129.177 78.1715 129.133 77.9021C129.007 77.1298 128.88 76.3576 128.754 75.5853C128.489 73.9632 128.224 72.3412 127.959 70.7201C127.441 67.5534 126.924 64.3877 126.406 61.2211C126.382 61.0708 126.206 60.9262 126.054 60.8978C125.454 60.7853 124.858 60.7229 124.262 60.6833C124.499 60.6076 124.735 60.5329 124.972 60.4573C125.248 60.6861 125.717 60.4347 125.751 60.0726C125.87 59.8439 125.769 59.5395 125.533 59.4364C119.505 46.7236 118.2 32.6685 114.379 19.3318C113.325 15.6528 112.126 11.9398 110.44 8.46978C110.222 8.02078 109.402 8.34783 109.593 8.81384C112.283 15.3938 114.226 22.0778 115.773 28.9773C117.299 35.7841 118.608 42.6457 120.635 49.342C121.697 52.8517 122.982 56.2925 124.546 59.6302C123.195 60.0565 121.843 60.4819 120.492 60.9082C119.889 61.0982 120.145 61.913 120.76 61.7977C121.889 61.585 123.029 61.499 124.178 61.5756C125.157 61.6408 125.386 61.5491 125.61 62.4027C125.728 62.8517 125.762 63.3366 125.837 63.7932C126.19 65.9559 126.543 68.1187 126.895 70.2815C127.127 71.7041 127.359 73.1257 127.591 74.5484C127.539 74.5692 127.486 74.5928 127.438 74.6353C126.002 75.8698 124.061 76.1922 122.216 76.524C120.198 76.887 118.169 77.1951 116.132 77.4447C112.121 77.9371 108.081 78.2141 104.038 78.2774C95.9934 78.405 87.9373 77.6876 80.0613 76.1336C75.5703 75.2469 71.2343 73.9746 66.8513 72.7174C66.2783 72.5529 66.0934 73.3564 66.6244 73.5511C74.3534 76.3803 82.8243 77.8861 91.0423 78.6895C99.4603 79.5119 107.982 79.4079 116.372 78.3596C118.568 78.0855 120.756 77.7519 122.93 77.3492C124.669 77.0278 126.363 76.6241 127.761 75.5929C127.825 75.9851 127.889 76.3774 127.953 76.7697C128.123 77.8152 128.141 79.0128 128.482 80.0139C128.657 80.529 128.819 80.857 129.406 80.9695C130.03 81.0867 130.281 80.1793 129.653 80.0593Z" fill="#4b9097"/>
<path d="M45.4563 33.7328C45.4233 32.6022 45.4323 30.8601 44.7153 29.8988C44.2703 29.3014 43.4963 29.2418 42.8923 29.6682C42.4733 29.9631 42.3183 30.3639 42.2963 30.7892C42.0433 30.7533 41.7583 30.8753 41.7173 31.1844C41.4893 32.9331 41.6483 34.6459 42.2063 36.3275C42.3043 36.6225 42.5623 36.7614 42.8733 36.6678C43.1823 37.2407 43.5573 37.7889 44.0113 38.2956C44.2363 38.5461 44.7533 38.5035 44.8533 38.1547C45.2713 36.7075 45.4993 35.2357 45.4563 33.7328Z" fill="#4b9097"/>
<path d="M65.3643 28.1946C65.6873 27.1293 65.7263 26.0337 64.9873 25.1744C64.9863 25.1527 64.9863 25.1319 64.9853 25.1102C64.9503 24.612 64.1363 24.5487 64.0203 25.0166C63.7303 25.2784 63.4943 25.5592 63.3053 25.8569C63.1023 25.7936 62.8693 25.8408 62.7633 26.0857C61.7493 28.4271 61.5003 30.9046 62.0753 33.3793C62.1723 33.7962 62.7943 33.9975 63.0133 33.5343C63.8313 31.7988 64.8093 30.0265 65.3643 28.1946Z" fill="#4b9097"/>
<path d="M97.3193 29.8298C97.9023 28.8685 98.2173 27.8136 97.7183 26.8125C97.7223 26.7917 97.7283 26.7709 97.7323 26.7501C97.8243 26.2586 97.0503 26.0119 96.8193 26.441C96.4713 26.6301 96.1713 26.8485 95.9123 27.0952C95.7313 26.9874 95.4933 26.9817 95.3283 27.1944C93.7503 29.2381 92.8813 31.588 92.8123 34.1203C92.8013 34.5467 93.3543 34.8841 93.6843 34.4824C94.9173 32.9823 96.3163 31.4831 97.3193 29.8298Z" fill="#4b9097"/>
<path d="M84.2923 48.7664C85.0703 47.9374 85.6053 46.9647 85.3313 45.8881C85.3403 45.8682 85.3503 45.8493 85.3583 45.8295C85.5543 45.3663 84.8483 44.9759 84.5303 45.3521C84.1493 45.4703 83.8083 45.6262 83.5023 45.8181C83.3483 45.6782 83.1163 45.6262 82.9093 45.803C80.9253 47.5007 79.5693 49.6341 78.9573 52.1013C78.8543 52.5162 79.3233 52.953 79.7323 52.6231C81.2633 51.3923 82.9553 50.1928 84.2923 48.7664Z" fill="#4b9097"/>
<path d="M103.177 39.3165C104.134 38.6766 104.89 37.8457 104.884 36.7388C104.897 36.7218 104.912 36.7057 104.925 36.6877C105.228 36.2794 104.635 35.7472 104.235 36.044C103.835 36.0771 103.466 36.1556 103.121 36.2765C103.005 36.1064 102.791 36.0062 102.547 36.1348C100.206 37.3598 98.3703 39.1445 97.1793 41.414C96.9783 41.7969 97.3303 42.3224 97.8083 42.0899C99.5943 41.2203 101.531 40.4168 103.177 39.3165Z" fill="#4b9097"/>
<path d="M87.2403 25.2888C87.8233 24.3274 88.1383 23.2725 87.6393 22.2715C87.6433 22.2507 87.6493 22.2299 87.6533 22.2091C87.7453 21.7176 86.9713 21.4709 86.7403 21.9C86.3923 22.0891 86.0923 22.3074 85.8333 22.5541C85.6523 22.4464 85.4143 22.4407 85.2493 22.6534C83.6713 24.697 82.8023 27.047 82.7333 29.5793C82.7213 30.0056 83.2753 30.3431 83.6053 29.9414C84.8393 28.4422 86.2383 26.942 87.2403 25.2888Z" fill="#4b9097"/>
<path d="M103.879 57.2076C104.997 56.8749 105.985 56.3011 106.336 55.2453C106.354 55.232 106.373 55.2216 106.391 55.2084C106.811 54.9069 106.419 54.2291 105.941 54.3964C105.55 54.3123 105.173 54.2802 104.805 54.2962C104.749 54.1015 104.578 53.9436 104.304 53.9956C101.679 54.4871 99.3543 55.6574 97.4873 57.4742C97.1733 57.7805 97.3383 58.3826 97.8683 58.2994C99.8523 57.9856 101.956 57.7795 103.879 57.2076Z" fill="#4b9097"/>
<path d="M65.0093 72.3706C56.9633 69.0196 49.1523 65.1847 41.6553 60.8412C37.9413 58.6898 34.3053 56.4183 30.7563 54.0325C28.8893 52.7772 27.0473 51.4907 25.2283 50.173C23.8283 49.1587 21.8323 47.9762 21.8703 46.0961C21.8823 45.5119 20.9233 45.527 20.9093 46.1121C20.8743 47.5347 21.7583 48.6407 22.8383 49.5529C24.3853 50.8611 26.1373 51.9992 27.8073 53.1609C31.6293 55.8181 35.5563 58.341 39.5763 60.723C47.5523 65.4484 55.8943 69.6151 64.5203 73.1759C65.0943 73.4103 65.5873 72.6107 65.0093 72.3706Z" fill="#4b9097"/>
<path d="M34.8453 26.0064C34.7073 25.2171 34.5693 24.4288 34.4313 23.6395C34.3323 23.078 33.4323 23.3247 33.5293 23.8824C33.6663 24.6717 33.8033 25.461 33.9403 26.2503C34.0373 26.8137 34.9433 26.567 34.8453 26.0064Z" fill="#4b9097"/>
<path d="M30.6743 27.1737C29.3863 24.3654 28.6263 21.4095 28.3533 18.362C28.3013 17.7769 27.3323 17.7845 27.3803 18.3781C27.6403 21.5882 28.4833 24.6887 29.8403 27.6398C30.0893 28.1795 30.9203 27.7078 30.6743 27.1737Z" fill="#4b9097"/>
<path d="M23.5583 19.9206C23.3733 19.7637 23.1883 19.6078 23.0033 19.4509C22.5953 19.1058 21.9933 19.6881 22.4063 20.0199C22.5963 20.1721 22.7853 20.3243 22.9753 20.4765C23.3783 20.8007 23.9583 20.259 23.5583 19.9206Z" fill="#4b9097"/>
<path d="M18.3653 27.0641C17.6913 26.0413 17.5363 24.8891 17.9083 23.7377C18.0913 23.1715 17.1503 22.9446 16.9663 23.509C16.5213 24.8758 16.7243 26.3211 17.5213 27.5358C17.8533 28.0424 18.6993 27.5717 18.3653 27.0641Z" fill="#4b9097"/>
<path d="M51.6183 19.0462C51.8843 18.532 51.0653 18.0849 50.7983 18.602C50.4483 19.2778 50.3293 20.0331 50.8513 20.6503C51.0503 20.8857 51.4063 20.6645 51.4203 20.4207C51.4463 19.9471 51.3913 19.4848 51.6183 19.0462Z" fill="#4b9097"/>
<path d="M64.6043 14.581C63.9883 14.0385 63.8273 13.2671 64.1153 12.5279C64.3303 11.9787 63.4093 11.7698 63.1883 12.303C62.7683 13.3172 63.0913 14.4903 63.9333 15.221C64.3843 15.6133 65.0543 14.9762 64.6043 14.581Z" fill="#4b9097"/>
<path d="M71.0033 12.2991C70.5873 10.7006 70.3573 9.10976 70.2983 7.46405C70.2773 6.89501 69.3603 6.90729 69.3603 7.47917C69.3613 9.18726 69.6073 10.8982 70.0823 12.5467C70.2453 13.1101 71.1513 12.8643 71.0033 12.2991Z" fill="#4b9097"/>
<path d="M80.0993 8.61542C79.6753 7.80155 79.4943 6.97256 79.5673 6.06605C79.6133 5.49511 78.6733 5.51401 78.6263 6.08117C78.5403 7.11623 78.7613 8.15602 79.2893 9.0682C79.5823 9.57581 80.3643 9.12397 80.0993 8.61542Z" fill="#4b9097"/>
<path d="M79.6613 13.4343C79.5543 13.3501 79.4533 13.2793 79.3383 13.2055C78.7233 12.8151 78.3864 14.0373 79.1294 13.975C79.2684 13.9636 79.3923 13.9466 79.5293 13.922C79.7473 13.8823 79.8333 13.5685 79.6613 13.4343Z" fill="#4b9097"/>
<path d="M86.3323 6.29936C85.9663 5.12913 85.8393 3.95511 85.9703 2.74139C86.0323 2.16572 85.0803 2.18652 85.0173 2.75746C84.8753 4.04112 85.0083 5.31532 85.4383 6.54038C85.6253 7.07446 86.5033 6.84573 86.3323 6.29936Z" fill="#4b9097"/>
<path d="M89.2383 4.51951C89.2693 3.96086 88.3443 3.97506 88.3163 4.53465C88.2903 5.06967 88.2603 5.60374 88.2403 6.13875C88.2193 6.69268 89.1103 6.66905 89.1463 6.12364C89.1813 5.58957 89.2083 5.05453 89.2383 4.51951Z" fill="#4b9097"/>
<path d="M44.4003 20.9841C44.3753 19.9888 44.3763 18.9906 44.2823 17.999C44.2333 17.481 43.4423 17.4857 43.4233 18.0132C43.3873 19.0076 43.4463 20.0049 43.4783 20.9993C43.4963 21.5589 44.4143 21.5475 44.4003 20.9841Z" fill="#4b9097"/>
</svg>
