<svg width="98" height="113" viewBox="0 0 98 113" fill="none" xmlns="http://www.w3.org/2000/svg">
<path d="M93.4457 11.9343C89.1457 6.58506 82.2257 3.65286 75.4657 2.1688C67.4657 0.41345 58.9967 0.544827 51.0617 2.54973C49.0637 3.0545 47.1057 3.6831 45.1887 4.41568C45.1227 4.4412 45.0727 4.47806 45.0317 4.52059C41.2757 4.30224 37.8997 6.65027 35.3357 9.14104C32.0027 12.3786 29.1287 16.1634 26.4237 19.8868C26.3037 19.8877 26.1867 19.9019 26.0647 19.8981C25.6047 19.883 25.5477 20.4729 25.8937 20.6317C25.2427 21.541 24.6027 22.456 23.9797 23.3795C23.9187 23.3777 23.8587 23.3824 23.7977 23.3795C23.3827 23.3578 23.3007 23.8276 23.5377 24.045C19.8647 29.5691 16.6867 35.3598 13.9727 41.3584C13.9077 41.3688 13.8437 41.3821 13.7787 41.3925C13.3957 41.4511 13.4177 41.8727 13.6627 42.056C13.2587 42.9635 12.8587 43.8738 12.4747 44.7907C12.2487 44.8266 12.0237 44.8606 11.7977 44.8966C11.2717 44.9797 11.4947 45.7369 12.0187 45.6537C12.0517 45.649 12.0837 45.6433 12.1167 45.6376C12.0527 45.7927 11.9837 45.9458 11.9207 46.1018C11.7497 46.5215 11.5797 46.9421 11.4097 47.3618C11.2757 47.4563 11.2217 47.6161 11.2477 47.7607C10.4697 49.6711 9.6757 51.5758 8.7707 53.437C8.2087 54.5931 7.6137 55.7349 7.00869 56.8711C6.9367 56.873 6.86569 56.8825 6.79369 56.8825C6.33869 56.8834 6.27869 57.4591 6.61069 57.6151C6.09169 58.5811 5.56769 59.5453 5.05069 60.5113C3.23169 63.9067 1.60269 67.3569 0.342695 70.9508C0.0616946 71.1711 -0.0553038 71.4688 0.0756962 71.7496C-0.216304 72.6268 -0.493307 73.5087 -0.738307 74.4048C-0.799307 74.6269 -0.848307 74.8519 -0.905307 75.0741C-0.929307 75.1213 -0.941308 75.1733 -0.943309 75.2253C-1.18931 76.2046 -1.41231 77.1886 -1.60931 78.1783C-1.82131 78.3059 -1.8383 78.5696 -1.7153 78.7398C-2.1673 81.1455 -2.47831 83.5748 -2.61131 86.0145C-2.74131 86.1686 -2.86431 86.3293 -2.95731 86.5136C-3.09031 86.7773 -2.89031 87.0193 -2.66331 87.0732C-2.68731 87.7481 -2.70031 88.423 -2.69931 89.098C-2.69531 91.2777 -2.74831 93.6957 -1.68331 95.6931C-1.28831 96.4332 -0.696306 97.1185 0.0246937 97.6176C-0.344306 97.8766 0.0186949 98.4646 0.411695 98.2141C0.515695 98.1479 0.620691 98.0808 0.724691 98.0137C1.27969 98.2746 1.8847 98.4324 2.5227 98.4287C5.0287 98.4116 7.00569 96.1988 8.62169 94.6618C10.7327 92.655 12.7057 90.5206 14.5327 88.2803C17.3477 84.8292 20.4057 79.9214 25.4877 79.5196C25.5207 79.7068 25.5417 79.8902 25.5657 80.0755C24.6937 80.5282 23.9087 80.8978 22.9597 81.0424C22.8307 80.6199 22.0937 80.6341 22.1497 81.1124C22.1527 81.1407 22.1527 81.1691 22.1557 81.1975C21.9217 81.3667 21.9337 81.7552 22.2037 81.8667C22.2497 82.4887 22.2517 83.1078 22.2327 83.7251C21.8897 83.8414 21.9337 84.2658 22.1987 84.4152C22.1727 84.7923 22.1347 85.1676 22.0857 85.5409C21.9657 85.5702 21.8457 85.5958 21.7257 85.6251C21.2207 85.747 21.4347 86.4843 21.9407 86.3643C21.9437 86.3633 21.9467 86.3624 21.9497 86.3624C21.8497 86.9163 21.7197 87.4646 21.5667 88.0071C21.1287 88.0052 20.9447 88.5894 21.3307 88.7265C20.8417 90.2181 20.1717 91.6615 19.2727 93.0123C19.1547 93.19 19.2167 93.3583 19.3437 93.4651C18.6317 94.1466 17.8957 94.8064 17.1477 95.4378C16.7747 95.5257 16.4007 95.6137 16.0277 95.7025C15.6257 95.797 15.6727 96.2725 15.9567 96.4209C15.2637 96.9805 14.5707 97.5202 13.8937 98.0401C13.7757 98.1186 13.6677 98.2084 13.5587 98.2973C13.5497 98.3039 13.5417 98.3105 13.5327 98.3171C11.9247 99.546 10.2677 100.753 8.78069 102.115C7.62869 103.171 6.59769 104.453 6.46269 106.014C6.44569 106.207 6.4437 106.396 6.4507 106.582C6.3537 106.724 6.38069 106.921 6.49769 107.052C6.88869 109.792 9.75869 111.642 12.5177 112.141C20.2547 113.542 28.0907 109.464 34.3297 105.637C42.1107 100.865 49.7007 95.7952 57.3697 90.8647C61.2187 88.39 65.0807 85.9323 68.9147 83.4368C72.2497 81.2665 75.5427 78.9874 78.3407 76.2037C83.7747 70.7986 87.2427 63.9871 90.3307 57.2086C93.7167 49.7788 97.1427 42.3737 97.6327 34.1896C98.0767 26.773 98.4497 18.1598 93.4457 11.9343ZM10.6967 51.2052C11.9997 50.9443 13.2367 50.4859 14.3557 49.7987C14.7837 49.5359 14.3967 48.8969 13.9537 49.1483C13.0457 49.6616 12.0997 50.0473 11.0947 50.3091C11.1047 50.2864 11.1147 50.2647 11.1247 50.242C11.4417 49.4943 11.7517 48.7457 12.0637 47.997C12.9547 47.929 13.8467 47.8637 14.7357 47.7758C15.2217 47.7276 15.2397 47.0139 14.7357 47.0442C13.9517 47.0915 13.1697 47.1595 12.3867 47.2247C12.6287 46.6424 12.8727 46.0602 13.1157 45.4779C14.5417 45.2529 15.9697 45.0308 17.3927 44.7907C17.9087 44.7037 17.6847 43.9759 17.1777 44.0524C15.9397 44.2368 14.7037 44.4372 13.4677 44.6347C13.8337 43.766 14.2067 42.9002 14.5847 42.0362C16.4027 41.7328 18.1967 41.3244 19.9387 40.7383C20.4017 40.5824 20.2147 39.8933 19.7327 40.0332C18.1557 40.4907 16.5717 40.8849 14.9587 41.1855C15.5937 39.7581 16.2537 38.3402 16.9607 36.9384C17.2217 36.4204 17.4987 35.91 17.7677 35.3957C17.7947 35.4005 17.8177 35.4099 17.8487 35.4089C20.0177 35.3702 22.2087 35.0857 24.3307 34.6461C24.1967 34.9798 24.0697 35.3173 23.9277 35.6481C23.6497 35.615 23.3407 35.8967 23.5087 36.2115C23.5387 36.2682 23.5807 36.3164 23.6117 36.3712C23.4887 36.6425 23.3577 36.911 23.2277 37.1794C23.1407 37.0811 23.0087 37.0159 22.8407 37.0462C20.8577 37.4054 18.8757 37.775 16.8947 38.1417C16.4077 38.2315 16.6147 38.931 17.0997 38.844C19.0397 38.4962 20.9807 38.1511 22.9197 37.7967C21.3667 40.8007 19.2907 43.5212 17.3087 46.2785C15.7687 48.4205 14.3857 50.6154 13.1707 52.9105C13.1527 52.9152 13.1367 52.9133 13.1187 52.9209C11.9777 53.3774 10.7907 53.609 9.56469 53.6412C9.95569 52.8368 10.3317 52.0238 10.6967 51.2052ZM-1.7853 86.2924C-1.4573 86.0004 -1.04931 85.799 -0.57931 85.7621C-0.0613103 85.7215 -0.0573101 84.9511 -0.57931 84.9927C-0.99531 85.0267 -1.38131 85.1553 -1.73631 85.3339C-1.68631 84.5843 -1.61831 83.8347 -1.53631 83.088C-1.43931 83.1239 -1.32531 83.1249 -1.20831 83.0681C-0.455308 82.7061 0.298694 82.3441 1.05169 81.983C1.51169 81.7618 1.10669 81.1105 0.647695 81.3298C-0.0473051 81.6616 -0.743311 81.9934 -1.43931 82.3261C-1.28931 81.1162 -1.08731 79.9128 -0.860308 78.7152C-0.00930834 78.4335 0.81369 78.0885 1.58669 77.6452C2.03569 77.3881 1.6257 76.7198 1.1747 76.9778C0.580696 77.3181 -0.0423076 77.5885 -0.681308 77.8267C-0.608308 77.4741 -0.54931 77.1177 -0.46831 76.767C-0.37231 76.3483 -0.264305 75.9324 -0.158305 75.5164C0.966695 75.1809 2.09269 74.8491 3.21069 74.4927C3.68269 74.3424 3.48869 73.6429 3.00269 73.781C2.01969 74.0607 1.04369 74.3623 0.0666935 74.66C0.309694 73.7705 0.582695 72.8915 0.870694 72.0161C2.43369 71.2372 4.06769 70.671 5.74969 70.1644C6.19769 70.0292 6.01369 69.411 5.55669 69.5017C4.04869 69.8004 2.61469 70.327 1.23669 70.9678C1.57469 70.0027 1.94569 69.049 2.33169 68.0999C2.41769 68.1661 2.53369 68.1963 2.67569 68.1481C4.1477 67.6471 5.58269 67.0611 6.96769 66.3738C7.43769 66.1404 7.02269 65.473 6.55169 65.7018C5.28369 66.3181 3.98669 66.8597 2.64869 67.3257C3.05269 66.371 3.48969 65.4267 3.94169 64.489C4.02369 64.6109 4.17069 64.6875 4.36169 64.6317C5.30369 64.3557 6.2487 64.0854 7.1877 63.8009C7.6717 63.6543 7.46969 62.9378 6.97669 63.0768C6.06269 63.3349 5.15269 63.6071 4.24169 63.8746C4.34169 63.6742 4.43369 63.471 4.5367 63.2706C4.8237 62.71 5.1147 62.1514 5.4087 61.5946C6.0947 61.4311 6.77969 61.2685 7.45969 61.0851C7.91169 60.9632 7.72269 60.3261 7.26669 60.4225C6.79469 60.5217 6.32669 60.6371 5.85769 60.7486C6.41269 59.7041 6.96969 58.6615 7.52369 57.617C8.71569 57.5338 9.86669 57.2615 10.9597 56.7728C11.4317 56.562 11.0197 55.9155 10.5527 56.114C9.71269 56.4704 8.84569 56.6953 7.94969 56.804C8.36269 56.0166 8.76769 55.2264 9.16569 54.4324C10.3737 54.4475 11.5427 54.266 12.6687 53.8954C12.3767 54.4787 12.0817 55.061 11.8127 55.6603C8.7067 62.5616 6.15769 69.7144 3.38769 76.7415C1.95069 80.3874 0.178692 84.2318 0.403692 88.2075C0.420691 88.51 0.460695 88.8446 0.522695 89.1972C-0.264305 89.6226 -1.04731 90.0536 -1.83131 90.4837C-1.87431 89.0866 -1.8533 87.6886 -1.7853 86.2924ZM22.2107 88.7378C22.5637 88.6773 22.8927 88.5422 23.2057 88.3039C23.5547 88.0374 23.0917 87.4645 22.7227 87.7122C22.6417 87.7661 22.5577 87.8153 22.4717 87.8568C22.6217 87.2887 22.7527 86.7169 22.8477 86.1374C23.3007 86.0287 23.7537 85.9247 24.2027 85.8037C24.6877 85.6733 24.4847 84.9889 23.9947 85.0919C23.6497 85.1647 23.3077 85.2517 22.9637 85.332C23.0027 85.0012 23.0327 84.6685 23.0537 84.3348C23.7177 84.193 24.3827 84.0512 25.0407 83.883C25.5387 83.7553 25.3257 83.0691 24.8297 83.1589C24.2437 83.2657 23.6617 83.3933 23.0807 83.5228C23.0897 82.9613 23.0837 82.3989 23.0397 81.8355C23.9557 81.724 24.8987 81.4508 25.6467 80.9479C25.8667 85.0513 23.8457 88.6216 21.0407 91.7201C21.0157 91.7154 20.9947 91.7059 20.9667 91.7059C21.4697 90.7493 21.8857 89.7568 22.2107 88.7378ZM10.7457 110.819C9.63069 110.349 8.66569 109.635 7.99069 108.578C7.65669 108.055 7.4687 107.55 7.3827 107.059C8.41469 106.82 9.4477 106.579 10.4787 106.335C10.5617 106.769 10.7267 107.193 10.9807 107.565C11.1177 107.765 11.2767 107.935 11.4387 108.103C10.6597 108.244 9.86869 108.329 9.05969 108.338C8.55169 108.343 8.54969 109.088 9.05969 109.086C10.1227 109.079 11.1607 108.953 12.1757 108.728C12.6727 109.06 13.2267 109.307 13.8147 109.486C12.8517 109.709 11.8967 109.971 10.9397 110.214C10.6177 110.295 10.5917 110.624 10.7457 110.819ZM96.9287 29.1844C96.8937 33.3606 96.7187 37.5122 95.6427 41.5825C94.6397 45.3739 93.0867 49.0075 91.4887 52.6033C88.5377 59.2466 85.5887 66.027 81.0597 71.8772C76.1527 78.2142 69.1577 82.3223 62.3927 86.6724L40.0747 101.022C33.6177 105.172 26.9347 109.932 19.0657 111.255C16.6577 111.659 13.5617 111.853 11.1017 110.954C11.1197 110.951 11.1347 110.956 11.1537 110.952C12.5517 110.596 13.9687 110.281 15.3337 109.826C15.6117 109.867 15.8897 109.902 16.1667 109.93C19.4467 110.251 23.6897 110.5 26.4157 108.512C26.5997 108.896 27.2897 108.692 27.1807 108.229C27.1587 108.134 27.1277 108.033 27.1027 107.936C27.4887 107.556 27.8327 107.117 28.1207 106.605C28.3697 106.166 27.6737 105.778 27.4127 106.214C27.2367 106.506 27.0367 106.765 26.8247 107.008C25.5617 103.261 22.3737 98.7954 17.9427 99.0176C17.4397 99.0431 17.4337 99.7785 17.9427 99.7615C22.1937 99.6206 25.0757 104.129 26.1627 107.658C24.1307 109.316 21.0787 109.449 18.4167 109.295C16.7187 109.197 14.8297 109.193 13.2767 108.456C13.2737 108.455 13.2717 108.453 13.2687 108.452C13.7337 108.309 14.1927 108.145 14.6457 107.955C15.1177 107.757 14.7087 107.113 14.2417 107.302C13.6457 107.543 13.0387 107.728 12.4257 107.886C11.8847 107.414 11.4277 106.782 11.2607 106.151C11.6057 106.068 11.9517 105.989 12.2957 105.903C12.7947 105.778 12.5837 105.063 12.0827 105.173C11.7957 105.235 11.5097 105.305 11.2237 105.37C11.3097 104.934 11.5927 104.534 12.1627 104.231C12.6167 103.99 12.2157 103.355 11.7567 103.575C10.8977 103.985 10.4927 104.74 10.4307 105.551C9.39869 105.789 8.36769 106.03 7.33769 106.275C7.38669 105.453 7.73369 104.68 8.25069 103.955C8.33769 104.039 8.46069 104.091 8.61669 104.058C9.93469 103.775 11.2597 103.511 12.5687 103.19C13.0447 103.073 12.8407 102.412 12.3677 102.5C11.1827 102.718 10.0067 102.983 8.82969 103.238C9.52669 102.458 10.3847 101.747 11.2297 101.092C11.2677 101.19 11.3507 101.269 11.5017 101.29C12.7847 101.471 14.0217 101.196 15.0437 100.432C15.4047 100.162 14.9267 99.5705 14.5487 99.8248C13.7697 100.35 12.8917 100.621 11.9417 100.544C12.3027 100.273 12.6517 100.013 12.9727 99.7653C13.4637 99.3881 13.9607 99.0062 14.4607 98.6225C14.9127 98.3455 15.4137 98.1668 15.9687 98.0836C16.3797 98.0222 16.3257 97.5628 16.0387 97.3945C20.7037 93.7109 25.1977 89.5375 26.2897 83.6731C26.5807 82.1087 26.5647 80.5405 26.2427 78.9827C26.2087 78.8182 26.0097 78.684 25.8357 78.6897C21.8947 78.8343 19.0177 81.517 16.6977 84.2715C13.7477 87.7746 10.9907 91.3259 7.60969 94.4878C6.05769 95.9398 3.92869 98.1971 1.55669 97.4815C2.41169 96.9361 3.2667 96.3907 4.1197 95.8434C4.5227 95.5853 4.14269 94.9614 3.73569 95.2223C2.74969 95.8547 1.76569 96.4909 0.78169 97.1261C0.42369 96.9191 0.13069 96.6629 -0.13531 96.3869C0.91969 96.0882 1.8997 95.6269 2.7717 94.9747C3.1217 94.7128 2.65669 94.1362 2.29069 94.3858C1.38269 95.0049 0.412696 95.4586 -0.660304 95.7328C-1.0333 95.1647 -1.28231 94.52 -1.45631 93.8508C-0.808309 93.4689 -0.159306 93.0889 0.481694 92.6966C0.902694 92.4385 0.52069 91.808 0.0866902 92.0566C-0.48931 92.3865 -1.05731 92.7287 -1.62631 93.0681C-1.72631 92.4867 -1.77831 91.9016 -1.80631 91.3401C-1.80331 91.3392 -1.8013 91.3392 -1.7983 91.3373C-0.966304 90.8883 -0.134309 90.4403 0.695691 89.9884C1.30769 92.3431 2.8747 94.9775 5.6457 94.1202C6.1297 93.9699 5.92869 93.2524 5.43369 93.3932C3.44969 93.9576 2.07069 91.9063 1.61669 90.3703C1.53669 90.0981 1.47469 89.8239 1.42069 89.5479C1.52969 89.3882 1.47369 89.1802 1.33469 89.0573C1.15069 87.7538 1.23269 86.4201 1.46869 85.1241C2.07569 81.7921 3.54869 78.6169 4.79069 75.4654C7.38369 68.8854 9.76069 62.1778 12.6967 55.7255C14.0757 52.6959 15.7677 49.862 17.7167 47.1302C19.6097 44.4759 21.6207 41.884 23.2007 39.0444C23.5377 38.4395 23.8457 37.8222 24.1387 37.1993C26.0457 39.8091 29.3267 41.2327 32.4907 42.092C37.2237 43.3775 42.2397 43.9645 47.1377 44.3209C47.6517 44.3587 47.6477 43.6034 47.1377 43.5637C42.5087 43.2055 37.8097 42.626 33.3147 41.4927C29.8827 40.6268 26.5107 39.1975 24.5377 36.3211C25.4437 34.2614 26.1807 32.1355 26.9527 30.0266C28.0527 27.0178 29.3387 24.0998 31.0207 21.3368C31.9257 19.8499 32.9247 18.416 34.0057 17.0397C33.9847 17.2448 34.1107 17.4754 34.3927 17.4915C43.3977 18.0161 51.9637 21.8009 58.1207 28.0425C58.4747 28.4008 59.0407 27.8639 58.6887 27.5056C52.4197 21.1222 43.5997 17.1814 34.3917 16.7164C34.3367 16.7135 34.2917 16.7239 34.2477 16.7372C35.3207 15.3949 36.4697 14.1074 37.6997 12.89C38.3257 12.2699 38.9757 11.6498 39.6537 11.0552C39.6947 11.041 39.7357 11.0297 39.7767 11.0155C39.9237 10.9616 40.0017 10.8548 40.0327 10.7376C40.6937 10.1771 41.3867 9.65149 42.1097 9.17508C42.2727 9.14388 42.4357 9.11647 42.5987 9.08527C42.8297 9.04085 42.9057 8.86788 42.8777 8.70057C44.1297 7.97272 45.4787 7.41783 46.9637 7.17017C47.4997 7.08132 47.2727 6.30905 46.7387 6.39791C46.0637 6.51039 45.4237 6.70038 44.7987 6.92252C44.7227 6.78546 44.5707 6.6881 44.3617 6.74009C43.0117 7.07377 41.6907 7.14183 40.3207 6.87432C39.8077 6.77412 39.5877 7.51803 40.1037 7.61918C41.0307 7.79972 41.9627 7.84225 42.8877 7.76096C42.4767 7.98404 42.0747 8.22413 41.6837 8.48125C40.4057 8.70905 39.1307 8.94539 37.8547 9.18076C37.3447 9.27434 37.5607 10.0088 38.0697 9.91616C38.7987 9.78382 39.5257 9.64772 40.2547 9.51539C39.8927 9.79896 39.5367 10.0873 39.1907 10.3869C37.7807 10.8595 36.3437 11.1923 34.8507 11.3445C34.3317 11.3974 34.3257 12.1734 34.8507 12.1196C35.8877 12.0146 36.9017 11.8322 37.8987 11.5808C37.3047 12.1432 36.7157 12.7094 36.1547 13.3021C36.0547 13.2633 35.9367 13.2605 35.8137 13.321C34.6387 13.9033 33.4487 14.1812 32.1877 14.5224C31.8027 14.6264 31.8597 15.2314 32.2857 15.204C33.2297 15.1425 34.1627 14.8684 35.0497 14.5139C34.6267 14.9941 34.2117 15.479 33.8087 15.9743C32.5157 16.3127 31.2247 16.6616 29.9337 17.0056C29.4187 17.1427 29.6377 17.9046 30.1557 17.7656C31.1017 17.5133 32.0477 17.2599 32.9937 17.0056C32.6197 17.4943 32.2457 17.983 31.8917 18.4859C29.9717 21.2158 28.3837 24.1433 27.1357 27.2003C26.2427 29.3895 25.5017 31.6355 24.6517 33.8408C24.6147 33.8379 24.5777 33.8332 24.5367 33.8408C22.4167 34.2453 20.3047 34.4911 18.1547 34.6527C18.6727 33.6801 19.2077 32.715 19.7527 31.7555C19.7737 31.7602 19.7887 31.7706 19.8117 31.7735C21.5827 31.9635 23.3197 31.8217 25.0247 31.3301C25.5177 31.1883 25.3107 30.4624 24.8107 30.5976C23.2837 31.0116 21.7477 31.1487 20.1757 31.0229C20.7147 30.0881 21.2687 29.1617 21.8317 28.2401C21.8677 28.2401 21.9017 28.2439 21.9417 28.2344C23.4507 27.8667 24.9617 27.5084 26.4637 27.1152C26.9627 26.9848 26.7527 26.2683 26.2497 26.3826C24.9677 26.6738 23.6917 26.9895 22.4157 27.3033C22.9087 26.5131 23.4027 25.7238 23.9167 24.9458C24.0917 24.6812 24.2777 24.424 24.4537 24.1603C25.4327 24.1405 26.3877 23.9628 27.3057 23.6045C27.7907 23.4155 27.5787 22.6583 27.0857 22.8502C26.4087 23.1139 25.7197 23.2718 25.0127 23.3427C25.6327 22.4362 26.2667 21.5382 26.9107 20.6468C28.2837 20.5721 29.6037 20.2158 30.7997 19.538C31.2417 19.2875 30.8457 18.6447 30.3957 18.8848C29.4827 19.3726 28.5277 19.6741 27.5277 19.8121C29.4147 17.2467 31.3987 14.7436 33.4977 12.3285C36.4787 8.89811 40.8197 4.39867 46.0277 5.46871C45.5537 5.49896 45.0767 5.4876 44.5977 5.42521C44.0897 5.35999 43.8697 6.09542 44.3827 6.16064C45.5167 6.30621 46.6217 6.25044 47.7267 5.96497C48.2267 5.83547 48.0147 5.09909 47.5117 5.22954C47.2857 5.28815 47.0577 5.33542 46.8297 5.37418C46.9687 5.16906 46.9307 4.84766 46.6087 4.76637C46.5987 4.76353 46.5887 4.76258 46.5797 4.76069C46.9797 4.61984 47.3887 4.50169 47.7917 4.3703C47.7337 4.59338 47.8567 4.86563 48.1707 4.86563C48.5837 4.86563 48.9927 4.87981 49.3977 4.79568C49.7317 4.72668 49.7317 4.22569 49.3977 4.15669C49.1547 4.10659 48.9097 4.09334 48.6637 4.08956C55.2227 2.08277 62.1777 1.33319 69.0537 1.97691C76.3497 2.66034 84.0787 4.77772 89.7287 9.38021C92.4977 11.6356 94.5987 14.4827 95.6847 17.7949C96.8927 21.4682 96.9607 25.3674 96.9287 29.1844Z" fill="#4b9097"/>
<path d="M75.3247 19.2232C71.2627 22.716 67.6237 26.6549 64.4427 30.8831C62.8267 33.0316 61.3327 35.2634 59.9707 37.5642C58.6497 39.794 57.2857 42.1166 56.4927 44.5714C56.1197 45.7246 55.9407 46.8873 55.9407 48.0897C55.9407 48.9338 56.0237 49.8403 55.3467 50.501C54.8927 50.9434 54.2397 51.1873 53.6607 51.4416C51.4507 52.4123 49.3307 53.5391 47.3307 54.8558C44.6167 56.6424 42.1397 58.7314 39.9337 61.0549C39.8727 60.8791 39.6957 60.7316 39.4487 60.7779C32.4137 62.1136 25.2637 58.8884 22.1937 52.7035C20.7577 49.8101 19.8487 45.4316 22.7607 43.0543C26.0997 40.3291 29.2677 44.1035 32.0917 45.6339C35.3847 47.4176 39.1127 48.3732 42.9007 48.4763C43.4267 48.4905 43.4257 47.7191 42.9007 47.704C38.6527 47.5811 34.5027 46.3305 30.9977 44.0477C29.4847 43.0618 28.0847 41.6316 26.2017 41.3102C24.7397 41.0607 23.2637 41.5844 22.1657 42.4928C19.3467 44.8238 19.7387 48.8761 20.9227 51.884C22.1467 54.9948 24.4297 57.7134 27.3877 59.5075C30.9297 61.6561 35.3437 62.3811 39.4517 61.5597C38.6747 62.4047 37.9337 63.281 37.2317 64.1837C34.0257 68.3041 31.5947 73.0446 30.3377 78.028C30.2777 78.2662 30.4407 78.4345 30.6337 78.4836C30.5907 78.5999 30.6087 78.7313 30.7447 78.8381C36.5567 83.4037 43.3727 86.7112 50.6997 88.4685C51.2197 88.5932 51.4417 87.8342 50.9217 87.7085C43.7337 85.9729 37.0317 82.7732 31.3177 78.2965C31.2527 78.2454 31.1837 78.2237 31.1137 78.2133C33.6527 69.1785 39.3937 61.1324 47.4937 55.717C49.3937 54.4466 51.4057 53.3274 53.5077 52.384C54.4217 51.9738 55.4757 51.6335 56.1317 50.8621C56.8987 49.9604 56.7597 48.8411 56.7777 47.7588C56.8257 45.01 58.1807 42.4795 59.4887 40.0899C60.7697 37.7475 62.1857 35.4723 63.7267 33.2746C67.2007 28.3195 71.3167 23.8371 75.9117 19.7847C76.3077 19.4331 75.7207 18.882 75.3247 19.2232Z" fill="#4b9097"/>
<path d="M72.8707 18.2419C68.0547 22.403 64.5577 27.6426 60.8297 32.6487C58.9117 35.2245 56.9157 37.7607 54.6127 40.0444C53.4957 41.1523 52.3087 42.2006 51.0397 43.1524C49.8397 44.0523 48.5447 44.7632 48.0277 46.2085C47.7147 47.0838 47.6497 48.0262 47.4317 48.9242C47.1957 49.895 46.8697 50.8488 46.4487 51.7619C45.6337 53.5286 44.4967 55.1365 43.1057 56.543C42.7537 56.8984 43.3157 57.4325 43.6717 57.078C45.9437 54.8179 47.5677 52.0294 48.2767 48.9771C48.4497 48.2342 48.5157 47.4628 48.7367 46.7303C49.0737 45.613 49.8277 45.0155 50.7717 44.3406C52.0107 43.4549 53.1917 42.5096 54.2997 41.4803C58.9347 37.1793 62.3157 31.8773 66.0867 26.9242C68.2967 24.0213 70.6677 21.2261 73.4667 18.8072C73.8687 18.4593 73.2707 17.8969 72.8707 18.2419Z" fill="#4b9097"/>
<path d="M53.1637 47.9411C52.6587 48.6331 52.1367 49.2929 51.4937 49.8789C51.2057 50.1408 49.5537 51.6154 49.3357 50.949C49.2457 50.673 49.5887 49.9971 49.7067 49.7561C49.8757 49.411 50.0927 49.0764 50.3457 48.7805C50.8857 48.1491 51.5797 47.6897 52.3617 47.3655C52.7737 47.1944 52.4737 46.5072 52.0517 46.6707C50.9547 47.098 50.0447 47.771 49.3797 48.7077C48.9127 49.3666 48.0997 50.8034 48.6737 51.5795C49.9817 53.3481 53.3247 49.1964 53.8577 48.3249C54.1207 47.8948 53.4547 47.5432 53.1637 47.9411Z" fill="#4b9097"/>
<path d="M1.59371 85.7554C1.14471 85.9587 1.53671 86.5797 1.98271 86.384C3.84471 85.5682 5.86071 87.0117 5.53871 88.9211C5.45671 89.407 6.23971 89.6215 6.32971 89.1272C6.80471 86.5362 4.09671 84.6221 1.59371 85.7554Z" fill="#4b9097"/>
<path d="M9.05672 86.2517C8.19972 83.8385 5.91072 82.1937 3.22072 82.0604C2.71772 82.0358 2.72172 82.7694 3.22072 82.7987C5.52672 82.9329 7.52972 84.3886 8.26272 86.4587C8.42972 86.9314 9.22572 86.7281 9.05672 86.2517Z" fill="#4b9097"/>
<path d="M11.1097 84.4387C10.1787 81.8241 8.1647 79.7228 5.4847 78.6225C5.0957 78.4628 4.7507 78.9959 5.1457 79.1698C7.6147 80.2569 9.4707 82.1966 10.3407 84.6391C10.5037 85.0966 11.2737 84.901 11.1097 84.4387Z" fill="#4b9097"/>
<path d="M17.7957 80.0443C15.1497 79.4998 13.2317 78.029 11.7457 75.9409C10.7417 74.5306 9.68671 73.0182 7.74671 72.8424C7.39071 72.8102 7.30371 73.3859 7.66171 73.4379C9.89571 73.7602 10.7797 76.1356 12.0427 77.6197C13.4377 79.2569 15.4117 80.3544 17.5807 80.7807C18.0867 80.8799 18.3047 80.1492 17.7957 80.0443Z" fill="#4b9097"/>
<path d="M27.6867 72.7411C22.0437 70.8109 19.3837 64.3991 13.1137 63.625C12.7457 63.5796 12.6557 64.1884 13.0257 64.2413C19.1427 65.1289 21.8367 71.6002 27.4667 73.4973C27.9717 73.6684 28.1857 72.9112 27.6867 72.7411Z" fill="#4b9097"/>
<path d="M27.9407 63.125C22.8637 61.7374 18.4467 58.6974 15.5217 54.5335C15.2377 54.1299 14.5447 54.5071 14.8307 54.9154C17.8627 59.2504 22.4347 62.4416 27.7227 63.8699C28.2297 64.0069 28.4457 63.263 27.9407 63.125Z" fill="#4b9097"/>
<path d="M58.1467 31.9531C53.5987 31.4625 49.5457 29.2289 46.0927 26.4895C43.2757 24.2549 40.0237 21.3794 36.0027 22.2566C32.4957 23.0213 30.8037 27.0396 30.3357 30.0635C29.7997 33.5251 31.1787 36.4479 34.5747 37.9745C38.9347 39.9349 43.9307 40.4917 48.6817 39.8206C49.2057 39.7468 48.9807 38.9991 48.4627 39.07C44.3927 39.623 40.2177 39.2175 36.3687 37.8365C34.6347 37.2145 32.8247 36.3921 31.8647 34.8106C30.9837 33.3597 30.9087 31.5977 31.1957 29.9822C31.7747 26.7145 33.7937 22.5808 37.9277 22.9259C41.7327 23.2435 44.3837 26.3458 47.2637 28.3687C50.4787 30.6269 54.1327 32.3019 58.1487 32.7065C58.6567 32.7585 58.6497 32.008 58.1467 31.9531Z" fill="#4b9097"/>
<path d="M49.7697 34.0128C49.5907 32.4049 48.1807 31.3415 46.7447 30.6827C46.4677 30.556 46.1237 30.8991 46.3927 31.1146C46.7287 31.3831 47.1747 31.7064 47.6027 32.0703C46.2307 31.3699 44.8597 30.6685 43.4857 29.9718C41.8587 29.1476 40.2397 28.1824 38.4957 27.5917C37.1347 27.1294 35.6017 26.9857 34.2947 27.671C33.2967 28.1947 32.4467 29.1636 32.4527 30.2866C32.4597 31.6374 33.6167 32.6233 34.6447 33.4078C35.8807 34.3503 37.2447 35.1188 38.7087 35.7001C41.3247 36.738 44.8927 37.4923 47.6927 36.6851C48.9817 36.3098 49.9177 35.3438 49.7697 34.0128ZM48.6097 35.2398C47.6857 36.3779 45.4757 36.2058 44.1377 36.1217C41.0497 35.9289 38.0147 34.8541 35.5497 33.0846C34.2227 32.1318 32.3767 30.5787 33.8577 28.984C35.0997 27.6465 37.0387 27.8743 38.6127 28.4698C40.2847 29.1022 41.8597 30.0191 43.4487 30.8141C45.1797 31.6799 46.9137 32.5392 48.6477 33.4012C48.7017 33.4286 48.7557 33.441 48.8067 33.4438C49.0937 34.0062 49.1177 34.614 48.6097 35.2398Z" fill="#4b9097"/>
<path d="M41.9407 32.5211C41.5007 32.281 41.1097 32.9162 41.5437 33.1639C42.0287 33.4408 42.3037 33.8483 42.3387 34.3464C40.2867 33.939 38.3017 33.2235 36.5567 32.1109C36.3637 31.988 35.9047 31.745 35.8377 31.5097C35.6827 30.9699 36.2147 30.9898 36.5597 31.0352C37.1237 31.1089 37.6847 31.2119 38.2397 31.3272C39.4157 31.5711 40.5647 31.902 41.6937 32.2961C42.1627 32.4597 42.3607 31.7554 41.8997 31.591C40.9627 31.2573 34.3697 28.8554 34.8817 31.3745C35.1147 32.5211 36.7457 33.1828 37.7097 33.6498C39.2577 34.4003 40.9077 34.9117 42.6167 35.2057C42.8167 35.2397 43.0857 35.1556 43.1237 34.9334C43.2977 33.922 42.8917 33.0401 41.9407 32.5211Z" fill="#4b9097"/>
<path d="M88.1877 52.934C87.9107 51.0407 87.5407 49.0556 86.4207 47.4232C85.3627 45.8814 83.7357 44.973 81.9117 44.4342C79.5197 43.7281 77.0127 43.5344 74.7027 42.5626C73.4637 42.0418 72.2857 41.3744 71.2197 40.5823C70.3717 39.9518 67.8437 38.1927 68.7217 36.995C68.9647 36.6632 68.3977 36.2407 68.1247 36.5592C67.0177 37.8505 68.4617 39.2674 69.4507 40.1645C70.9447 41.519 72.6957 42.6099 74.5987 43.3793C78.1777 44.8275 83.3397 44.4191 85.6937 47.8258C86.7757 49.3912 87.1127 51.3271 87.3747 53.1458C87.5697 54.4975 87.5927 55.6933 86.5917 56.7765C85.8357 57.5951 84.8737 58.288 83.9437 58.9166C80.3367 61.3554 75.6827 63.1391 71.1877 62.9916C65.7637 62.813 62.6337 58.6737 60.2487 54.5684C60.0047 54.1478 59.3317 54.5211 59.5687 54.9437C61.4507 58.3031 63.8607 61.8308 67.8157 63.2024C72.1077 64.6903 77.2517 63.296 81.1687 61.4329C83.1337 60.498 85.0197 59.3089 86.6247 57.8815C88.2577 56.4315 88.4857 54.9711 88.1877 52.934Z" fill="#4b9097"/>
<path d="M82.0927 49.4527C80.5317 47.1926 77.9147 45.8408 75.2917 44.9551C73.5187 44.3568 71.6797 43.9636 69.8627 43.5061C68.8987 43.2631 67.9377 43.006 66.9967 42.6912C66.2677 42.4474 63.7877 41.8074 64.0157 40.7251C64.1137 40.261 63.3697 40.0596 63.2597 40.5285C63.0447 41.4435 63.6847 42.0797 64.4887 42.5098C65.7937 43.2074 67.3067 43.6337 68.7397 44.0203C71.6727 44.8124 74.7247 45.3285 77.4487 46.684C80.0387 47.9724 82.2547 50.0794 82.4777 52.9662C82.5717 54.1875 82.2987 55.4589 81.5157 56.4543C80.5167 57.7228 78.8247 58.2427 77.2687 58.6293C73.5337 59.5575 69.5907 59.3714 65.9447 58.2002C65.4377 58.0376 65.2207 58.7947 65.7237 58.9573C68.8567 59.9716 72.1797 60.2637 75.4557 59.7939C78.2067 59.3987 81.5447 58.5858 82.7837 55.9599C83.7597 53.8935 83.3837 51.3215 82.0927 49.4527Z" fill="#4b9097"/>
<path d="M73.6807 48.6409C70.6287 46.4705 66.8567 45.1443 63.1167 44.5412C62.7127 44.476 62.5357 45.0555 62.9457 45.1283C66.1037 45.6897 69.1377 46.7673 71.8697 48.3752C73.1177 49.1097 74.4097 49.9756 75.1297 51.2243C75.9407 52.6336 75.8057 54.4816 74.2387 55.356C73.0147 56.0375 71.4337 56.046 70.0567 56.0026C68.6127 55.9562 67.1787 55.7379 65.7887 55.3664C62.8777 54.5875 60.2387 53.1327 58.0527 51.1619C57.6727 50.8187 57.0967 51.3604 57.4747 51.7082C59.9837 54.0184 63.1397 55.6414 66.5607 56.3674C69.1647 56.9204 73.3227 57.4772 75.4327 55.4817C77.7477 53.2906 75.7967 50.1457 73.6807 48.6409Z" fill="#4b9097"/>
<path d="M65.9867 47.9612C64.1647 46.8996 62.0597 46.3826 59.9257 46.41C59.3937 46.4166 59.3927 47.1993 59.9257 47.1917C61.5227 47.17 63.1017 47.4583 64.5497 48.1077C65.6327 48.5935 67.6127 49.5577 67.9177 50.7572C68.3477 52.4483 64.4307 51.2762 63.6507 50.9775C62.1717 50.4103 60.8927 49.5133 59.8427 48.3846C59.5187 48.0358 58.9867 48.5453 59.3047 48.8932C60.6497 50.3621 62.3967 51.4596 64.3697 52.0192C65.4647 52.3302 68.4647 53.1374 68.8207 51.5097C69.1617 49.9443 67.1697 48.6503 65.9867 47.9612Z" fill="#4b9097"/>
<path d="M71.0447 71.655C70.7807 68.5904 68.3467 66.2036 65.7947 64.5542C64.0497 63.4255 62.1597 62.5134 60.3707 61.4518C58.3797 60.2703 56.4987 58.9544 54.6447 57.5904C54.2647 57.3106 53.7197 57.7955 54.1017 58.1037C56.5157 60.0481 59.1647 61.7269 61.9017 63.2365C64.6727 64.7649 67.6757 66.3067 69.3007 69.0451C70.0137 70.2465 70.5157 71.8034 70.0647 73.1683C69.4447 75.0456 66.8107 74.8065 65.1377 74.9284C61.6017 75.1846 58.0247 75.3538 54.4967 74.9161C50.8297 74.4605 47.2157 73.3139 44.2737 71.1474C43.8597 70.8421 43.2697 71.3884 43.6887 71.7003C49.7847 76.2291 57.7667 76.2565 65.1377 75.7215C66.6107 75.6147 68.6067 75.7565 69.8437 74.8462C70.8547 74.1023 71.1437 72.8072 71.0447 71.655Z" fill="#4b9097"/>
<path d="M62.0677 67.1546C59.4257 64.9568 56.6057 62.8517 53.5467 61.1956C53.1707 60.9924 52.8727 61.5047 53.2127 61.7354C55.5717 63.331 57.9497 64.8878 60.1797 66.6469C60.7667 67.1101 61.3467 67.5818 61.9177 68.062C62.3727 68.4448 63.0337 68.8711 63.3367 69.3806C64.3847 71.1417 60.2857 71.0689 59.3687 71.0991C53.8297 71.2806 48.3357 69.841 43.6587 67.0411C43.2417 66.7916 42.8597 67.4155 43.2737 67.665C48.8177 71.0008 55.5847 72.4896 62.1127 71.6408C63.1067 71.5113 64.3807 71.2646 64.4287 70.0915C64.4767 68.8504 62.9187 67.8635 62.0677 67.1546Z" fill="#4b9097"/>
<path d="M54.7357 66.3767C54.5257 65.6489 53.7137 64.9238 53.1527 64.4228C52.4737 63.816 51.7057 63.2895 50.8837 62.8698C49.1387 61.9803 47.1387 61.5351 45.1567 61.6636C44.6327 61.6977 44.6227 62.4605 45.1567 62.4425C48.1107 62.3414 50.9787 63.3377 53.0167 65.4012C53.2547 65.6422 53.6537 65.9504 53.7577 66.2614C53.9967 66.9807 53.4897 67.1735 52.8797 67.1442C52.1687 67.1102 51.4027 66.8314 50.7307 66.6215C49.1417 66.1253 47.6437 65.4399 46.2227 64.6081C45.7857 64.352 45.3857 65.0032 45.8207 65.2584C47.7507 66.3937 49.8727 67.2983 52.0917 67.7889C53.1297 68.0196 55.1737 67.8986 54.7357 66.3767Z" fill="#4b9097"/>
<path d="M33.4617 51.7261C32.8597 51.0938 31.8047 50.7383 30.9447 51.0909C30.0657 51.451 29.7797 52.3906 30.0407 53.2177C30.3837 54.3048 31.4987 54.8512 32.5117 55.2888C32.9817 55.492 33.3947 54.8342 32.9207 54.6271C32.2837 54.3502 31.5797 54.0647 31.1327 53.5316C30.6777 52.989 30.5367 51.9133 31.4767 51.7469C33.1947 51.4425 33.4897 53.6403 33.5707 54.7292C33.6077 55.2302 34.4377 55.234 34.4007 54.7292C34.3247 53.7008 34.2287 52.5324 33.4617 51.7261Z" fill="#4b9097"/>
<path d="M38.7807 56.2379C37.4077 59.24 33.2327 58.7957 30.8427 57.2682C28.3227 55.6575 26.5357 52.6289 25.9667 49.8432C25.6967 48.5245 25.6497 44.8125 28.0277 46.0536C29.2697 46.7021 30.3407 47.671 31.4767 48.4688C33.6867 50.0209 36.2107 51.2488 39.0367 50.7941C39.5527 50.7109 39.3327 49.9708 38.8207 50.0521C36.5627 50.4122 34.4537 49.4896 32.6357 48.3024C31.1377 47.3241 29.7307 45.8627 28.0427 45.1821C24.3627 43.699 24.8807 49.4613 25.4877 51.2573C26.5277 54.337 28.6927 57.4544 31.9517 58.7258C34.5977 59.758 38.3807 59.3941 39.4777 56.5139C39.6197 56.1358 38.9527 55.8626 38.7807 56.2379Z" fill="#4b9097"/>
<path d="M73.3657 67.9108C73.1407 67.4788 72.4607 67.8579 72.6827 68.288C73.7457 70.3534 74.6927 72.9954 73.3417 75.1477C72.2207 76.9343 69.9577 77.7254 68.0067 78.4155C67.5157 78.5894 67.7247 79.339 68.2257 79.166C70.4787 78.39 73.0467 77.4305 74.2047 75.2876C75.4937 72.9037 74.5317 70.1501 73.3657 67.9108Z" fill="#4b9097"/>
<path d="M56.3397 83.278C52.3557 82.6626 48.5457 81.3336 45.1127 79.3221C43.3937 78.3154 41.7827 77.1499 40.3097 75.8407C39.6217 75.2291 38.9617 74.5891 38.3367 73.919C37.7437 73.2837 35.8727 71.6702 36.4447 70.7107C36.7017 70.2787 36.0007 69.8912 35.7427 70.3222C34.8117 71.8724 37.0877 73.7885 38.0847 74.8254C39.6417 76.4447 41.3987 77.8881 43.2977 79.1387C47.1167 81.6531 51.5227 83.346 56.1197 84.038C56.6417 84.1164 56.8687 83.3593 56.3397 83.278Z" fill="#4b9097"/>
<path d="M41.5837 91.118C36.3297 89.2643 31.6077 86.3151 27.7437 82.4745C27.3817 82.1153 26.8077 82.6588 27.1677 83.018C31.1247 86.9598 35.9737 89.9827 41.3647 91.8685C41.8627 92.0424 42.0767 91.291 41.5837 91.118Z" fill="#4b9097"/>
<path d="M37.4337 97.2291C35.3547 93.103 31.7557 89.8097 27.3357 87.9608C26.8907 87.7746 26.5007 88.3937 26.9507 88.5847C31.2517 90.41 34.6987 93.5974 36.7437 97.611C36.9657 98.0496 37.6537 97.6668 37.4337 97.2291Z" fill="#4b9097"/>
<path d="M24.4337 93.4907C24.0007 93.243 23.6087 93.881 24.0377 94.1306C28.1787 96.5391 31.0467 100.464 32.0217 104.96C32.1277 105.451 32.9177 105.242 32.8157 104.753C31.8397 100.07 28.7507 95.954 24.4337 93.4907Z" fill="#4b9097"/>
<path d="M16.0937 102.847C15.5977 102.712 15.3867 103.439 15.8807 103.576C18.2157 104.225 19.6597 106.336 19.4987 108.602C19.4637 109.099 20.2577 109.085 20.3097 108.602C20.5857 106.005 18.7147 103.563 16.0937 102.847Z" fill="#4b9097"/>
<path d="M90.3217 43.9475C87.0627 41.1249 82.8767 39.6739 78.7677 38.3298C76.5887 37.617 74.3957 36.9251 72.2877 36.0366C70.7347 35.3815 65.9287 33.5704 67.0237 31.3367C67.2437 30.8887 66.5407 30.4964 66.3187 30.9473C65.3627 32.8869 67.4097 34.4344 68.9877 35.321C71.1177 36.5177 73.4317 37.3874 75.7587 38.1766C80.6417 39.8327 85.7717 41.1779 89.7417 44.4976C90.1347 44.8247 90.7137 44.2859 90.3217 43.9475Z" fill="#4b9097"/>
<path d="M93.3427 39.103C89.1687 38.8241 85.0747 37.9904 81.1717 36.5583C79.2157 35.8409 77.3177 34.976 75.5017 33.9816C73.8657 33.0854 71.1767 31.9322 70.7927 30.0114C70.6977 29.535 69.9307 29.7373 70.0237 30.2118C70.3797 32.0145 72.3337 33.0287 73.8397 33.9286C75.7787 35.0875 77.8197 36.0838 79.9347 36.9213C84.1907 38.6048 88.7377 39.6125 93.3427 39.8819C93.8727 39.9131 93.8677 39.138 93.3427 39.103Z" fill="#4b9097"/>
<path d="M91.6547 34.8843C88.6657 27.6625 78.9717 28.8327 72.4687 27.9092C72.0137 27.8449 71.8157 28.5009 72.2767 28.569C78.3577 29.4717 88.0557 28.2968 90.8667 35.0894C91.0567 35.5469 91.8467 35.3475 91.6547 34.8843Z" fill="#4b9097"/>
<path d="M83.6227 34.4031C83.3267 33.4919 82.7507 32.7527 81.9247 32.2092C81.4977 31.9285 81.1007 32.5854 81.5187 32.8652C82.0277 33.2055 82.4067 33.6469 82.6607 34.1659C81.7987 34.2027 80.9697 33.991 80.2307 33.5392C79.7927 33.2717 79.3877 33.9324 79.8237 34.198C80.8867 34.8474 82.0977 35.062 83.3407 34.872C83.5527 34.8399 83.6817 34.5837 83.6227 34.4031Z" fill="#4b9097"/>
<path d="M60.3427 25.8683C54.3647 22.0599 51.5067 14.0771 43.8287 12.6876C43.3357 12.5987 43.1247 13.3105 43.6207 13.4022C51.1207 14.7861 54.0497 22.7981 59.9217 26.5489C60.3677 26.8334 60.7857 26.151 60.3427 25.8683Z" fill="#4b9097"/>
<path d="M66.2557 23.2992C59.0937 21.0117 52.8607 16.5548 48.6207 10.6337C48.3317 10.2291 47.6317 10.6101 47.9237 11.0184C52.2707 17.1059 58.6617 21.7263 66.0357 24.0526C66.5417 24.2133 66.7577 23.4599 66.2557 23.2992Z" fill="#4b9097"/>
<path d="M68.7367 20.2922C66.3397 16.4771 63.0997 12.8748 59.1717 10.3954C57.4427 9.30452 55.1867 8.38477 53.0947 9.06631C51.6937 9.52287 50.4777 11.0116 51.3097 12.3776C51.5697 12.8048 52.2687 12.4201 52.0097 11.9909C51.3637 10.9228 52.6757 9.95864 53.6497 9.72705C54.5817 9.50491 55.5697 9.6552 56.4627 9.94917C58.2517 10.5381 59.7857 11.7263 61.1887 12.8908C63.8917 15.1339 66.1787 17.7703 68.0137 20.6921C68.2887 21.1288 69.0127 20.7308 68.7367 20.2922Z" fill="#4b9097"/>
<path d="M58.1717 13.0819C57.6987 12.8787 57.2807 13.5366 57.7597 13.7484C58.6837 14.1577 59.3837 14.8137 59.8057 15.6512C58.8077 15.3024 57.8807 14.8222 57.0237 14.2049C56.6137 13.9091 56.2167 14.566 56.6197 14.8581C57.7507 15.6786 59.0127 16.2732 60.3827 16.6456C60.6867 16.7278 60.9597 16.4518 60.8837 16.172C60.5127 14.8014 59.5387 13.668 58.1717 13.0819Z" fill="#4b9097"/>
<path d="M92.7197 26.5425C90.2057 25.3562 87.5737 24.4043 84.8647 23.701C82.3447 23.0469 79.2417 22.9496 77.1687 21.2982C76.7737 20.9844 76.2007 21.5194 76.5977 21.8379C78.5507 23.3995 81.1287 23.6122 83.5237 24.1746C86.5627 24.8883 89.4887 25.9262 92.3077 27.2098C92.7777 27.4235 93.1927 26.7656 92.7197 26.5425Z" fill="#4b9097"/>
<path d="M93.3727 32.0911C89.4107 27.0339 82.6867 24.2454 76.0657 24.9014C75.5507 24.9524 75.5447 25.7219 76.0657 25.6708C82.4237 25.0479 88.8017 27.6682 92.6637 32.4833C92.9787 32.8737 93.6897 32.4947 93.3727 32.0911Z" fill="#4b9097"/>
<path d="M91.0817 19.6155C85.7497 19.3187 80.5127 18.0378 75.7127 15.8155C73.4417 14.7644 71.2727 13.5119 69.2497 12.077C67.0417 10.5107 64.6197 8.67216 63.1337 6.44607C62.8577 6.03204 62.1597 6.41297 62.4367 6.83077C63.8967 9.02945 66.1847 10.8217 68.3367 12.3965C70.5007 13.9807 72.8347 15.3561 75.2937 16.4942C80.2237 18.777 85.5987 20.1193 91.0817 20.384C91.6057 20.4095 91.6027 19.6438 91.0817 19.6155Z" fill="#4b9097"/>
<path d="M90.9197 17.6247C81.6797 16.428 73.0887 12.4579 66.5927 6.10198C66.2347 5.75129 65.6687 6.28632 66.0267 6.63701C72.5697 13.0629 81.4257 17.3289 90.8127 18.3677C91.2567 18.4169 91.3657 17.6824 90.9197 17.6247Z" fill="#4b9097"/>
<path d="M89.7737 15.5838C83.1147 14.7293 76.8587 12.0769 71.8157 7.86766C71.4337 7.54911 70.8707 8.07657 71.2547 8.39796C76.4137 12.7225 82.8257 15.5025 89.6657 16.3448C90.1187 16.4015 90.2307 15.6424 89.7737 15.5838Z" fill="#4b9097"/>
<path d="M88.0677 13.1755C83.2947 12.2009 78.8527 10.2735 74.9807 7.45946C74.5637 7.15698 74.1577 7.82716 74.5677 8.12681C78.4787 10.9777 83.0127 12.9722 87.8477 13.9298C88.3667 14.0319 88.5897 13.2813 88.0677 13.1755Z" fill="#4b9097"/>
<path d="M19.1587 110.213C17.7987 110.583 16.4267 110.772 15.0107 110.752C14.5167 110.745 14.5167 111.467 15.0107 111.477C16.4947 111.508 17.9447 111.332 19.3627 110.912C19.8317 110.775 19.6357 110.084 19.1587 110.213Z" fill="#4b9097"/>
</svg>
