<svg width="125" height="147" viewBox="0 0 125 147" fill="none" xmlns="http://www.w3.org/2000/svg">
<path d="M126.198 70.622C124.271 69.7873 122.487 68.7116 120.922 67.3552C120.238 66.7625 116.206 63.0561 117.526 62.2195C117.947 61.953 117.705 61.3811 117.32 61.3556C118.173 54.0667 121.251 46.7569 119.936 39.383C119.552 37.2306 118.625 35.3079 117.787 33.2936C116.906 31.1762 116.571 29.0352 116.762 26.7665C117.171 21.9117 119.033 16.9764 121.188 12.5914C122.164 10.6054 123.429 8.76306 124.405 6.78368C125.023 5.53121 125.584 4.05849 125.244 2.66044C124.896 1.2331 123.577 0.275551 122.054 0.18197C120.02 0.0571952 118.12 1.13857 116.558 2.24548C113.032 4.74664 110.568 8.3254 108.846 12.1159C107.927 14.1378 107.193 16.2287 106.582 18.3509C106.284 19.3859 106.018 20.4276 105.768 21.474C105.428 22.8957 105.039 24.4005 103.139 24.2058C101.074 23.9941 99.2204 23.7029 97.1334 24.048C95.1824 24.3712 93.2885 25.0679 91.6015 26.0481C88.1555 28.0492 85.5385 31.2027 84.5805 34.9383C84.4295 35.5263 85.3925 35.7692 85.5445 35.1775C86.4255 31.7405 88.7944 28.8234 91.9514 26.9509C95.2524 24.9932 98.8134 24.5045 102.607 25.084C104.148 25.3193 105.442 25.0169 106.156 23.6009C107.033 21.8597 107.214 19.6657 107.777 17.8111C109.024 13.7049 110.765 9.59206 113.632 6.2411C115.053 4.57933 116.769 3.05178 118.742 1.9912C120.538 1.02608 123.889 0.415446 124.312 3.10377C124.568 4.73057 123.544 6.41881 122.727 7.77715C121.482 9.84538 120.349 11.9599 119.38 14.1577C117.698 17.9728 116.29 22.0733 115.824 26.1994C115.605 28.1353 115.675 30.1118 116.254 31.9901C116.866 33.977 117.954 35.7985 118.544 37.793C120.948 45.9147 116.771 54.165 116.28 62.2649C116.275 62.3491 116.295 62.4171 116.325 62.4767C116.147 63.8104 117.813 65.5525 118.577 66.3938C119.689 67.6189 120.964 68.6918 122.355 69.6124C120.797 69.1077 119.283 68.4885 117.825 67.7238C117.482 67.5442 116.929 67.8505 117.094 68.2513C117.543 69.3374 118.232 70.2288 119.161 70.898C116.703 71.0199 114.184 70.7033 111.937 69.7892C111.618 69.4281 111.107 69.1408 110.712 69.2192C110.038 68.8581 109.398 68.4356 108.802 67.9431C106.032 65.6556 104.526 62.0626 105.364 58.6332C106.487 57.9441 107.299 56.9214 107.354 55.5687C107.379 54.9628 106.383 54.9656 106.358 55.5715C106.311 56.7295 105.62 57.4687 104.681 57.9498C104.673 57.9536 104.665 57.9574 104.658 57.9611C103.491 58.5519 101.949 58.7495 100.776 58.8506C99.0034 59.0028 97.2184 59.1767 95.7434 60.2128C93.6594 61.677 92.8914 64.0146 91.9434 66.2454C91.8674 65.7255 91.7095 65.2085 91.4655 64.7084C91.2605 64.2878 90.6944 64.4853 90.5504 64.8209C89.4114 67.4743 87.0385 69.4697 84.2285 70.3422C89.4025 66.909 90.6144 59.9538 89.7664 54.2018C89.4644 52.1553 88.9744 50.141 88.4464 48.138C88.0254 46.5405 87.7544 44.7681 86.2324 43.7538C84.5014 42.6006 82.4784 41.9654 80.7924 40.7025C79.0954 39.4312 77.6094 37.8261 76.8424 35.8883C75.6074 32.7689 76.8775 28.5795 80.1785 27.2543C78.8965 29.2857 78.7265 31.9088 80.0625 33.9902C81.6635 36.4848 84.9895 37.5917 87.9185 36.8213C88.5215 36.6625 88.2735 35.7749 87.6695 35.9327C85.1615 36.5878 82.3075 35.669 80.9235 33.5289C79.5475 31.4002 80.0045 28.5531 81.7725 26.7675C82.1345 26.4017 81.7744 25.9111 81.2954 25.9763C78.2484 26.3913 76.1524 28.8934 75.5454 31.6346C74.8334 34.8495 76.3105 37.9254 78.6895 40.194C80.0385 41.4805 81.6474 42.5259 83.3364 43.3729C84.3725 43.8928 85.7035 44.2681 86.4025 45.2114C87.0155 46.0395 87.1765 47.223 87.4315 48.1852C88.5195 52.2952 89.5494 56.6094 88.8704 60.8631C88.1904 65.1177 85.5405 69.3903 81.0595 70.8432C80.5455 71.0095 80.5954 71.7762 81.1884 71.7686C85.2854 71.7176 88.9875 69.5349 90.9295 66.201C91.1465 67.3287 90.8765 68.4857 90.1615 69.4272C90.0175 69.6049 89.8664 69.7779 89.7044 69.9433C89.2704 70.3857 89.9515 71.0502 90.4025 70.6154C90.5905 70.4225 90.7664 70.2231 90.9334 70.0189C90.9514 69.9953 90.9695 69.9716 90.9874 69.948C92.0555 68.6133 92.7055 67.0555 93.3615 65.4939C94.2685 63.3331 95.3435 60.9775 97.8925 60.2232C99.9595 59.6116 102.209 59.9443 104.24 59.1815C104.248 59.1786 104.255 59.1749 104.263 59.1711C103.741 62.5608 105.18 66.0346 107.83 68.3751C108.557 69.0179 109.356 69.5567 110.202 70.0113C110.265 70.3195 110.644 70.4726 110.911 70.3668C111.01 70.4131 111.11 70.4585 111.211 70.5019C111.264 70.7732 111.351 70.9594 111.315 71.296C111.256 71.8631 111.122 72.4341 111.013 72.9936C110.767 74.2594 110.478 75.5175 110.149 76.7671C109.547 79.0547 108.81 81.3101 107.969 83.5296C106.213 88.1623 103.996 92.6277 101.556 96.9721C97.1105 104.888 92.1394 112.663 86.5944 119.937C81.3784 126.779 75.3355 133.265 67.8935 138.007C60.4375 142.758 51.7725 145.407 42.7515 145.264C33.9335 145.123 25.1405 142.441 18.0595 137.438C11.0655 132.496 5.79548 125.416 3.08248 117.582C1.71648 113.637 0.956478 109.473 1.00448 105.317C1.06148 100.27 3.04145 95.903 6.86245 92.3734C10.5334 88.9828 15.1455 86.6328 19.7215 84.5249C24.5295 82.3102 29.4095 80.2363 34.3505 78.3013C51.0905 71.7459 73.4235 67.1245 80.7555 49.2666C81.5525 47.3269 82.0535 45.3145 82.3065 43.2491C82.3785 42.6602 81.4024 42.6677 81.3294 43.2519C80.0894 53.2537 72.0294 61.0162 63.1804 65.8465C53.9884 70.8649 43.6235 73.6582 33.8585 77.4818C28.5725 79.5509 23.3395 81.7666 18.2165 84.1761C13.6635 86.3181 9.09546 88.7833 5.54946 92.2874C2.06546 95.7291 0.189431 99.9535 0.0194311 104.71C-0.129569 108.892 0.58645 113.147 1.88845 117.138C4.48645 125.1 9.62448 132.345 16.5485 137.518C23.6595 142.832 32.5414 145.8 41.5794 146.171C50.7464 146.548 59.7045 144.104 67.4085 139.431C75.1685 134.725 81.4465 128.166 86.8615 121.181C92.7965 113.526 98.0714 105.269 102.737 96.871C105.196 92.4453 107.414 87.8872 109.158 83.1637C110.054 80.7363 110.822 78.2654 111.426 75.7576C111.695 74.6413 111.931 73.5173 112.132 72.3887C112.218 71.9038 112.335 71.4188 112.33 70.9434C114.99 71.8546 117.945 72.0503 120.739 71.7034C121.156 71.6514 121.501 71.036 120.987 70.8262C120.108 70.467 119.392 69.9348 118.833 69.2617C121.055 70.276 123.385 71.0313 125.821 71.4841C126.336 71.5776 126.737 70.8555 126.198 70.622Z" fill="#4b9097"/>
<path d="M113.179 68.0293C111.716 68.5076 110.351 65.2105 109.933 64.2624C109.296 62.818 108.867 61.281 108.669 59.727C108.281 56.6823 108.738 53.5705 110.037 50.7593C110.285 50.2215 109.446 49.7517 109.192 50.2961C107.587 53.7369 107.152 57.5359 107.934 61.2262C108.316 63.0279 108.994 64.7823 109.943 66.3873C110.611 67.5169 111.74 69.4746 113.422 68.897C113.991 68.7013 113.76 67.8393 113.179 68.0293Z" fill="#4b9097"/>
<path d="M109.93 29.3405C112.713 23.2577 111.111 16.034 114.892 10.301C115.205 9.82649 114.413 9.39356 114.098 9.86524C110.67 15.0056 111.586 21.2538 109.835 26.8781C108.979 29.6278 107.459 32.4022 104.732 33.8636C101.961 35.3476 98.6584 35.0584 95.6364 34.6226C95.0594 34.5394 94.8074 35.3628 95.4014 35.4696C98.3164 35.9923 101.444 36.2334 104.247 35.1217C106.94 34.0536 108.795 31.8227 109.93 29.3405Z" fill="#4b9097"/>
<path d="M91.7805 47.1189C91.4735 46.6416 90.6765 47.0679 90.9815 47.5471C93.4395 51.3981 93.8885 56.0829 92.2295 60.2949C92.0145 60.8413 92.9465 61.0719 93.1595 60.5256C94.8835 56.1093 94.3645 51.1401 91.7805 47.1189Z" fill="#4b9097"/>
<path d="M56.4885 74.6811C48.0225 77.4497 39.5154 80.26 31.5674 84.2084C27.6894 86.1348 23.9644 88.342 20.5254 90.9122C16.9054 93.6175 13.3524 96.751 11.0424 100.572C8.81741 104.254 7.90944 108.746 9.61644 112.775C9.84244 113.309 10.7694 113.084 10.5414 112.543C7.03643 104.229 14.5644 96.6206 20.8854 91.8225C27.5774 86.7436 35.3954 83.1572 43.3354 80.1825C47.7564 78.5264 52.2474 77.0461 56.7404 75.5762C57.3334 75.3824 57.0855 74.4854 56.4885 74.6811Z" fill="#4b9097"/>
<path d="M77.2534 59.0321C73.1754 65.0903 67.5174 70.0208 60.7564 73.3018C60.2064 73.5683 60.6815 74.3539 61.2285 74.0892C68.1255 70.7533 73.9815 65.7066 78.0575 59.4735C78.3725 58.9914 77.5734 58.5557 77.2534 59.0321Z" fill="#4b9097"/>
</svg>
