<svg width="112" height="94" viewBox="0 0 112 94" fill="none" xmlns="http://www.w3.org/2000/svg">
<path d="M55.0248 31.0493C52.7638 28.2711 49.3258 26.2956 45.5418 26.409C44.8418 26.4298 44.8368 27.4384 45.5418 27.4403C53.2498 27.4677 57.1638 34.801 57.1098 41.242C57.0788 44.9125 56.1088 48.4856 55.0138 51.9831C53.9498 55.3784 53.0398 58.7795 52.0898 62.1995C51.0088 66.0911 46.9328 66.5911 43.3198 65.6903C39.8378 64.8216 36.8198 62.7543 34.2648 60.4167C31.5828 57.9618 29.3128 55.1469 26.8008 52.5436C24.3528 50.0075 21.2358 47.9534 19.1148 45.1526C14.6088 39.2012 16.4518 31.0219 20.3848 25.2813C20.7728 24.7151 19.8168 24.1923 19.4308 24.7548C15.6638 30.2335 13.8118 37.6482 16.9408 43.7782C18.6558 47.1376 21.8938 49.307 24.5988 51.898C27.6978 54.8661 30.2938 58.2691 33.4648 61.1729C36.1048 63.5899 39.2218 65.7149 42.7998 66.6639C45.7648 67.4504 49.7648 67.5496 51.9058 65.0617C53.0828 63.6939 53.3048 61.9008 53.7098 60.239C54.2068 58.1991 54.8488 56.1952 55.4908 54.1931C56.7478 50.2693 58.0088 46.303 58.2128 42.1807C58.4068 38.2682 57.5948 34.2074 55.0248 31.0493Z" fill="#4b9097"/>
<path d="M69.2988 28.7684C68.1558 28.1483 67.0138 27.5282 65.8718 26.9072C66.1928 26.9223 66.5128 26.9431 66.8418 26.9299C67.3418 26.91 67.5648 26.3693 67.2388 26.0233C63.0588 21.5853 58.1488 17.6304 52.2458 15.4222C49.0868 14.2397 45.6798 13.6499 42.3108 13.7595C43.3868 13.3001 44.4108 12.7178 45.3458 11.9938C45.4228 11.9342 45.4678 11.868 45.4968 11.8009C46.7378 11.5344 47.9118 11.0891 48.9128 10.3301C50.2418 9.3215 50.8668 7.91211 51.2998 6.39213C51.8148 4.58101 52.3458 1.81611 54.8148 1.61288C55.5258 1.55428 55.5498 0.566477 54.8148 0.549462C47.6788 0.386877 40.0788 0.608069 33.7118 4.03086C31.1508 5.40811 28.5398 7.53401 27.9648 10.4076C27.7108 11.6761 27.9258 12.9352 28.4828 14.0374C25.6388 12.2178 22.1528 11.3359 18.6738 11.7461C15.7348 12.093 13.0458 13.3965 10.3818 14.5403C7.07481 15.9601 3.76681 17.3799 0.45981 18.7996C0.0548105 18.9736 0.12981 19.5294 0.45981 19.7232C4.80281 22.2688 9.7178 23.6867 14.8038 23.9107C14.8578 24.0184 14.9318 24.1243 15.0468 24.2245C16.1138 25.1594 19.0448 24.355 20.2868 24.1281C24.6748 23.3246 28.8888 21.4521 32.2948 18.7089C31.8458 19.8054 31.9468 21.1042 32.6118 22.1166C32.9838 22.6818 33.9298 22.1629 33.5578 21.5938C32.7748 20.3962 33.0638 18.9925 34.1028 18.0311C34.6098 17.5614 33.8658 16.8978 33.3368 17.308C33.0318 17.5453 32.7928 17.8317 32.5928 18.1389C32.5208 17.9064 32.2558 17.7268 31.9698 17.7504C32.1158 17.6077 32.1678 17.4016 31.9978 17.1899C31.9338 17.1095 31.8638 17.0348 31.7978 16.9564C32.2818 16.9318 32.5978 16.2852 32.0698 16.0376C29.1198 14.6575 28.1538 11.4635 29.8008 8.78459C31.3508 6.26452 34.3648 4.68782 37.1478 3.65465C41.9778 1.86243 47.2208 1.54577 52.3778 1.5798C50.8858 2.97784 50.5738 5.49602 49.8108 7.3563C48.2758 11.1005 43.5238 11.1818 39.9238 11.0665C39.1988 11.0428 39.1998 12.1081 39.9238 12.1318C40.9998 12.1658 42.1398 12.1819 43.2738 12.1062C40.8928 13.4759 38.1708 14.0951 35.3368 13.8569C34.6538 13.7992 34.6608 14.8031 35.3368 14.8636C35.5268 14.8806 35.7158 14.8787 35.9048 14.8882C35.1758 15.133 34.4588 15.4166 33.7568 15.7446C33.1038 16.0499 33.6768 16.9725 34.3278 16.6681C45.7488 11.3302 57.6778 17.9395 65.5308 25.84C64.2968 25.7322 63.1308 25.3957 62.0038 24.8115C61.3708 24.4835 60.8098 25.3872 61.4378 25.7275C63.2868 26.7313 65.1368 27.7352 66.9858 28.7381C61.6948 28.7504 56.4348 27.9668 51.4018 26.3882C49.6988 25.8541 38.1438 21.4729 36.6048 18.3573C43.3578 15.9251 49.2918 21.5513 53.4788 25.8163C53.9638 26.3107 54.7398 25.5725 54.2598 25.0781C49.7798 20.4614 43.6028 15.029 36.5098 17.308C36.5548 17.1974 36.6158 17.0897 36.7028 16.9857C37.1288 16.4752 36.3738 15.7464 35.9368 16.2626C34.1228 18.4036 37.0168 20.5153 38.7288 21.626C41.6118 23.4957 44.7128 25.0516 47.9468 26.3022C54.6078 28.879 61.8248 30.0502 69.0128 29.7581C69.5568 29.7335 69.7968 29.0387 69.2988 28.7684ZM31.0498 17.7126C31.1888 17.8865 31.3848 17.9385 31.5708 17.9224C29.2998 19.6305 26.8418 21.0446 24.1128 22.0031C22.9218 22.4219 21.6968 22.7565 20.4538 23.007C20.2238 23.0533 17.8428 23.4456 16.4128 23.5789C16.4458 23.4834 16.4608 23.3823 16.4338 23.2792C16.4198 23.2254 16.4048 23.1715 16.3908 23.1176C16.3448 22.9427 16.1828 22.7858 15.9958 22.7442C15.6988 22.6781 15.4238 22.7367 15.1998 22.8577C10.5288 22.7064 6.03481 21.4984 1.98081 19.3158C4.39281 18.2807 6.80481 17.2447 9.21681 16.2096C11.9258 15.047 14.6528 13.6423 17.5688 13.0033C22.5548 11.9106 27.9808 13.8739 31.0498 17.7126Z" fill="#4b9097"/>
<path d="M39.5488 27.0139C36.1668 23.8746 31.5468 22.2176 26.8198 22.3414C26.1218 22.3594 26.1188 23.3869 26.8198 23.3689C31.3128 23.2546 35.5248 24.8237 38.7938 27.7285C39.2928 28.1728 40.0418 27.4714 39.5488 27.0139Z" fill="#4b9097"/>
<path d="M26.6828 17.1011C21.2808 18.0511 15.8038 17.9036 10.4758 16.6247C9.79779 16.4621 9.5088 17.4518 10.1868 17.6153C15.6888 18.9434 21.3958 19.1211 26.9728 18.0955C27.6638 17.9688 27.3698 16.9801 26.6828 17.1011Z" fill="#4b9097"/>
<path d="M21.4658 41.7223C22.0618 41.3631 21.5078 40.4613 20.9108 40.8243C20.1558 41.2827 20.1518 42.2346 20.8498 42.7356C21.3398 43.0872 21.9668 42.314 21.5078 41.9293C21.4458 41.8754 21.3548 41.7894 21.4658 41.7223Z" fill="#4b9097"/>
<path d="M30.7978 48.7114C30.0788 48.7114 30.0768 49.7682 30.7978 49.7682C31.5168 49.7682 31.5178 48.7114 30.7978 48.7114Z" fill="#4b9097"/>
<path d="M24.5518 45.4976C23.8408 45.4976 23.8398 46.5421 24.5518 46.5421C25.2628 46.5411 25.2638 45.4976 24.5518 45.4976Z" fill="#4b9097"/>
<path d="M29.0938 38.5168C28.3798 38.5168 28.3788 39.5651 29.0938 39.5651C29.8078 39.5661 29.8088 38.5168 29.0938 38.5168Z" fill="#4b9097"/>
<path d="M23.9838 31.001C23.2678 31.001 23.2668 32.054 23.9838 32.054C24.6998 32.0531 24.7008 31.001 23.9838 31.001Z" fill="#4b9097"/>
<path d="M20.5898 37.4318C20.5908 37.5301 20.5908 37.6284 20.5918 37.7268C20.5888 38.0642 20.8668 38.2325 21.1438 38.2306C21.4218 38.2325 21.6988 38.0652 21.6958 37.7268C21.6968 37.6284 21.6968 37.5301 21.6978 37.4318C21.7038 36.7569 20.5848 36.756 20.5898 37.4318Z" fill="#4b9097"/>
<path d="M28.1338 30.0833C27.9458 30.2638 27.7588 30.4443 27.5708 30.6249C27.0758 31.1004 27.8418 31.8254 28.3458 31.3575C28.5368 31.1798 28.7278 31.003 28.9178 30.8253C29.4278 30.3508 28.6358 29.6012 28.1338 30.0833Z" fill="#4b9097"/>
<path d="M24.5688 36.358C24.5708 36.5367 24.5738 36.7153 24.5758 36.8949C24.5838 37.5557 25.6538 37.5566 25.6628 36.8949C25.6648 36.7163 25.6678 36.5367 25.6698 36.358C25.6778 35.6888 24.5608 35.6878 24.5688 36.358Z" fill="#4b9097"/>
<path d="M22.8478 27.2476C22.1368 27.2476 22.1358 28.2921 22.8478 28.2921C23.5588 28.2921 23.5598 27.2476 22.8478 27.2476Z" fill="#4b9097"/>
<path d="M18.8728 32.6089C18.1538 32.6089 18.1518 33.6657 18.8728 33.6657C19.5928 33.6657 19.5938 32.6089 18.8728 32.6089Z" fill="#4b9097"/>
<path d="M35.3398 53.0078C34.6238 53.0078 34.6218 54.0599 35.3398 54.0599C36.0568 54.0599 36.0578 53.0078 35.3398 53.0078Z" fill="#4b9097"/>
<path d="M41.5928 59.9744C41.5958 60.153 41.5988 60.3326 41.6018 60.5113C41.6128 61.1834 42.6958 61.1843 42.7068 60.5113C42.7098 60.3326 42.7128 60.153 42.7158 59.9744C42.7268 59.2919 41.5818 59.2909 41.5928 59.9744Z" fill="#4b9097"/>
<path d="M35.3398 57.8362C34.6208 57.8362 34.6188 58.893 35.3398 58.893C36.0598 58.893 36.0608 57.8362 35.3398 57.8362Z" fill="#4b9097"/>
<path d="M46.1288 61.6001C45.9398 61.5973 45.7508 61.5945 45.5608 61.5916C44.8388 61.5812 44.8378 62.6636 45.5608 62.6522C45.7498 62.6494 45.9398 62.6465 46.1288 62.6437C46.8398 62.6333 46.8408 61.6105 46.1288 61.6001Z" fill="#4b9097"/>
<path d="M46.6968 53.54C45.9748 53.54 45.9738 54.6006 46.6968 54.6006C47.4188 54.6016 47.4198 53.54 46.6968 53.54Z" fill="#4b9097"/>
<path d="M39.3288 54.6071C39.3298 54.7858 39.3318 54.9654 39.3328 55.144C39.3388 55.8133 40.4278 55.8142 40.4328 55.144C40.4338 54.9654 40.4358 54.7858 40.4368 54.6071C40.4428 53.9322 39.3228 53.9313 39.3288 54.6071Z" fill="#4b9097"/>
<path d="M36.4758 44.4199C35.7598 44.4199 35.7588 45.472 36.4758 45.472C37.1928 45.472 37.1938 44.4199 36.4758 44.4199Z" fill="#4b9097"/>
<path d="M26.8228 43.887C26.1118 43.887 26.1108 44.9315 26.8228 44.9315C27.5338 44.9315 27.5348 43.887 26.8228 43.887Z" fill="#4b9097"/>
<path d="M31.3938 38.5047C31.3968 38.7987 31.3788 39.0038 31.5688 39.243C31.7708 39.4963 32.0948 39.4963 32.2968 39.243C32.4868 39.0038 32.4698 38.794 32.4718 38.5047C32.4778 37.8496 31.3888 37.8477 31.3938 38.5047Z" fill="#4b9097"/>
<path d="M33.0468 46.0195C33.0388 45.3559 31.9638 45.355 31.9558 46.0195C31.9538 46.1982 31.9508 46.3768 31.9488 46.5564C31.9408 47.2285 33.0618 47.2295 33.0538 46.5564C33.0508 46.3768 33.0488 46.1982 33.0468 46.0195Z" fill="#4b9097"/>
<path d="M38.1798 48.718C37.9908 48.719 37.8018 48.7209 37.6118 48.7218C36.9068 48.7275 36.9058 49.7522 37.6118 49.7578C37.8008 49.7597 37.9908 49.7607 38.1798 49.7626C38.8898 49.7673 38.8918 48.7124 38.1798 48.718Z" fill="#4b9097"/>
<path d="M43.8578 46.0261C43.1358 46.0261 43.1348 47.0867 43.8578 47.0867C44.5798 47.0867 44.5808 46.0261 43.8578 46.0261Z" fill="#4b9097"/>
<path d="M37.6118 40.6597C36.8928 40.6597 36.8908 41.7165 37.6118 41.7165C38.3308 41.7165 38.3318 40.6597 37.6118 40.6597Z" fill="#4b9097"/>
<path d="M34.2158 35.2841C34.2168 35.4627 34.2188 35.6423 34.2198 35.821C34.2258 36.4931 35.3188 36.494 35.3248 35.821C35.3258 35.6423 35.3278 35.4627 35.3298 35.2841C35.3348 34.6073 34.2098 34.6063 34.2158 35.2841Z" fill="#4b9097"/>
<path d="M32.5008 29.9272C31.7848 29.9272 31.7838 30.9803 32.5008 30.9803C33.2178 30.9803 33.2188 29.9272 32.5008 29.9272Z" fill="#4b9097"/>
<path d="M40.0568 31.6922C39.8308 31.9058 39.6168 32.1071 39.4288 32.3501C39.1238 32.7443 39.7308 33.318 40.1478 33.0297C40.4048 32.852 40.6188 32.6488 40.8438 32.4361C41.3518 31.9569 40.5648 31.212 40.0568 31.6922Z" fill="#4b9097"/>
<path d="M42.6928 37.9677C42.6878 37.3117 41.6208 37.3107 41.6148 37.9677C41.6138 38.1464 41.6118 38.325 41.6108 38.5046C41.6048 39.1654 42.7028 39.1672 42.6978 38.5046C42.6958 38.326 42.6948 38.1473 42.6928 37.9677Z" fill="#4b9097"/>
<path d="M47.2648 37.4375C46.5428 37.4375 46.5418 38.4981 47.2648 38.4981C47.9868 38.499 47.9878 37.4375 47.2648 37.4375Z" fill="#4b9097"/>
<path d="M43.8578 31.5352C43.1388 31.5352 43.1368 32.592 43.8578 32.592C44.5768 32.592 44.5788 31.5352 43.8578 31.5352Z" fill="#4b9097"/>
<path d="M48.9678 31.5417C48.2568 31.5417 48.2558 32.5863 48.9678 32.5863C49.6788 32.5863 49.6798 31.5417 48.9678 31.5417Z" fill="#4b9097"/>
<path d="M52.5478 39.2051C52.3598 39.3857 52.1728 39.5662 51.9848 39.7458C51.4858 40.2251 52.2578 40.9557 52.7658 40.4841C52.9568 40.3064 53.1478 40.1296 53.3388 39.9519C53.8518 39.4745 53.0528 38.7193 52.5478 39.2051Z" fill="#4b9097"/>
<path d="M51.8078 48.1746C51.0888 48.1746 51.0868 49.2314 51.8078 49.2314C52.5268 49.2314 52.5278 48.1746 51.8078 48.1746Z" fill="#4b9097"/>
<path d="M45.5898 43.4756C45.6188 43.6467 45.6468 43.8187 45.6748 43.9898C45.7458 44.4143 46.5118 44.4143 46.5818 43.9898C46.6098 43.8187 46.6388 43.6467 46.6668 43.4756C46.8098 42.6239 45.4478 42.6183 45.5898 43.4756Z" fill="#4b9097"/>
<path d="M46.6968 48.7305C46.0028 48.7305 46.0018 49.7495 46.6968 49.7495C47.3908 49.7495 47.3918 48.7305 46.6968 48.7305Z" fill="#4b9097"/>
<path d="M51.2398 55.6934C50.5258 55.6934 50.5248 56.7417 51.2398 56.7417C51.9528 56.7417 51.9538 55.6934 51.2398 55.6934Z" fill="#4b9097"/>
<path d="M48.4008 61.0586C47.6838 61.0586 47.6828 62.1107 48.4008 62.1107C49.1168 62.1116 49.1178 61.0586 48.4008 61.0586Z" fill="#4b9097"/>
<path d="M41.5868 51.9338C40.8708 51.9338 40.8698 52.9859 41.5868 52.9859C42.3028 52.9869 42.3038 51.9338 41.5868 51.9338Z" fill="#4b9097"/>
<path d="M44.4258 58.3788C44.2368 58.3779 44.0468 58.3779 43.8578 58.377C43.1438 58.3741 43.1428 59.4281 43.8578 59.4253C44.0468 59.4243 44.2358 59.4243 44.4258 59.4234C45.1368 59.4205 45.1378 58.3817 44.4258 58.3788Z" fill="#4b9097"/>
<path d="M51.2418 35.284C51.2438 35.4627 51.2458 35.6423 51.2488 35.821C51.2568 36.5006 52.3588 36.5015 52.3668 35.821C52.3688 35.6423 52.3718 35.4627 52.3738 35.284C52.3818 34.5959 51.2328 34.5949 51.2418 35.284Z" fill="#4b9097"/>
<path d="M51.8078 45.5051C51.6188 45.5014 51.4298 45.4985 51.2398 45.4948C50.5258 45.4815 50.5248 46.5563 51.2398 46.543C51.4288 46.5393 51.6188 46.5364 51.8078 46.5326C52.5068 46.5204 52.5078 45.5184 51.8078 45.5051Z" fill="#4b9097"/>
<path d="M47.7308 58.6566C47.8678 58.3353 47.7098 57.8995 47.2478 57.9335C46.2708 58.0054 46.2688 59.4337 47.2648 59.4157C47.7298 59.4072 47.8818 58.961 47.7308 58.6566Z" fill="#4b9097"/>
<path d="M31.1838 55.3161C30.9958 55.1355 30.8088 54.954 30.6218 54.7735C30.1218 54.2905 29.3268 55.0419 29.8378 55.5146C30.0288 55.6913 30.2208 55.8681 30.4118 56.0458C30.9148 56.5099 31.6758 55.7915 31.1838 55.3161Z" fill="#4b9097"/>
<path d="M111.276 67.2946C107.592 63.1127 103.024 58.083 96.7428 58.0726C94.3808 58.0688 91.9448 58.7484 90.1028 60.1758C89.2428 60.8422 88.5388 61.6778 88.0798 62.6373C87.7448 63.3358 87.5118 65.8776 86.6158 66.6868C86.3728 66.4873 86.1158 66.303 85.8658 66.1111C87.4688 64.1667 87.9638 62.1429 87.8328 60.0756C87.8578 60.137 87.8738 60.2013 87.9008 60.2628C88.1678 60.8724 89.2318 60.6059 88.9618 59.9867C86.9758 55.4249 90.1488 49.8857 95.2638 48.9347C95.9598 48.8052 95.6628 47.8118 94.9708 47.9318C90.4678 48.7183 87.2858 52.851 87.2578 57.0385C86.9458 55.9883 86.5368 54.9315 86.0898 53.8709C86.1948 53.731 86.2208 53.5495 86.0748 53.3614C84.9208 51.8669 85.3258 49.8431 86.6048 48.5198C87.9548 47.1227 89.9928 46.5593 91.8898 46.1916C95.3798 45.5148 98.9668 45.2662 102.535 45.3002C100.683 46.3022 99.1168 47.8486 100.137 49.9745C100.51 50.7525 101.458 51.0786 100.777 52.1439C100.306 52.8812 99.1858 53.5334 98.4638 53.9928C96.7288 55.0969 94.7838 55.7888 92.7288 56.1291C92.0158 56.2473 92.3178 57.2738 93.0288 57.1566C96.1588 56.6386 100.03 55.0969 101.911 52.5239C102.813 51.2903 101.896 50.7392 101.291 49.6881C99.9208 47.3079 103.395 45.9165 105.196 45.338C105.799 45.1442 105.694 44.32 105.046 44.2897C102.156 44.1536 99.2648 44.2075 96.3858 44.4901C93.9128 44.733 91.3078 45.0043 88.9738 45.8588C87.0028 46.581 85.0858 48.2201 84.4488 50.1154C83.2718 47.3628 82.3158 44.6253 82.6318 41.9795C82.6608 41.7347 82.4328 41.5409 82.2168 41.4643C76.8098 39.5558 72.7808 44.5865 71.9568 49.0576C71.2578 52.85 72.0988 57.581 75.6228 59.6483C75.6138 59.6587 75.6018 59.6663 75.5938 59.6776C69.8718 57.8618 63.2178 59.4413 59.1058 63.8141C55.8638 67.2615 53.5448 71.5794 50.9888 75.4834C48.8638 78.7285 46.0338 82.4065 48.1568 86.2906C50.0588 89.771 54.2388 91.0443 58.0088 91.8421C62.9308 92.8847 68.0408 93.5577 73.0828 93.0133C80.9168 92.1663 88.9808 87.9467 91.1408 80.3146C91.8488 77.8116 91.8388 75.1667 91.0418 72.7412C91.2538 72.7695 91.4378 72.7922 91.5768 72.8111C94.7458 73.2289 97.9308 73.1486 101.085 72.6665C101.605 72.5871 101.577 71.9245 101.219 71.6938C100.836 71.4462 100.452 71.1985 100.068 70.9499C103.443 69.3344 107.084 68.3996 110.878 68.202C111.388 68.1746 111.589 67.65 111.276 67.2946ZM81.4838 42.368C81.1508 46.4515 83.2108 50.1371 84.8678 53.7962C86.4888 57.375 87.8198 62.0975 85.0138 65.4655C84.5388 65.1233 84.0588 64.7887 83.5748 64.4607C83.4478 64.3746 83.3198 64.2896 83.1918 64.2026C83.3598 64.0533 83.4568 63.8217 83.3458 63.5712C80.8008 57.8807 78.3168 52.1619 75.7008 46.5007C75.4528 45.9647 74.4538 46.3542 74.6908 46.9034C77.0998 52.453 79.6338 57.9573 82.1168 63.4785C81.2428 62.8896 80.3698 62.2998 79.4948 61.7128C79.4658 61.6079 79.4058 61.5077 79.2898 61.4311C78.8258 61.1248 78.3438 60.8564 77.8548 60.6078C77.7678 60.5492 77.6818 60.4906 77.5948 60.4329C77.7428 60.4688 77.8818 60.5151 78.0368 60.5444C78.7448 60.6768 79.0488 59.6502 78.3358 59.5169C68.8908 57.755 72.4718 39.7921 81.4838 42.368ZM76.0298 91.4659C71.6418 92.4404 67.0378 92.2627 62.6148 91.602C58.9368 91.0528 54.5938 90.4837 51.5198 88.3484C49.9168 87.2349 48.6058 85.5391 48.4908 83.6107C48.3638 81.482 49.6508 79.5593 50.7818 77.8191C53.0468 74.3339 55.2528 70.7911 57.6518 67.3863C60.0908 63.9247 63.1228 61.2014 67.5298 60.2892C70.7898 59.6143 74.1898 60.0302 77.1548 61.4094C79.8178 63.1505 82.5488 64.869 85.0358 66.8182C84.6878 66.9883 84.5328 67.4912 84.9778 67.7067C85.4388 67.9298 85.9108 67.9837 86.3638 67.9005C86.9448 68.4147 87.4668 68.9592 87.9348 69.5301C87.9468 69.6511 87.9728 69.7693 88.0018 69.8865C87.7818 69.8222 87.5308 69.8695 87.3818 70.1133C86.5158 71.5322 88.1918 72.192 89.7358 72.519C90.3188 73.9464 90.6128 75.4881 90.5358 77.1451C90.1828 84.7101 83.3468 89.841 76.0298 91.4659ZM98.6878 70.4243C98.2948 70.6276 98.3538 71.1267 98.6878 71.3431C98.9318 71.501 99.1758 71.6579 99.4198 71.8158C97.7658 72.001 96.1018 72.0691 94.4328 71.9972C94.1398 71.985 92.1858 71.795 90.5658 71.5067C90.1638 70.6332 89.6428 69.8023 89.0088 69.0291C89.2978 68.0149 90.6388 66.9959 91.4268 66.5573C92.6858 65.8568 94.0578 65.353 95.4808 65.043C98.3538 64.4172 101.323 64.6497 104.075 65.6243C104.749 65.8634 105.041 64.8426 104.372 64.6053C100.536 63.246 96.2388 63.3226 92.4748 64.8728C90.8738 65.5326 88.8998 66.5005 88.1828 68.1113C87.9378 67.8655 87.6858 67.6273 87.4288 67.3938C87.4448 67.3806 87.4628 67.3749 87.4788 67.3607C88.4948 66.4826 88.4398 65.1309 88.7668 63.9663C89.4978 61.3612 92.0728 59.809 94.7448 59.3137C101.115 58.1321 105.975 62.987 109.754 67.2274C105.864 67.5706 102.131 68.6406 98.6878 70.4243Z" fill="#4b9097"/>
<path d="M53.7418 82.6968C53.0228 82.6968 53.0208 83.7536 53.7418 83.7536C54.4608 83.7536 54.4628 82.6968 53.7418 82.6968Z" fill="#4b9097"/>
<path d="M59.9878 86.4542C59.7988 86.456 59.6098 86.4579 59.4198 86.4608C58.7088 86.4683 58.7078 87.4968 59.4198 87.5053C59.6088 87.5072 59.7978 87.5091 59.9878 87.5119C60.7078 87.5185 60.7088 86.4456 59.9878 86.4542Z" fill="#4b9097"/>
<path d="M57.7168 80.5471C56.9948 80.5471 56.9938 81.6077 57.7168 81.6077C58.4388 81.6086 58.4408 80.5471 57.7168 80.5471Z" fill="#4b9097"/>
<path d="M63.9628 83.7676C63.2408 83.7676 63.2398 84.8282 63.9628 84.8282C64.6848 84.8291 64.6868 83.7676 63.9628 83.7676Z" fill="#4b9097"/>
<path d="M66.9828 88.2265C66.7858 88.3985 66.5968 88.5772 66.4058 88.7549C65.8898 89.2341 66.6928 89.9932 67.1998 89.5054C67.3878 89.3249 67.5758 89.1453 67.7578 88.96C68.2368 88.4685 67.5008 87.7728 66.9828 88.2265Z" fill="#4b9097"/>
<path d="M74.1839 86.9909C74.1619 86.9909 74.1469 87.0004 74.1259 87.0022C73.9559 86.9975 73.7858 86.9937 73.6158 86.989C72.8938 86.9701 72.8928 88.0685 73.6158 88.0496C73.7858 88.0449 73.9559 88.0411 74.1259 88.0364C74.1469 88.0383 74.1619 88.0477 74.1839 88.0477C74.9029 88.0468 74.9049 86.9909 74.1839 86.9909Z" fill="#4b9097"/>
<path d="M63.3949 76.7925C62.6759 76.7925 62.6739 77.8493 63.3949 77.8493C64.1149 77.8493 64.1159 76.7925 63.3949 76.7925Z" fill="#4b9097"/>
<path d="M69.6418 82.156C68.9168 82.156 68.9158 83.2213 69.6418 83.2213C70.3668 83.2213 70.3678 82.156 69.6418 82.156Z" fill="#4b9097"/>
<path d="M78.7268 84.3093C78.0108 84.3093 78.0088 85.3623 78.7268 85.3623C79.4428 85.3614 79.4438 84.3093 78.7268 84.3093Z" fill="#4b9097"/>
<path d="M73.6158 78.9373C72.8938 78.9373 72.8928 79.9978 73.6158 79.9978C74.3388 79.9978 74.3398 78.9373 73.6158 78.9373Z" fill="#4b9097"/>
<path d="M73.6158 83.7705C72.8968 83.7705 72.8948 84.8273 73.6158 84.8273C74.3358 84.8273 74.3368 83.7705 73.6158 83.7705Z" fill="#4b9097"/>
<path d="M60.1969 81.275C60.0029 81.4498 59.8129 81.6275 59.6059 81.7892C59.0669 82.2117 59.9239 83.0218 60.3709 82.5123C60.5419 82.3166 60.7299 82.137 60.9149 81.9537C61.3669 81.5066 60.6709 80.8477 60.1969 81.275Z" fill="#4b9097"/>
<path d="M57.7329 75.7102C57.7319 75.9399 57.7419 76.1517 57.7789 76.3795C57.8539 76.854 58.7169 76.854 58.7929 76.3795C58.8289 76.1517 58.8399 75.9409 58.8379 75.7102C58.8339 75.0381 57.7359 75.0372 57.7329 75.7102Z" fill="#4b9097"/>
<path d="M52.6068 79.4885C52.4178 79.4895 52.2288 79.4904 52.0388 79.4904C51.3398 79.4933 51.3388 80.5151 52.0388 80.5179C52.2278 80.5189 52.4168 80.5189 52.6068 80.5198C53.3088 80.5227 53.3098 79.4857 52.6068 79.4885Z" fill="#4b9097"/>
<path d="M55.4518 72.4898C55.4538 72.6684 55.4568 72.8471 55.4588 73.0267C55.4668 73.7016 56.5598 73.7025 56.5678 73.0267C56.5698 72.848 56.5728 72.6684 56.5748 72.4898C56.5828 71.8073 55.4438 71.8063 55.4518 72.4898Z" fill="#4b9097"/>
<path d="M61.6918 67.1414C60.9868 67.1414 60.9858 68.1774 61.6918 68.1774C62.3968 68.1774 62.3978 67.1414 61.6918 67.1414Z" fill="#4b9097"/>
<path d="M60.7478 72.6711C60.5188 72.8819 60.3019 73.0729 60.1259 73.3252C59.8539 73.7147 60.3959 74.228 60.8089 73.9709C61.0749 73.8045 61.2798 73.5975 61.5018 73.3829C61.9798 72.9188 61.2388 72.2174 60.7478 72.6711Z" fill="#4b9097"/>
<path d="M67.3698 74.1062C66.6478 74.1062 66.6468 75.1668 67.3698 75.1668C68.0918 75.1677 68.0938 74.1062 67.3698 74.1062Z" fill="#4b9097"/>
<path d="M64.7088 68.9005C64.5228 69.083 64.3368 69.2654 64.1518 69.4479C63.6718 69.9186 64.4118 70.619 64.9108 70.1653C65.1038 69.9895 65.2968 69.8146 65.4898 69.6388C66.0018 69.1718 65.2018 68.4147 64.7088 68.9005Z" fill="#4b9097"/>
<path d="M67.9538 62.2913C67.9548 62.47 67.9568 62.6496 67.9578 62.8282C67.9638 63.4946 69.0478 63.4956 69.0538 62.8282C69.0548 62.6496 69.0568 62.47 69.0578 62.2913C69.0638 61.6202 67.9478 61.6192 67.9538 62.2913Z" fill="#4b9097"/>
<path d="M70.2088 69.293C69.5098 69.293 69.5088 70.3205 70.2088 70.3205C70.9088 70.3205 70.9098 69.293 70.2088 69.293Z" fill="#4b9097"/>
<path d="M70.7908 75.1743C70.7958 75.3529 70.8008 75.5316 70.8068 75.7112C70.8258 76.3662 71.8658 76.3681 71.8848 75.7112C71.8898 75.5325 71.8948 75.3529 71.8998 75.1743C71.9188 74.4993 70.7708 74.4984 70.7908 75.1743Z" fill="#4b9097"/>
<path d="M78.1588 75.7206C77.9698 75.7244 77.7808 75.7291 77.5908 75.7329C76.8918 75.748 76.8908 76.7443 77.5908 76.7604C77.7798 76.7642 77.9698 76.7689 78.1588 76.7727C78.8748 76.7897 78.8768 75.7055 78.1588 75.7206Z" fill="#4b9097"/>
<path d="M81.0118 81.6142C81.0148 81.7929 81.0178 81.9725 81.0208 82.1511C81.0318 82.8147 82.1008 82.8157 82.1118 82.1511C82.1148 81.9725 82.1178 81.7929 82.1208 81.6142C82.1318 80.9403 80.9998 80.9393 81.0118 81.6142Z" fill="#4b9097"/>
<path d="M84.9728 80.0168C84.2588 80.0168 84.2578 81.0651 84.9728 81.0651C85.6868 81.0651 85.6878 80.0168 84.9728 80.0168Z" fill="#4b9097"/>
<path d="M81.5658 73.5701C81.3768 73.572 81.1878 73.5739 80.9978 73.5767C80.2838 73.5843 80.2828 74.6175 80.9978 74.625C81.1868 74.6269 81.3768 74.6288 81.5658 74.6316C82.2878 74.6383 82.2888 73.5616 81.5658 73.5701Z" fill="#4b9097"/>
<path d="M77.0228 69.2861C76.3148 69.2861 76.3138 70.3259 77.0228 70.3259C77.7308 70.3259 77.7328 69.2861 77.0228 69.2861Z" fill="#4b9097"/>
<path d="M72.4868 66.0486C72.4878 66.2272 72.4898 66.4068 72.4908 66.5855C72.4968 67.2623 73.5988 67.2642 73.6038 66.5855C73.6048 66.4068 73.6068 66.2272 73.6078 66.0486C73.6148 65.3661 72.4818 65.3652 72.4868 66.0486Z" fill="#4b9097"/>
<path d="M80.4638 67.6595C80.4678 67.8382 80.4708 68.0168 80.4798 68.1964C80.5088 68.8269 81.4888 68.8288 81.5178 68.1964C81.5258 68.0178 81.5298 67.8391 81.5328 67.6595C81.5458 67.0092 80.4508 67.0082 80.4638 67.6595Z" fill="#4b9097"/>
<path d="M83.2688 71.9832C82.5778 71.9832 82.5768 72.9984 83.2688 72.9984C83.9598 72.9974 83.9618 71.9832 83.2688 71.9832Z" fill="#4b9097"/>
<path d="M86.3028 76.4314C86.1098 76.6072 85.9148 76.7802 85.7338 76.9664C85.2718 77.4428 85.9798 78.1121 86.4838 77.6754C86.6818 77.5043 86.8638 77.319 87.0498 77.1366C87.5218 76.6734 86.7928 75.9843 86.3028 76.4314Z" fill="#4b9097"/>
<path d="M84.4208 72.4897C84.4248 72.6683 84.4288 72.847 84.4318 73.0266C84.4458 73.6845 85.5008 73.6864 85.5138 73.0266C85.5178 72.8479 85.5208 72.6683 85.5248 72.4897C85.5388 71.8185 84.4068 71.8166 84.4208 72.4897Z" fill="#4b9097"/>
<path d="M82.7018 77.8635C82.5128 77.8682 82.3238 77.873 82.1338 77.8777C81.4318 77.8957 81.4308 78.891 82.1338 78.909C82.3228 78.9137 82.5118 78.9184 82.7018 78.9241C83.4238 78.943 83.4248 77.8446 82.7018 77.8635Z" fill="#4b9097"/>
<path d="M82.1338 86.4542C81.9448 86.456 81.7549 86.4579 81.5659 86.4608C80.8549 86.4683 80.8539 87.4968 81.5659 87.5053C81.7549 87.5072 81.9438 87.5091 82.1338 87.5119C82.8528 87.5185 82.8548 86.4456 82.1338 86.4542Z" fill="#4b9097"/>
<path d="M76.2778 65.6801C76.0908 65.4996 75.9028 65.319 75.7148 65.1394C75.2098 64.6536 74.4098 65.4088 74.9238 65.8862C75.1148 66.0639 75.3058 66.2407 75.4968 66.4184C76.0048 66.8901 76.7778 66.1603 76.2778 65.6801Z" fill="#4b9097"/>
</svg>
