<svg width="34" height="31" viewBox="0 0 34 31" fill="none" xmlns="http://www.w3.org/2000/svg">
<path d="M33.1458 24.973C33.3918 24.9248 33.5878 24.7755 33.6328 24.5316C34.3988 20.3961 32.0628 16.7398 29.4388 13.5788C29.4328 13.5637 29.4348 13.5505 29.4268 13.5344C26.7468 8.17192 21.8728 3.95321 15.9948 1.86796C13.3048 0.913246 10.0978 0.161762 7.20582 0.489768C6.16782 0.607926 5.09583 1.01722 4.60183 1.94358C4.28883 2.5287 4.26383 3.18093 4.51583 3.73296C1.82483 4.37952 0.0848283 6.98467 0.00382829 9.58414C-0.112172 13.3293 2.42983 16.9317 4.65883 19.8383C9.65283 26.3531 17.7268 31.7591 26.6358 30.7996C29.8748 30.4508 33.5918 28.288 33.1458 24.973ZM28.6588 29.2957C26.5398 30.0075 24.1018 29.9432 21.9108 29.619C17.4458 28.9582 13.3568 26.8437 10.0398 23.9862C6.84482 21.2336 4.01082 17.6926 2.21982 13.9598C1.38482 12.2195 0.78483 10.1986 1.32083 8.29669C1.85783 6.38915 3.43183 4.76046 5.58883 4.63663C6.06083 4.60922 6.28083 3.96833 5.89383 3.6961C4.80283 2.92949 5.92283 1.90388 6.71483 1.66284C7.35083 1.46906 8.10783 1.5012 8.76383 1.52578C9.90783 1.5702 11.0488 1.7101 12.1698 1.92657C14.4378 2.36422 16.6208 3.14501 18.6488 4.19803C22.1748 6.02901 25.1528 8.71072 27.2438 11.9416C27.0398 12.0995 26.9448 12.3623 27.1638 12.6099C29.9088 15.717 33.0218 19.4196 32.6128 23.6742C32.2068 23.4861 31.6388 23.782 31.8358 24.3019C32.7018 26.5809 30.8228 28.5688 28.6588 29.2957Z" fill="#4b9097"/>
<path d="M29.8998 25.8029C27.7378 21.8063 23.8388 19.1709 20.1758 16.4807C15.8248 13.2857 11.4118 10.1711 6.66683 7.51301C6.05583 7.17083 5.60483 8.12271 6.20983 8.463C10.7028 10.9944 14.8928 13.9559 19.0228 16.9817C22.6338 19.6275 26.7118 22.2308 28.8458 26.1763C29.1708 26.7812 30.2298 26.4135 29.8998 25.8029Z" fill="#4b9097"/>
<path d="M31.4048 23.764C25.7708 15.526 17.5759 8.79574 8.41685 4.25943C7.79585 3.95222 7.35085 4.88613 7.96685 5.19429C17.1238 9.7826 24.5929 16.3607 30.5029 24.3661C30.9119 24.921 31.7898 24.3264 31.4048 23.764Z" fill="#4b9097"/>
<path d="M6.61781 11.9132C5.64281 11.4103 4.89981 10.7789 4.34581 9.86006C3.99681 9.28062 3.11681 9.88275 3.45481 10.4556C4.06581 11.4916 5.00781 12.3773 6.16081 12.8641C6.81581 13.1401 7.23581 12.2317 6.61781 11.9132Z" fill="#4b9097"/>
<path d="M9.01182 16.9383C8.73182 16.5593 8.20383 16.5697 7.79183 16.3674C7.29783 16.1245 6.88982 15.736 6.64182 15.2643C6.33682 14.6848 5.33282 15.0251 5.63282 15.6216C5.95082 16.2549 6.40182 16.7795 7.03382 17.1538C7.51682 17.4393 8.41082 17.8826 8.91882 17.4526C9.07582 17.3183 9.14282 17.117 9.01182 16.9383Z" fill="#4b9097"/>
<path d="M9.89484 21.191C9.19384 21.1541 8.66984 20.7968 8.46784 20.1503C8.26684 19.5065 7.24084 19.8761 7.43784 20.5151C7.73084 21.4661 8.66284 22.1911 9.72084 22.2223C10.4148 22.2421 10.6128 21.2288 9.89484 21.191Z" fill="#4b9097"/>
<path d="M12.0788 19.5764C11.5988 19.3685 11.2228 19.1577 10.9148 18.7408C10.5108 18.1926 9.61685 18.7909 10.0198 19.3382C10.4468 19.9177 11.0429 20.361 11.7799 20.516C12.3639 20.638 12.6068 19.8042 12.0788 19.5764Z" fill="#4b9097"/>
<path d="M16.1768 20.1351C15.6798 19.913 15.3518 19.6058 15.0388 19.1842C14.7178 18.7532 13.9298 19.1199 14.1598 19.6237C14.4638 20.2883 15.0268 20.7836 15.7348 21.0549C16.3688 21.2987 16.8018 20.4149 16.1768 20.1351Z" fill="#4b9097"/>
<path d="M14.7508 24.0381C14.2568 23.9643 13.9378 23.711 13.7888 23.2582C13.5798 22.6202 12.5568 22.9869 12.7628 23.6212C13.0138 24.3944 13.7218 24.9729 14.5798 25.0571C15.2728 25.1251 15.4518 24.143 14.7508 24.0381Z" fill="#4b9097"/>
<path d="M21.0328 27.6877C19.8388 27.8862 18.7728 27.6367 17.9248 26.7926C17.4408 26.3105 16.7498 27.1073 17.2248 27.5847C18.2548 28.6179 19.8268 29.0536 21.2708 28.6481C21.8378 28.4884 21.6228 27.5894 21.0328 27.6877Z" fill="#4b9097"/>
<path d="M20.6798 25.0392C20.0258 24.7802 19.5148 24.3983 19.2208 23.7744C18.9368 23.1732 17.9208 23.5268 18.2028 24.1346C18.5928 24.9749 19.2938 25.6801 20.2348 25.9618C20.8748 26.1546 21.3338 25.2982 20.6798 25.0392Z" fill="#4b9097"/>
<path d="M22.9888 23.1401C22.4788 22.8196 21.9618 22.5748 21.5428 22.139C21.0828 21.6607 20.2018 22.2421 20.6658 22.7241C21.1928 23.2733 21.8148 23.78 22.5848 23.9795C23.0568 24.1014 23.3968 23.3953 22.9888 23.1401Z" fill="#4b9097"/>
<path d="M25.3508 27.857C24.7468 27.529 24.1348 27.2123 23.5268 26.8909C22.9108 26.5658 22.4628 27.5091 23.0728 27.8334C23.6798 28.1557 24.2848 28.4837 24.8968 28.7994C25.5188 29.1217 25.9548 28.185 25.3508 27.857Z" fill="#4b9097"/>
</svg>
