<svg width="89" height="105" viewBox="0 0 89 105" fill="none" xmlns="http://www.w3.org/2000/svg">
<path d="M52.4943 27.301C49.0363 25.7885 47.9853 22.1663 46.0603 19.3485C44.3763 16.8832 42.1073 15.3689 39.0073 14.9483C33.6453 14.2214 26.4813 16.387 25.1693 21.9517C25.0353 22.5208 25.9523 22.7637 26.0963 22.1937C27.5533 16.3851 36.2803 14.3197 41.5233 16.5552C46.7923 18.8012 46.7313 25.7763 52.0253 28.06C52.5653 28.2925 53.0383 27.5382 52.4943 27.301Z" fill="#4b9097"/>
<path d="M30.1143 16.6243C23.6653 15.108 17.1413 15.9862 12.9043 21.2012C9.02735 25.9729 7.82035 32.4007 7.41635 38.2613C7.15835 42.0121 7.36035 45.6542 6.51335 49.3615C5.57435 53.4734 4.11535 57.4624 2.83335 61.4855C0.733349 68.0768 -1.76365 76.0576 1.77635 82.6111C3.58935 85.9678 6.26835 89.5853 9.22235 92.1356C12.9273 95.3363 16.7873 93.7662 21.2613 94.2076C21.8893 94.2691 21.8763 93.3531 21.2613 93.2841C16.8893 92.7935 13.1903 94.4524 9.56435 91.145C7.02735 88.831 4.88035 85.8439 3.11835 82.9675C-0.752651 76.6475 1.53135 68.9133 3.58235 62.3863C5.58535 56.0124 8.26935 49.5941 8.27835 42.8581C8.28635 36.8642 8.81635 30.5669 11.5793 25.0758C15.1363 18.0091 22.0063 15.679 29.8593 17.4977C30.4583 17.6347 30.7133 16.7651 30.1143 16.6243Z" fill="#4b9097"/>
<path d="M17.4503 94.3191C21.2063 96.2276 24.0543 100.992 28.7413 100.98C33.9083 100.968 38.0043 95.0149 43.2603 96.9971C43.8483 97.2192 44.0873 96.3335 43.5203 96.1066C38.7533 94.2057 34.8803 98.6636 30.5933 99.7733C24.7643 101.283 22.4913 95.0545 17.7973 93.5431C17.3143 93.3881 17.0043 94.0923 17.4503 94.3191Z" fill="#4b9097"/>
<path d="M34.6343 99.018C36.0293 106.225 45.5573 104.926 51.0163 103.348C53.9783 102.493 57.1113 101.354 59.5873 99.553C63.2883 96.8628 64.5763 92.6271 65.6463 88.5284C66.2163 86.3449 66.7423 84.1339 67.6293 82.0402C68.8513 79.1562 70.9063 76.8904 73.1853 74.6888C76.5583 71.4305 80.4123 68.5503 82.9963 64.6417C85.9013 60.2471 87.1343 54.6502 87.9503 49.5836C88.7173 44.8242 88.7853 39.5894 86.1693 35.2875C83.4873 30.8769 78.0303 27.2499 72.5633 27.0249C66.6533 26.782 62.7793 31.3609 57.5383 33.0377C56.9393 33.2296 57.1963 34.1324 57.8013 33.9386C61.8273 32.6502 64.8973 29.58 68.9543 28.406C74.5623 26.7829 80.6373 29.942 84.0783 34.0577C87.6973 38.387 87.8333 44.102 86.9973 49.3341C86.2723 53.8704 85.1753 58.9597 82.8523 63.0186C78.7223 70.2329 69.9303 74.0385 66.6763 81.7915C65.1293 85.4771 64.6903 89.4784 63.1813 93.1735C61.7153 96.7636 59.1283 99.1097 55.5023 100.726C50.1953 103.092 37.3183 107.047 35.5373 98.7808C35.4173 98.2212 34.5273 98.4622 34.6343 99.018Z" fill="#4b9097"/>
<path d="M17.6893 42.2863C13.9493 55.6032 12.6983 68.8199 15.2153 82.4534C15.3193 83.0168 16.2243 82.7776 16.1233 82.2171C13.6873 68.7395 14.9023 55.6873 18.5713 42.517C18.7203 41.9782 17.8403 41.7485 17.6893 42.2863Z" fill="#4b9097"/>
<path d="M47.0863 90.1278C53.0203 90.7385 56.4623 84.9818 58.4613 80.5788C60.8883 75.2333 62.2343 69.5287 63.6473 63.8892C63.7773 63.3693 62.9603 63.1538 62.8003 63.668C61.2733 68.5494 60.2843 73.5423 58.3843 78.3253C56.5793 82.8701 53.3393 89.8783 47.0863 89.2847C46.5153 89.2317 46.5233 90.0692 47.0863 90.1278Z" fill="#4b9097"/>
<path d="M47.9843 94.8381C51.5833 95.461 55.3403 92.4778 55.9493 89.1694C56.0503 88.6202 55.2083 88.3763 55.0493 88.9349C54.2713 91.6592 51.4993 94.5318 48.2343 93.9807C47.6423 93.8796 47.3873 94.7351 47.9843 94.8381Z" fill="#4b9097"/>
<path d="M48.7914 25.0173C48.0094 19.3514 48.6874 13.0493 51.6024 7.96853C54.8614 2.2875 61.2274 0.141752 67.7994 1.33467C73.5084 2.37163 77.7294 6.03357 78.2974 11.6153C78.8034 16.5912 75.5164 20.3174 70.0354 18.3579C64.6214 16.422 63.1394 9.80328 56.9664 8.94782C56.3584 8.86369 56.0864 9.73428 56.7084 9.83447C63.4514 10.9149 65.0624 18.9336 72.0714 19.7919C76.7874 20.3694 79.3584 16.8389 79.3454 12.7156C79.3284 7.69062 76.3864 3.31405 71.4614 1.38288C65.5814 -0.922613 57.7194 -0.382868 53.2144 4.19598C47.9844 9.51308 46.8544 18.0961 47.8304 25.0163C47.9104 25.5873 48.8714 25.5967 48.7914 25.0173Z" fill="#4b9097"/>
<path d="M58.7983 11.3147C53.5133 16.4277 53.3703 26.6431 59.1513 31.5055C59.6273 31.9054 60.3313 31.2446 59.8523 30.842C54.4793 26.3217 54.5723 16.733 59.4833 11.9622C59.9183 11.5397 59.2353 10.8922 58.7983 11.3147Z" fill="#4b9097"/>
<path d="M73.2593 37.2037C77.4393 36.6554 79.9643 40.9592 79.5393 44.3886C79.1213 47.7623 76.8543 50.5687 74.7833 53.2202C74.4243 53.6796 75.2323 54.1097 75.5893 53.6654C78.3103 50.2842 81.6193 45.9332 80.2633 41.4262C79.3333 38.3342 76.5253 35.8992 73.0143 36.3671C72.4323 36.4446 72.6813 37.2793 73.2593 37.2037Z" fill="#4b9097"/>
</svg>
