<svg width="189" height="124" viewBox="0 0 189 124" fill="none" xmlns="http://www.w3.org/2000/svg">
<path d="M156.642 3.44078C148.471 -0.638973 138.595 0.0170402 130.391 3.66859C130.915 2.89631 131.439 2.12309 131.963 1.35081C132.218 0.974591 131.86 0.569073 131.456 0.538824C125.228 0.0728098 119.077 2.04557 114.37 5.78031C114.43 5.50807 114.48 5.23205 114.513 4.94942C114.544 4.67907 114.213 4.38037 113.932 4.41346C103.639 5.63474 93.9778 10.0529 86.5898 16.8682C86.6108 16.0733 86.5189 15.2821 86.2739 14.5249C85.8439 13.194 84.6909 12.9123 83.3719 13.298C81.4699 13.8538 79.6049 14.679 77.8119 15.491C70.6309 18.7427 64.1029 23.4227 58.8969 29.1311C58.8998 27.4731 58.7039 25.8255 58.3239 24.1902C58.2509 23.8764 57.7588 23.6628 57.4738 23.8745C51.9808 27.9581 46.8029 32.4027 42.0149 37.215C39.7579 39.4836 37.7598 42.0614 35.3539 44.1863C34.1739 45.2289 32.7079 46.1355 31.0329 46.0731C29.4479 46.0135 27.9459 45.1741 27.6649 43.6267C27.5949 43.2392 26.9578 43.0945 26.7018 43.398C23.0488 47.7348 20.2528 52.6039 18.3868 57.8501C17.0558 57.1014 14.9488 58.6054 14.1978 59.7236C12.4208 62.3694 11.5199 65.8083 10.6389 68.7924C8.69186 75.3847 7.28687 82.2303 2.92087 87.8688C2.83687 87.9775 2.82285 88.0938 2.85385 88.2006C2.22585 89.2347 1.63086 90.2877 1.11286 91.3823C0.767855 91.1583 0.183845 91.3994 0.339845 91.8786C0.418845 92.1215 0.507869 92.3626 0.588869 92.6055C0.404869 93.0384 0.199853 93.46 0.0348526 93.9015C-0.207147 94.548 0.881865 94.8108 1.12287 94.1718C1.12387 94.1699 1.12385 94.169 1.12485 94.1671C1.50085 95.2418 1.88984 96.3128 2.29184 97.38C2.52784 99.6156 3.31184 101.899 4.01184 103.947C4.99584 106.828 6.31485 109.637 8.12985 112.14C8.59285 112.779 9.09685 113.397 9.62985 113.994C10.0979 114.73 10.5968 115.449 11.1538 116.127C16.3748 122.49 25.6819 123.638 33.6399 122.809C42.3179 121.907 50.4379 118.617 58.3559 115.326C62.6969 113.521 67.0239 111.677 71.4719 110.119C76.0469 108.517 80.7529 107.297 85.5019 106.251C96.7819 103.769 108.187 101.79 119.511 99.4965C120.226 99.3518 119.907 98.3319 119.197 98.4671C109.545 100.3 99.9019 102.204 90.2729 104.142C81.1919 105.971 72.4669 108.369 63.9329 111.843C55.9839 115.078 48.1278 118.749 39.6798 120.699C32.4698 122.362 23.3319 122.989 16.6229 119.252C18.3589 120.059 20.2179 120.618 22.1689 120.841C24.3939 121.096 27.0199 121.026 27.3889 118.454C27.7569 115.885 26.0309 112.939 24.9529 110.681C23.9599 108.6 22.8148 106.589 21.5428 104.651C26.6028 104.192 31.3889 102.29 35.2419 99.1061C35.7789 98.6628 34.9879 97.9491 34.4529 98.3782C30.6028 101.472 25.8859 103.302 20.8679 103.648C19.1489 101.156 17.2149 98.7979 15.0839 96.6077C17.8569 95.4148 20.4879 93.9809 22.9109 92.2302C23.4419 91.8465 22.9289 90.9901 22.3639 91.37C19.8189 93.0838 17.1529 94.583 14.3019 95.7967L14.2999 95.7986C13.6549 95.1624 12.9939 94.5405 12.3169 93.9355C11.7859 93.4619 10.9958 94.2247 11.5248 94.7021C14.5718 97.4528 17.2739 100.503 19.6019 103.813C19.2149 104.069 19.3149 104.779 19.9079 104.763C20.0169 104.76 20.1249 104.745 20.2339 104.74C20.5109 105.152 20.8078 105.55 21.0728 105.971C22.4468 108.155 23.6599 110.434 24.6789 112.787C25.3359 114.304 27.3689 117.925 25.7389 119.363C24.7449 120.239 22.6749 119.861 21.4329 119.648C20.1759 119.431 18.9399 119.062 17.7729 118.571C15.5589 117.64 13.5569 116.293 11.8389 114.682C11.3969 114.268 10.9809 113.833 10.5799 113.388C10.0559 112.554 9.59486 111.681 9.15586 110.797C9.22986 110.838 9.30684 110.874 9.39084 110.899C10.5788 112.414 11.8779 113.854 13.3279 115.148C14.6509 116.329 16.7729 118.575 18.7909 118.33C20.6709 118.102 21.1188 116.073 21.0598 114.578C21.0128 113.396 20.6639 112.227 20.4079 111.075C20.3649 110.882 20.3248 110.687 20.2838 110.494C20.2888 110.412 20.2798 110.328 20.2358 110.239C20.2328 110.234 20.2289 110.227 20.2259 110.221C19.9179 108.756 19.6299 107.277 19.1909 105.847C19.0359 105.344 18.1129 105.432 18.1899 105.987C18.2259 106.248 18.2879 106.507 18.3339 106.766C16.3019 103.338 13.9108 100.113 11.1808 97.1333C9.96085 95.8024 8.17687 93.2152 6.01087 93.4279C4.49587 93.5772 3.60684 94.7862 3.31384 96.0916C3.31484 95.4432 3.39284 94.8089 3.59784 94.2115C4.15784 92.5857 5.84486 91.9448 7.47086 92.6944C8.83086 93.3211 9.89684 94.4894 10.7918 95.6114C11.2248 96.154 12.1979 95.6114 11.7599 95.0613C10.4759 93.4487 8.54985 91.3634 6.22785 91.2821C6.27385 91.2481 6.31984 91.2131 6.35684 91.1611C10.8988 84.757 18.0679 80.4504 26.0669 79.058C26.7479 78.9398 26.4389 77.9823 25.7699 78.0853C17.4659 79.3718 10.0499 84.0443 5.40286 90.6479C5.20986 90.922 5.34386 91.181 5.57486 91.3114C5.53886 91.3162 5.50285 91.3162 5.46585 91.3218C3.69185 91.6035 2.74284 92.9401 2.39084 94.4544C2.17284 93.8826 1.95384 93.3097 1.73584 92.7369C5.52284 83.9951 12.7928 77.6392 21.0558 72.5763C29.6048 70.4986 38.3799 69.5099 47.2079 69.5978C47.9269 69.6044 47.9119 68.5542 47.1949 68.5429C39.4179 68.4247 31.6628 69.2018 24.0819 70.8011C27.7598 68.732 31.5649 66.8745 35.3029 65.1589C37.9119 63.9612 40.5198 62.7673 43.1238 61.5659C43.1328 61.8627 43.4019 62.1898 43.8109 62.1274C47.8469 61.5149 51.8849 60.909 55.9189 60.2823C56.6179 60.1735 56.3059 59.1772 55.6129 59.2812C51.8499 59.8465 48.0899 60.4297 44.3289 61.0082C48.8099 58.9343 53.2698 56.8235 57.6638 54.5776C61.4319 52.6511 65.1608 50.6585 68.8528 48.6045C72.5318 48.5695 76.2198 48.596 79.8918 48.3852C80.4728 48.3521 80.4629 47.5515 79.8809 47.5316C76.8379 47.4257 73.7889 47.4834 70.7429 47.5344C73.6109 45.9162 76.4629 44.2705 79.2819 42.5775C82.3399 40.7408 85.3568 38.8456 88.3528 36.921C88.4278 36.9371 88.5098 36.939 88.5988 36.9239C101.159 34.6505 113.738 33.192 126.529 32.8744C127.241 32.8564 127.23 31.8176 126.516 31.828C114.401 32.0095 102.444 33.4311 90.5518 35.5107C92.5219 34.2251 94.4778 32.9207 96.4218 31.5992C107.288 29.4762 118.288 28.0857 129.36 27.4079C130.082 27.3635 130.074 26.2982 129.346 26.3407C118.995 26.9485 108.701 28.2312 98.5309 30.1369C99.8639 29.2162 101.201 28.3002 102.521 27.3616C103.103 26.9485 102.521 26.0174 101.932 26.4352C99.9269 27.8597 97.9019 29.2587 95.8669 30.6435C95.7999 30.6568 95.7329 30.6681 95.6659 30.6814C95.4379 30.7267 95.3268 30.8676 95.2928 31.0283C86.6078 36.9135 77.6508 42.4357 68.4468 47.5675C68.4038 47.5685 68.3599 47.5694 68.3169 47.5694C68.0449 47.5723 67.8818 47.7282 67.8218 47.9182C64.7348 49.631 61.6208 51.3013 58.4789 52.9253C50.9989 56.7905 43.3399 60.2908 35.6649 63.792C30.4409 66.175 25.2339 68.6705 20.3589 71.65C20.2209 71.684 20.0808 71.7133 19.9428 71.7483C19.7128 71.8069 19.6019 71.9591 19.5699 72.1273C17.8939 73.1785 16.2588 74.2901 14.6808 75.4811C12.1548 77.3877 9.80286 79.5013 7.69086 81.7983C8.85686 79.1043 9.71085 76.2733 10.5038 73.4526C11.2668 70.7387 11.9909 68.0107 12.9409 65.3479C13.4569 63.9036 14.0378 62.48 14.7318 61.1037C15.0988 60.3739 17.2849 57.5391 18.1149 59.1867C18.3419 59.6366 19.0278 59.4523 19.1628 59.0449C20.8588 53.931 23.4808 49.1584 26.9168 44.9028C27.8268 46.6024 30.1039 47.3945 32.0969 47.0902C35.4169 46.5835 37.5989 43.4916 39.6479 41.2834C45.0359 35.4776 50.9848 30.1492 57.3748 25.3368C57.7428 27.2983 57.8279 29.2587 57.6659 31.2589C57.6099 31.9452 58.7109 31.9102 58.7859 31.2466C58.8039 31.0916 58.8029 30.9375 58.8169 30.7825C58.8249 30.774 58.8349 30.7721 58.8419 30.7636C63.2469 25.9059 68.3638 21.7373 74.2198 18.5111C77.1029 16.9231 80.1368 15.5364 83.2798 14.472C83.8328 14.2848 84.7489 14.3179 85.1659 14.8189C85.3849 15.0817 85.3479 15.9154 85.3649 16.233C85.3989 16.8862 85.3349 17.5432 85.2139 18.1888C84.5559 18.8486 83.9119 19.5216 83.2959 20.2211C82.8319 20.7485 83.6398 21.501 84.1068 20.9697C84.1728 20.8951 84.2439 20.8242 84.3109 20.7495C83.8769 21.5548 83.3278 22.3025 82.6588 22.9756C82.1508 23.486 82.9738 24.2479 83.4828 23.7365C84.8228 22.3895 85.8789 20.5548 86.3389 18.633C93.4859 11.6164 103.019 6.95338 113.255 5.59031C113.113 6.22742 112.872 6.82199 112.544 7.37118C111.916 7.9856 111.324 8.63689 110.771 9.32126C110.764 9.32693 110.758 9.3326 110.751 9.33827L110.754 9.34111C110.724 9.37798 110.692 9.412 110.662 9.44887C110.234 9.98578 111.115 10.4442 111.574 10.0973C112.358 9.5037 112.979 8.80515 113.454 8.03098C117.878 3.7565 124.074 1.37822 130.441 1.57578C129.718 2.64298 128.994 3.70924 128.271 4.77644C127.945 5.25663 128.59 5.75857 129.067 5.51091C137.067 1.3527 147.181 0.225942 155.523 4.12893C154.703 5.3417 153.539 6.19244 152.026 6.5904C151.315 6.77756 151.631 7.82018 152.344 7.63302C154.335 7.10935 155.905 5.9117 156.855 4.17619C156.996 3.9257 156.925 3.58162 156.642 3.44078ZM6.71185 104.604C6.30085 103.759 5.89687 102.863 5.53687 101.945C5.61387 102.111 5.76686 102.251 6.00086 102.276C6.28986 102.309 6.75486 102.275 7.01886 102.383C7.47186 102.57 7.78786 103.101 8.04886 103.484C8.50686 104.155 8.91286 104.861 9.23786 105.598C9.48786 106.164 9.69586 106.749 9.86386 107.342C9.97986 107.749 10.0798 108.162 10.1408 108.579C10.1848 108.751 10.2059 108.925 10.2039 109.101C10.2499 109.372 10.1368 109.576 9.87485 109.719C8.66185 108.11 7.58685 106.404 6.71185 104.604ZM13.0179 112.43C12.8629 111.947 12.2448 111.98 12.0078 112.296C11.5298 111.782 11.0758 111.249 10.6328 110.706C11.2928 110.233 11.3319 109.226 11.2289 108.476C11.0009 106.822 10.3529 105.186 9.50287 103.731C9.12187 103.079 8.65285 102.228 8.05985 101.715C7.59885 101.316 7.04885 101.297 6.44385 101.273C6.38485 101.197 6.30886 101.129 6.19486 101.09C4.97686 100.676 6.04584 99.6071 6.54184 99.4322C7.07084 99.246 7.65586 99.4209 8.11786 99.6931C8.89786 100.153 9.40085 100.96 9.88385 101.674C10.8179 103.056 11.7349 104.448 12.6609 105.834C13.5779 107.209 14.8099 108.642 15.3599 110.197C15.6699 111.07 15.7859 112.249 14.8209 112.774C14.2429 113.087 13.2589 113.181 13.0179 112.43ZM7.55286 95.0415C8.54586 95.7967 9.39387 96.8129 10.2309 97.7156C13.7779 101.542 16.7388 105.825 19.1328 110.378C19.4258 111.561 19.7089 112.745 19.8689 113.946C19.9819 114.793 20.0599 115.971 19.5139 116.712C18.4299 118.182 16.4258 116.289 15.4738 115.527C14.8868 115.058 14.3248 114.563 13.7748 114.056C14.6988 114.105 15.7169 113.708 16.2599 112.986C18.2029 110.407 14.3998 106.418 13.0468 104.406C12.0598 102.939 11.1559 101.362 10.0179 99.9946C9.17985 98.987 7.98186 98.1438 6.54886 98.3253C5.67786 98.4359 5.04987 98.9936 4.76987 99.6515C4.58887 98.9719 4.44687 98.2903 4.37287 97.6163C4.18387 95.8875 5.41686 93.4156 7.55286 95.0415Z" fill="#4b9097"/>
<path d="M125.011 73.205C118.735 77.0957 113.388 82.323 109.604 88.4596C109.554 88.5409 109.534 88.6203 109.53 88.696C91.0938 93.3599 72.9478 99.3377 55.1728 105.847C49.7498 107.833 44.3528 109.891 39.0038 112.047C38.3818 112.297 38.6598 113.269 39.3008 113.019C58.3348 105.587 77.6529 98.8745 97.3469 93.1689C102.907 91.5582 108.496 90.0354 114.069 88.4663C114.643 88.3046 114.391 87.4813 113.811 87.6212C112.872 87.8471 111.938 88.0948 111.001 88.3273C114.787 82.6624 119.668 77.8377 125.593 74.121C126.195 73.7419 125.621 72.8269 125.011 73.205Z" fill="#4b9097"/>
<path d="M122.478 52.5263C102.852 66.4926 81.0558 77.6211 57.8788 85.3373C51.3638 87.5067 44.7479 89.3859 38.0659 91.0391C37.3989 91.2036 37.6949 92.1706 38.3629 92.0118C62.1599 86.3544 85.0188 77.0058 105.805 64.6947C111.731 61.1849 117.482 57.4247 123.048 53.4243C123.608 53.0207 123.049 52.1198 122.478 52.5263Z" fill="#4b9097"/>
<path d="M107.009 43.9501C97.6658 50.5839 87.0858 59.6414 74.6288 58.8465C74.9878 58.2774 75.3159 57.6781 75.6059 57.0458C75.8969 56.4134 74.9048 55.8746 74.6118 56.5117C74.2448 57.3104 73.8009 58.0345 73.3249 58.7264C73.1229 58.7028 72.9228 58.6839 72.7198 58.6546C72.0258 58.5544 71.7378 59.5564 72.4398 59.6622C72.5048 59.6717 72.5679 59.6774 72.6319 59.6868C70.2439 62.6285 66.8599 64.5445 63.1359 65.7904C62.8999 65.7138 62.6138 65.7724 62.4568 66.0012C59.7368 66.8443 56.8648 67.3586 54.0858 67.662C53.4348 67.7329 53.4298 68.698 54.0978 68.6394C56.6658 68.4144 59.3158 67.9891 61.8668 67.2877C59.5288 71.9176 54.1369 74.7675 49.5009 77.0248C43.8929 79.7557 37.8569 81.6207 31.6479 82.6529C30.9639 82.7663 31.2688 83.7419 31.9468 83.6332C38.5978 82.5716 45.0328 80.5024 50.9818 77.4946C55.7688 75.0738 61.3348 71.944 63.2798 66.8632C67.5138 65.4983 71.3399 63.276 73.9109 59.8362C86.9259 61.0263 97.8619 51.8118 107.597 44.8755C108.179 44.4624 107.599 43.5313 107.009 43.9501Z" fill="#4b9097"/>
<path d="M89.3928 24.3745C84.9799 29.7965 80.3778 35.0692 75.5418 40.1604C75.2238 40.495 75.4699 40.926 75.8119 41.0338C71.9649 42.7892 68.0748 44.4528 64.1638 46.0739C66.1808 41.48 68.2238 36.8945 70.1978 32.2845C70.4368 31.7268 69.4069 31.3241 69.1569 31.8837C67.0089 36.6856 64.9369 41.5197 62.8289 46.3377C62.7829 46.4426 62.7809 46.5419 62.7959 46.6364C55.8529 49.4797 48.8228 52.1331 41.6888 54.5293C41.0898 54.7307 41.3588 55.6343 41.9648 55.432C54.5718 51.2304 66.9118 46.3348 78.8998 40.7417C79.5178 40.4534 78.9638 39.5876 78.3488 39.874C77.7388 40.1575 77.1248 40.4336 76.5128 40.7134C81.2908 35.6902 85.8769 30.5007 90.2118 25.1288C90.6508 24.5834 89.8419 23.8234 89.3928 24.3745Z" fill="#4b9097"/>
<path d="M51.6569 42.9706C48.2929 45.5256 45.4039 48.5373 43.0179 51.9355C42.6149 52.5092 43.5999 53.0329 43.9999 52.4629C46.3329 49.1394 49.1769 46.2138 52.4649 43.7164C53.0309 43.2863 52.2169 42.5452 51.6569 42.9706Z" fill="#4b9097"/>
<path d="M96.2979 53.0104C94.4229 56.0107 92.1639 58.7434 89.5099 61.1633C89.0239 61.6066 89.7739 62.2967 90.2599 61.8552C92.9869 59.3805 95.3109 56.5901 97.1819 53.4849C97.5059 52.9461 96.6299 52.4782 96.2979 53.0104Z" fill="#4b9097"/>
<path d="M148.721 35.1089C141.399 39.8381 134.254 44.8319 127.032 49.6962C126.456 50.0838 127.019 50.9846 127.602 50.5933C134.832 45.7394 142.165 40.997 149.293 36.0098C149.858 35.6147 149.32 34.7223 148.721 35.1089Z" fill="#4b9097"/>
<path d="M188.492 69.5523C187.761 68.0522 186.185 67.4633 184.542 67.2988C182.367 67.0814 180.141 67.52 177.984 67.1126C175.655 66.6731 173.834 65.1228 172.222 63.5698C170.509 61.9193 168.924 60.1139 166.904 58.7811C164.673 57.3102 162.019 56.5531 159.326 56.3309C158.749 56.2837 158.177 56.2695 157.607 56.2704C159.223 55.1673 160.341 53.5651 159.944 51.4893C159.709 50.2586 159.063 49.5147 158.211 49.094C160.176 48.6412 162.137 48.1695 164.07 47.626C166.83 46.85 169.61 45.5786 170.992 43.0557C172.077 41.0763 172.1 38.4806 170.154 36.971C169.482 36.4492 168.673 36.1231 167.849 36.0097C169.345 35.0616 170.77 33.9963 172.134 32.8506C175.238 30.2455 179.31 26.7764 178.306 22.3847C177.377 18.32 172.886 18.0166 169.258 18.3796C171.396 16.5997 173.102 14.5012 173.285 11.6361C173.3 11.4045 173.088 11.1701 172.857 11.1171C164.006 9.10468 154.886 7.05913 145.727 8.12255C137.466 9.08199 129.793 12.26 122.059 14.9757C117.536 16.5637 112.947 17.9873 108.184 18.77C107.458 18.8891 107.78 19.9308 108.502 19.8117C118.898 18.1045 128.276 13.3026 138.379 10.6455C143.731 9.23796 149.157 8.66229 154.701 9.05269C160.588 9.46671 166.356 10.7579 172.082 12.0596C171.517 16.455 166.607 18.908 163.236 21.3572C161.199 22.8375 159.568 24.5559 157.902 26.3954C155.767 28.7529 153.326 30.3003 150.267 31.4148C144.289 33.5917 138.072 35.3083 131.918 36.9767C125.554 38.7018 119.134 40.2426 112.671 41.5962C105.399 43.119 98.0738 44.4055 90.7108 45.4623C90.0008 45.5644 90.3168 46.5796 91.0218 46.4794C98.1458 45.4708 105.232 44.2354 112.267 42.7815C109.233 48.6951 105.153 53.9942 100.035 58.4729C99.6729 58.7896 99.9629 59.2291 100.342 59.2981C85.2079 66.0445 70.2608 73.168 55.5078 80.6204C48.7248 84.047 41.9648 87.5246 35.2978 91.1497C34.7148 91.4664 35.2478 92.302 35.8348 91.9957C59.5408 79.6194 83.5178 67.8017 108.107 57.0597C115.004 54.0462 121.935 51.0999 128.891 48.2083C129.437 47.9814 129.024 47.0655 128.469 47.2923C124.323 48.9825 120.195 50.7123 116.076 52.461C120.664 47.2961 125.803 42.5972 131.449 38.4702C131.561 38.388 131.619 38.2849 131.651 38.1772C131.758 38.1479 131.866 38.1214 131.974 38.0921C138.435 36.3462 145.042 34.6012 151.271 32.2022C153.898 31.1898 156.177 29.8447 158.087 27.8464C160.05 25.7933 161.788 23.7477 164.139 22.0652C165.424 21.1454 166.843 20.2304 168.175 19.2313C168.245 19.4043 168.41 19.529 168.673 19.4978C170.665 19.2596 172.93 18.9969 174.821 19.805C177.195 20.8184 177.743 23.4301 176.971 25.6005C176.273 27.5638 174.66 29.1102 173.118 30.5139C171.383 32.0925 169.561 33.5974 167.583 34.8999C163.9 37.3245 159.968 38.4882 155.61 39.2831C151.791 39.9798 147.923 40.7114 144.875 43.1511C144.315 43.6001 145.13 44.3299 145.686 43.8998C149.564 40.8995 154.759 40.7218 159.429 39.6319C161.303 39.1943 163.069 38.5439 164.746 37.7367C164.925 37.835 165.157 37.8454 165.351 37.6686C167.056 36.1118 169.984 37.4115 170.51 39.3994C171.138 41.7692 169.272 44.0529 167.25 45.2052C165.173 46.3877 162.725 46.8575 160.401 47.4086C158.565 47.8444 156.728 48.2801 154.892 48.7159C153.962 48.8322 153.036 49.0704 152.236 49.3464C151.546 49.5846 151.83 50.5629 152.555 50.3909C153.677 50.1243 154.804 49.8682 155.933 49.613C156.576 49.6063 157.199 49.7236 157.745 50.0648C159.515 51.1698 158.96 53.566 157.733 54.8072C157.015 55.5331 156.104 56.0398 155.103 56.417C153.601 56.5881 152.122 56.8971 150.666 57.3055C149.325 57.4123 148.001 57.4331 146.843 57.4539C145.172 57.4832 143.512 57.504 141.858 57.5815C140.468 56.0993 137.696 56.3706 135.638 56.8007C129.447 58.0939 123.966 61.7615 120.511 66.7543C119.431 65.3242 117.448 65.5558 115.922 66.191C113.298 67.2837 110.946 69.2848 108.616 70.8417C106.104 72.5205 103.595 74.204 101.086 75.8865C100.857 75.2532 100.522 74.6634 100.035 74.2427C98.8799 73.2464 97.1998 73.6727 95.8408 73.9487C88.6378 75.413 82.0928 79.2072 77.3329 84.5035C76.1939 82.1839 73.0008 80.8369 70.0938 82.4674C68.8328 83.1745 67.7738 84.2067 66.6978 85.134C65.3818 86.2693 64.0648 87.4046 62.7488 88.5408C59.9778 90.9313 57.2098 93.3247 54.4438 95.72C53.9238 96.1709 54.7069 96.8874 55.2259 96.4413C59.1139 93.1035 62.9969 89.7592 66.8779 86.413C68.6459 84.8892 70.8488 82.3143 73.5418 82.7879C76.3498 83.2813 77.4268 86.1852 75.9558 88.3782C75.5658 88.9595 76.5499 89.4841 76.9379 88.9056C77.6799 87.7997 77.8858 86.6748 77.7148 85.6539C77.7498 85.6293 77.7858 85.6123 77.8188 85.5755C81.5158 81.3605 86.3269 78.0899 91.7699 76.1966C93.0579 75.7485 94.3749 75.377 95.7129 75.0859C96.4509 74.9252 97.2779 74.6832 98.0359 74.6993C99.2369 74.7248 99.7298 75.5311 100.06 76.5095C100.08 76.5681 100.091 76.6352 100.109 76.6957C100.056 76.8866 100.119 77.087 100.25 77.2269C100.653 79.1373 100.307 81.6252 98.1009 82.2113C97.3989 82.3975 97.7089 83.4193 98.4149 83.2416C100.952 82.6007 101.735 80.0249 101.498 77.7865C101.471 77.5303 101.43 77.2581 101.377 76.9811C105.063 74.5263 108.748 72.0724 112.43 69.6128C113.971 68.5834 115.616 67.1712 117.523 66.813C118.907 66.5521 119.563 67.0483 119.794 67.8546C119.749 67.9293 119.699 68.0011 119.655 68.0758C119.476 68.3774 119.643 68.6562 119.894 68.7791C119.855 70.0968 119.216 71.7132 118.721 72.5233C118.354 73.1245 119.339 73.651 119.711 73.0555C120.558 71.6971 121.414 69.6497 121.04 67.952C122.28 66.0501 123.81 64.3373 125.572 62.8684C125.733 62.9828 125.95 63.0253 126.177 62.9043C130.469 60.6205 135.193 59.1516 140.108 58.7329C140.486 58.7007 140.866 58.6837 141.245 58.6638C141.417 58.9616 141.53 59.3208 141.565 59.7622C141.592 60.112 141.588 60.4684 141.567 60.8285C141.376 60.9145 141.183 61.0015 140.993 61.0875C140.401 61.355 140.85 62.1245 141.425 62.0082C140.99 64.4214 139.729 66.9018 138.544 68.8424C138.177 69.4436 139.162 69.9711 139.534 69.3746C140.561 67.7261 141.381 65.9792 141.948 64.1407C142.2 63.3221 142.466 62.4175 142.615 61.5072C142.828 61.4127 143.045 61.321 143.259 61.2265C143.349 61.3295 143.484 61.3994 143.67 61.3947C150.137 61.2302 156.723 61.1329 162.842 63.4128C168.25 65.4272 172.927 68.8963 176.37 73.3135C176.786 73.8467 177.73 73.3268 177.315 72.7766C173.921 68.2791 169.224 64.7561 163.825 62.6368C157.94 60.3266 151.674 60.1668 145.408 60.3105C147.263 59.5429 149.151 58.8359 151.086 58.3075C152.208 58.1818 153.322 57.9974 154.421 57.7006C154.607 57.6505 154.795 57.5948 154.982 57.5343C156.036 57.4048 157.099 57.3206 158.18 57.349C160.835 57.417 163.498 58.022 165.763 59.3633C167.677 60.4967 169.186 62.1282 170.727 63.6624C172.129 65.0585 173.607 66.4859 175.434 67.3867C177.13 68.2233 178.933 68.3849 180.817 68.3604C182.649 68.3367 185.302 67.9208 186.802 69.178C187.659 69.8964 187.856 70.7178 187.674 71.5402C187.398 71.336 187.071 71.1867 186.689 71.1271C185.963 71.0128 185.665 72.0658 186.396 72.1802C186.752 72.2359 187.018 72.424 187.205 72.667C186.439 73.9506 185.009 75.119 183.996 75.7561C181.704 77.1995 178.871 78.3395 176.064 77.8565C173.602 77.4339 171.591 75.861 169.33 74.9517C167.555 74.238 165.66 74.0026 163.863 74.7938C161.811 75.6975 160.505 77.5237 159.042 79.0711C158.626 79.5116 158.151 79.9417 157.642 80.3217C155.985 74.4847 151.582 69.5192 145.717 67.0417C145.068 66.7676 144.511 67.675 145.166 67.9586C150.88 70.4343 155.118 75.2154 156.665 80.955C155.15 81.7793 153.44 81.9901 151.93 80.6289C150.39 79.2413 149.405 77.7553 147.144 77.3914C142.132 76.5841 138.699 80.6043 135.136 83.148C134.122 83.8712 132.923 84.5149 131.801 83.6008C131.434 83.3021 131.094 82.9807 130.707 82.7019C129.932 82.1432 129.087 81.6952 128.185 81.3511C126.319 80.6403 124.265 80.3926 122.266 80.575C118.282 80.939 114.541 82.9221 112.566 86.2712C112.206 86.8818 113.204 87.4168 113.563 86.8072C115.694 83.1953 120.09 81.3596 124.372 81.6281C126.519 81.7632 128.652 82.4769 130.313 83.787C131.052 84.3703 131.671 85.117 132.692 85.2286C133.747 85.3439 134.718 84.7786 135.532 84.2143C139.502 81.4636 145.221 75.1748 150.058 80.2811C151.406 81.7046 152.738 82.9826 154.924 82.7179C155.73 82.6206 156.472 82.3465 157.161 81.9712C157.468 82.0629 157.871 81.8691 157.909 81.5127C158.859 80.8577 159.694 80.0268 160.429 79.2082C162.167 77.2704 164.133 74.9384 167.152 75.4338C169.631 75.8402 171.671 77.5152 173.968 78.3877C178.231 80.0079 183.33 78.2374 186.519 75.2627C186.52 75.2693 186.519 75.2768 186.52 75.2835C187.616 80.9191 182.502 85.8307 177.939 88.6523C173.438 91.4361 168.196 92.8984 162.836 92.9882C164.082 92.0222 165.001 90.7801 165.225 89.1883C165.313 88.5644 164.398 88.2969 164.198 88.933C162.983 92.8058 158.808 94.2104 154.932 94.788C150.661 95.4242 146.29 95.5244 141.97 95.2313C142.96 94.2511 143.746 93.0742 144.229 91.6724C144.458 91.0079 143.373 90.7565 143.128 91.3992C142.535 92.9542 141.603 94.1651 140.457 95.116C139.894 95.0659 139.331 95.012 138.77 94.9487C138.056 94.8683 138.077 95.927 138.783 96.0074C138.904 96.0216 139.028 96.031 139.149 96.0443C135.365 98.2798 129.996 98.3781 125.698 97.8431C121.872 97.3667 118.086 96.6029 114.211 96.5963C110.413 96.5897 106.657 97.206 103.059 98.3422C102.409 98.5473 102.697 99.5172 103.356 99.3149C107.551 98.0246 111.951 97.4593 116.357 97.7325C120.716 98.0028 124.979 99.0663 129.349 99.2383C133.247 99.3924 137.699 98.5322 140.817 96.2125C145.979 96.6691 151.338 96.6218 156.392 95.6293C158.058 95.3022 159.971 94.7237 161.597 93.8059C161.682 93.9174 161.814 93.9987 162 94.0034C168.296 94.1698 174.591 92.3341 179.687 88.8262C184.153 85.7513 188.491 80.9645 187.683 75.4205C188.618 74.7957 188.84 73.6009 188.474 72.6244C188.888 71.6404 188.994 70.5827 188.492 69.5523ZM114.875 52.1586C114.642 52.4261 114.739 52.7484 114.95 52.9308C110.276 54.9225 105.618 56.9491 100.978 59.0136C106.332 54.3761 110.702 48.7443 113.685 42.48C118.892 41.3807 124.069 40.1584 129.214 38.8181C123.98 42.8118 119.165 47.2526 114.875 52.1586ZM135.845 58.2545C133.707 58.6837 131.629 59.3303 129.618 60.1271C130.839 59.4787 132.123 58.9295 133.458 58.4984C135.023 57.9927 138.133 57.0427 140.017 57.6921C138.623 57.8037 137.233 57.9757 135.845 58.2545ZM142.728 60.3058C142.734 59.9296 142.713 59.5581 142.645 59.1979C142.605 58.9852 142.55 58.7886 142.483 58.6052C143.97 58.5608 145.464 58.5684 146.954 58.5419C145.524 59.0873 144.115 59.6895 142.728 60.3058Z" fill="#4b9097"/>
<path d="M176.816 83.7824C170.912 85.0169 164.932 84.9668 159.102 83.5234C164.002 82.7596 168.783 81.5648 173.159 79.2054C173.791 78.8651 173.212 77.9539 172.577 78.2904C163.683 83.0044 153.162 82.9987 143.318 84.2947C136.943 85.1341 130.623 86.2883 124.378 87.7364C123.214 87.5729 122.046 87.4264 120.873 87.312C120.151 87.242 120.171 88.3092 120.887 88.3792C121.075 88.3971 121.262 88.4227 121.45 88.4425C118.326 89.2167 115.219 90.057 112.137 90.9805C111.978 91.0288 111.877 91.1223 111.818 91.2329C98.0848 95.6898 84.1568 99.5853 70.0718 102.92C69.3618 103.088 69.6769 104.122 70.3879 103.954C84.5439 100.61 98.5379 96.6767 112.334 92.182C112.487 92.1319 112.584 92.0383 112.644 91.9305C116.541 90.7745 120.476 89.7394 124.442 88.8197C129.277 89.5211 134.021 90.6686 138.634 92.2368C139.317 92.4693 139.593 91.4409 138.92 91.2084C135.111 89.8916 131.204 88.8934 127.232 88.1882C132.009 87.1522 136.827 86.2873 141.676 85.6058C141.674 85.8175 141.787 86.0283 142.064 86.1039C149.271 88.0663 156.749 88.8726 164.239 88.504C164.968 88.468 164.958 87.3923 164.225 87.4282C157.216 87.7752 150.231 87.07 143.456 85.3676C143.964 85.3005 144.471 85.2258 144.979 85.1634C149.023 84.6662 153.17 84.3457 157.261 83.7928C157.272 83.996 157.393 84.1917 157.657 84.2663C163.961 86.0434 170.727 86.2958 177.129 84.8089C177.837 84.6435 177.522 83.6349 176.816 83.7824Z" fill="#4b9097"/>
<path d="M60.7339 88.747C52.8689 89.092 45.3659 92.9326 40.8499 99.0409C40.4549 99.575 41.3709 100.038 41.7689 99.5343C46.2929 93.8155 53.1999 90.2169 60.7469 89.7584C61.4299 89.7168 61.4249 88.7168 60.7339 88.747Z" fill="#4b9097"/>
<path d="M65.3069 104.537C56.0819 108.543 47.4039 113.578 39.4229 119.508C38.8659 119.922 39.4319 120.831 39.9979 120.411C47.9849 114.485 56.6709 109.475 65.8819 105.439C66.5319 105.156 65.9529 104.256 65.3069 104.537Z" fill="#4b9097"/>
<path d="M36.0938 113.626C33.5018 114.518 30.8099 114.395 28.3559 113.186C27.7239 112.875 27.1769 113.782 27.8089 114.095C30.4959 115.428 33.5548 115.652 36.4038 114.64C37.0688 114.403 36.7728 113.393 36.0938 113.626Z" fill="#4b9097"/>
</svg>
