<svg width="138" height="129" viewBox="0 0 138 129" fill="none" xmlns="http://www.w3.org/2000/svg">
<path d="M134.59 46.2104C131.462 42.1259 127.016 38.6615 121.733 37.5017C116.53 36.3598 110.669 37.7815 107.197 41.6873C106.545 40.5114 105.199 39.7949 103.746 39.7467C101.494 39.672 99.663 41.2477 98.413 42.8547C95.698 46.3427 94.473 50.654 91.752 54.1402C90.168 56.1697 88.144 57.493 85.666 58.3958C83.296 59.2588 80.885 59.911 78.759 61.2684C75.312 63.4699 72.882 66.7679 70.557 69.9591C68.645 72.5832 66.705 75.2753 64.247 77.4456C67.323 73.4755 70.2221 69.4591 72.5651 65.0996C72.6681 65.0807 72.7691 65.0362 72.8501 64.9417C77.786 59.2389 86.9571 58.7682 91.2241 52.3508C91.4231 52.0511 91.237 51.6598 90.858 51.6211C90.1311 51.5464 89.4111 51.5407 88.6901 51.5662C88.8791 51.4169 89.067 51.2694 89.286 51.138C89.621 50.9367 89.645 50.3846 89.244 50.275C89.384 50.0746 89.5061 49.8591 89.6071 49.6114C89.6791 49.4347 89.608 49.1634 89.421 49.067C86.792 47.7096 83.442 48.2049 81.353 50.1171C81.364 50.0954 81.3781 50.0746 81.3891 50.0519C81.5121 49.809 81.607 49.5557 81.705 49.3042C81.809 49.2844 81.9101 49.239 81.9921 49.1416C83.4301 47.4373 84.682 45.6167 85.858 43.7461C88.175 44.7443 90.7411 45.0042 93.259 44.5165C93.571 44.456 93.6981 44.179 93.621 43.9247C94.7401 44.2102 95.9311 44.1951 96.6301 43.1874C97.0431 42.5919 97.1171 41.8896 96.832 41.3309C98.165 41.0748 99.5621 40.6078 100.12 39.3648C100.512 38.4923 100.405 37.548 99.8051 36.8948C101.295 36.0195 102.408 34.7604 103.075 33.1913C103.164 32.9824 103.053 32.782 102.89 32.6477C102.601 32.4105 102.316 32.2375 102.004 32.0967C103.023 31.003 104.825 30.416 105.077 28.8383C105.203 28.05 104.817 27.3448 104.176 26.9922C105.455 25.8097 106.735 24.6272 108.014 23.4447C108.33 23.1526 108.157 22.6932 107.733 22.6261C102.345 21.7687 96.7971 23.0543 92.423 26.0867C92.554 24.1205 92.656 22.1336 92.437 20.1901C97.154 18.8885 102.271 19.3299 106.642 21.5655C107.125 21.8131 107.67 21.3103 107.301 20.8698C103.522 16.3637 97.8221 13.1895 91.5781 13.8578C84.9041 14.5724 80.608 20.0209 78.103 25.4817C76.884 28.1388 76.5471 30.8309 77.0991 33.6337H77.098C75.238 33.4342 73.2631 33.4361 71.8441 34.5799C71.6451 32.6345 71.7761 30.7147 72.8621 28.93C73.1471 28.4621 72.5911 27.9914 72.1281 28.309C69.9511 29.8025 68.5421 32.0173 68.0681 34.4447C67.6751 33.0655 67.3811 31.6628 67.3651 30.2373C67.3391 27.9876 68.184 25.9543 69.119 23.9258C70.899 20.0644 71.9491 16.1888 71.5681 11.9427C71.2561 8.45753 70.1331 4.37494 67.1591 2.04676C65.9801 1.12418 64.225 0.255485 62.736 1.02871C61.289 1.78019 60.0501 3.34744 59.1511 4.62165C57.0651 7.57938 56.0031 11.1789 56.2351 14.7312C56.3561 16.5953 56.798 18.3128 58.166 19.7109C58.773 20.331 59.47 20.866 60.057 21.504C60.423 21.902 60.788 22.3576 60.931 22.8766C61.161 23.7074 60.7891 24.1328 60.2661 24.7378C57.8551 27.5254 58.3861 31.417 59.9981 34.4343C62.1431 38.4488 66.187 41.6457 67.088 46.2132C67.581 48.7125 66.9361 51.2382 66.3811 53.677C65.8811 55.8719 65.572 58.0687 65.346 60.3014C64.953 64.1902 64.6021 68.2558 62.3831 71.6143C62.4601 70.0678 62.507 68.5205 62.518 66.9721C62.545 63.1173 62.9101 58.5924 60.8101 55.1251C58.9091 51.9878 55.5231 49.516 52.6061 47.252C49.5021 44.8435 46.0661 42.7101 42.1791 41.6362C40.2681 41.1088 38.2721 40.8366 36.2811 40.9368C33.6091 41.071 31.081 42.0607 28.404 42.1278C28.029 42.1372 27.632 42.591 27.986 42.902C32.499 46.8673 38.6401 48.7928 44.7431 48.1633C44.5861 48.7427 44.7051 49.3685 45.1001 49.9309C45.8411 50.9858 47.244 51.2883 48.422 51.6986C51.663 52.8272 54.602 54.7801 56.726 57.3645C59.093 60.2456 59.924 63.555 59.778 67.1593C59.627 70.8883 59.2941 74.6174 59.0261 78.3408C54.5761 76.1818 49.4681 75.3604 44.2861 76.5873C38.6431 77.923 33.64 81.6861 30.918 86.5599C30.573 86.5362 30.2171 86.8207 30.4511 87.1629C30.4781 87.2026 30.5091 87.2385 30.5371 87.2773C30.2171 87.9163 29.9291 88.5685 29.6901 89.2397C29.0281 91.0999 28.796 92.9054 28.853 94.6711C28.591 95.3281 28.705 95.9775 29.017 96.5891C29.805 101.775 32.9421 106.621 35.4711 111.421C37.4281 115.137 39.5931 120.6 35.6901 123.947C31.8611 127.231 26.229 123.601 22.887 121.405C19.238 119.008 16.0721 116.165 13.0411 113.11C10.6961 110.747 8.20406 108.243 5.00206 106.933C3.96206 106.508 2.89007 106.27 1.78707 106.19C1.37507 106.077 0.952062 105.987 0.519062 105.925C0.121062 105.869 -0.0589526 106.217 0.0170474 106.506C-0.0309526 106.766 0.109042 107.076 0.430042 107.062C0.795042 107.045 1.14704 107.067 1.49904 107.091C5.17504 108.089 7.75906 111.323 10.1011 114.005C12.7591 117.049 15.3561 120.17 18.4851 122.804C23.6711 127.17 31.0911 129.913 37.8721 127.171C39.3511 126.573 40.6971 125.683 41.7631 124.541C43.022 123.192 43.6181 121.194 45.2261 120.168C46.1791 119.56 47.325 119.366 48.435 119.165C49.742 118.928 51.0511 118.703 52.3601 118.471C54.7601 118.047 57.191 117.686 59.544 117.061C67.351 114.985 72.5821 108.495 73.0991 100.881C73.6051 93.4291 69.732 86.0352 63.7201 81.272C67.5701 79.0923 70.3321 75.6336 73.0341 72.2845C76.3331 68.1943 79.9791 64.5059 84.3651 61.4357C93.0351 55.3681 103.721 51.794 114.515 51.501C120.151 51.3479 127.089 51.5757 131.261 55.6706C131.279 55.6885 131.3 55.6942 131.319 55.7093C130.766 56.7727 130.264 57.8494 130.171 59.0442C130.045 60.671 130.689 62.6882 132.36 63.4397C134.203 64.2687 135.953 63.1258 136.784 61.5784C137.958 59.3921 138.015 56.5345 137.9 54.1477C137.755 51.156 136.421 48.6019 134.59 46.2104ZM88.483 49.6663C88.318 49.9309 88.1111 50.1389 87.8211 50.3449C87.5791 50.517 87.6231 50.863 87.8211 51.0454C87.5381 51.2893 87.2721 51.5511 87.0241 51.846C86.7391 52.1854 87.1291 52.6164 87.522 52.5701C88.319 52.4765 89.1031 52.4718 89.8911 52.5077C85.9491 57.5942 78.6031 58.6945 73.7271 62.796C73.9131 62.4046 74.106 62.0171 74.283 61.6191C74.973 60.0604 75.659 58.4922 76.57 57.0336C77.344 55.7934 78.2681 54.6449 79.1511 53.4747C79.4881 53.0276 79.818 52.5739 80.135 52.1145C80.296 52.416 80.746 52.5663 80.95 52.1939C82.339 49.6691 85.736 48.5017 88.483 49.6663ZM106.628 23.422C105.389 24.5676 104.149 25.7133 102.91 26.859C102.537 27.204 102.843 27.6974 103.324 27.6719C104.406 27.6133 104.101 28.9659 103.712 29.4414C103.4 29.8233 102.965 30.1059 102.56 30.3895C101.871 30.8725 101.252 31.3348 100.822 32.0466C100.673 32.2933 100.736 32.6562 101.062 32.7508C101.411 32.851 101.701 33.0013 101.982 33.1837C101.298 34.5903 100.204 35.6915 98.726 36.4004C98.313 36.5989 98.41 37.0848 98.775 37.2606C99.978 37.8382 99.189 39.3251 98.421 39.8109C97.645 40.3015 96.6801 40.4273 95.7761 40.5624C95.2481 40.6409 95.2921 41.2733 95.6991 41.4614C96.0121 41.606 96.0161 42.1703 95.9401 42.4322C95.7921 42.9417 95.206 43.1127 94.71 43.1392C93.923 43.1827 93.1571 42.8188 92.4621 42.5068C91.9761 42.2875 91.656 42.9152 91.921 43.2517C92.043 43.4067 92.166 43.5617 92.288 43.7177C90.238 43.9786 88.246 43.7083 86.345 42.9615C86.456 42.78 86.571 42.6004 86.682 42.418C87.876 40.4433 89.095 38.4573 90.119 36.3929C90.609 35.9306 91.106 35.4807 91.603 35.0298C91.666 35.0336 91.7331 35.0251 91.8021 35.0014C94.1541 34.1951 96.525 33.7509 99.02 33.6081C99.553 33.5779 99.512 32.6922 98.973 32.713C96.993 32.7895 95.0491 33.1043 93.1651 33.6459C95.0271 32.0286 96.9491 30.4831 99.0011 29.0425C99.5021 28.6909 98.8701 28.0141 98.3701 28.3525C97.2831 29.0869 96.219 29.8668 95.176 30.6731C95.411 30.1834 95.6221 29.6834 95.7821 29.1644C95.9531 28.6115 95.078 28.3052 94.885 28.8601C94.447 30.1182 93.8631 31.2922 93.0581 32.3783C93.0541 32.3831 93.054 32.3878 93.051 32.3935C92.386 32.9606 91.733 33.5391 91.101 34.1356C91.806 32.1912 92.168 30.2061 92.293 28.1152C92.309 27.8515 92.328 27.5849 92.346 27.3202C96.363 24.2689 101.514 22.8709 106.628 23.422ZM77.8891 32.5078C77.4221 29.2646 78.62 26.2237 80.306 23.4532C81.986 20.6911 83.9981 17.8194 86.9921 16.2068C93.1851 12.871 100.277 15.3948 104.954 19.8111C100.217 18.0699 94.8771 18.0708 90.1491 19.9822C89.9071 20.0795 89.8501 20.279 89.8991 20.4614C89.8701 20.4643 89.8441 20.4595 89.8131 20.469C87.0281 21.2914 84.747 23.3322 83.432 25.7936C83.314 25.9184 83.1951 26.0432 83.0841 26.1765C82.9541 26.3315 82.9671 26.4903 83.0471 26.616C82.8191 27.1444 82.619 27.6823 82.483 28.2324C82.415 28.5084 82.365 28.7835 82.325 29.0576C81.988 27.5896 82.073 26.098 82.58 24.631C82.77 24.0799 81.8831 23.7765 81.6831 24.3266C80.9301 26.3929 80.992 28.5453 81.838 30.5767C81.919 30.7695 82.079 30.8376 82.239 30.8234C82.28 31.9369 82.48 33.0448 82.7381 34.1715C83.3861 36.9997 83.611 39.6985 82.924 42.5465C82.785 43.1222 83.704 43.4455 83.851 42.8613C84.334 40.9367 84.484 38.9725 84.27 37.0082C85.227 35.2708 86.383 33.6601 87.72 32.1628C88.123 31.711 87.3271 31.2119 86.9251 31.6467C85.8181 32.8425 84.8691 34.1375 84.0451 35.5109C83.6671 33.6563 83.069 31.8244 83.21 29.9188C83.311 28.5661 83.7241 27.3212 84.3491 26.1925C85.3471 25.217 86.5851 24.5497 88.0131 24.2529C88.6061 24.13 88.438 23.2566 87.84 23.3747C87.212 23.4985 86.6201 23.6923 86.0601 23.939C87.1801 22.8236 88.5531 21.9143 90.1001 21.2895C90.3041 21.2072 90.3651 21.0144 90.3341 20.8329C90.4091 20.8395 90.488 20.8348 90.572 20.8027C90.869 20.6883 91.168 20.5834 91.47 20.4841C91.689 22.5845 91.523 24.7463 91.377 26.8646C91.275 26.9459 91.1691 27.0225 91.0681 27.1057C90.7221 27.3921 90.965 27.8354 91.307 27.9129C91.304 27.9545 91.301 27.9961 91.299 28.0368C91.141 30.6977 90.5941 33.1695 89.4271 35.6036C88.3291 37.8921 86.965 40.0813 85.64 42.2573C85.576 42.3632 85.5061 42.4662 85.4411 42.5711C84.9971 42.3707 84.6151 43.0352 84.9721 43.3103C84.2191 44.5032 83.443 45.6829 82.601 46.8201C82.754 46.4457 82.929 46.0799 83.148 45.7321C83.467 45.2263 82.694 44.7102 82.343 45.2103C81.52 46.3796 81.328 47.7776 80.773 49.0584C80.192 50.4007 79.33 51.6135 78.447 52.7922C76.576 55.2887 74.952 57.7067 73.689 60.5358C72.317 63.6079 70.8241 66.5628 68.9491 69.3939C67.0951 72.1947 65.0321 74.8679 62.9851 77.5439C62.7501 77.8511 62.9971 78.1678 63.3001 78.2302C62.8001 78.6215 62.2851 78.9968 61.7381 79.339C61.8081 78.752 61.8631 78.164 61.9231 77.5761L61.926 77.5742C65.993 73.8376 68.0031 68.8088 70.1251 63.9548C71.2681 61.3412 72.4991 58.7824 74.0791 56.3757C75.5751 54.0967 77.2361 51.9084 78.5061 49.5037C79.7291 47.1887 80.495 44.6875 80.28 42.0815C80.007 38.7834 78.3591 35.7681 77.8891 32.5078ZM73.897 46.3522C73.6971 47.7795 73.4781 49.2012 73.0891 50.5671C73.0041 50.6465 72.9791 50.7486 73.0001 50.8516C72.6041 52.1532 72.0461 53.4038 71.1801 54.5542C71.1251 54.627 71.106 54.6998 71.101 54.7697C71.031 54.7782 70.9601 54.7867 70.897 54.7839C70.8781 54.747 70.853 54.7187 70.825 54.6922C71.102 53.5985 71.3791 52.5049 71.6521 51.4131C72.3461 48.635 72.9491 45.8124 72.9691 42.9606C73.2821 43.9172 73.46 44.8974 73.473 45.9013C73.477 46.165 73.6821 46.3172 73.897 46.3522ZM72.213 55.3388C72.958 55.0713 73.665 54.714 74.319 54.2839C73.134 56.0411 71.9761 57.8069 71.0161 59.6955C69.3781 62.916 68.1091 66.3851 66.4611 69.6359C68.0891 65.0561 69.3781 60.3647 70.5791 55.6658C71.0951 55.7471 71.848 55.4692 72.213 55.3388ZM77.0191 34.5307C77.1261 34.5411 77.2111 34.5156 77.285 34.4768C78.124 37.7522 79.6921 40.9301 79.2381 44.3766C78.8641 47.2105 77.348 49.7598 75.762 52.1438C75.631 52.1012 75.4821 52.1164 75.3441 52.2468C74.7151 52.8461 74.062 53.3925 73.293 53.832C73.105 53.9398 72.8081 54.1109 72.4751 54.2791C73.1631 53.2119 73.6231 52.0729 73.9661 50.896C74.4221 50.6143 74.88 50.3364 75.322 50.0358C75.687 49.7872 75.2701 49.1757 74.8831 49.4063C74.6671 49.5349 74.461 49.6776 74.249 49.8118C74.531 48.5839 74.7171 47.3258 74.8961 46.0648C75.0351 46.1782 75.229 46.2085 75.395 46.0402C76.097 45.3228 76.9151 44.7896 77.8601 44.3955C78.3751 44.1809 77.9951 43.453 77.4791 43.6553C76.5401 44.0221 75.7121 44.5798 75.0111 45.2689C75.2081 43.9096 75.4291 42.5569 75.8001 41.2496C75.9581 40.6919 75.0661 40.3809 74.8991 40.9434C74.5961 41.9643 74.3951 43.0192 74.2271 44.0845C74.1181 43.4946 73.96 42.9123 73.744 42.3339C73.603 41.9567 73.163 42.0389 72.968 42.3008C72.954 41.7591 72.924 41.2175 72.861 40.674C72.675 39.0755 72.265 37.4138 72.002 35.7558C73.183 34.2547 75.2491 34.3596 77.0191 34.5307ZM65.9511 63.9312C66.4461 60.2352 66.7381 56.5894 67.5631 52.9369C67.8241 51.7827 68.0531 50.6162 68.1701 49.4413C68.3681 49.6426 68.8251 49.6417 68.9331 49.3203C69.6951 47.0573 69.3901 44.6696 68.6801 42.4151C68.8881 41.6258 69.1971 40.8677 69.6281 40.1493C69.9311 39.6436 69.1411 39.1256 68.8361 39.6351C68.5741 40.0728 68.362 40.5256 68.174 40.9859C68.05 40.6692 67.9231 40.3545 67.7901 40.0463C67.1291 38.5197 66.389 37.0309 65.728 35.5223C65.758 35.406 65.743 35.2775 65.655 35.1565C65.588 35.0638 65.517 34.9731 65.45 34.8805C64.697 33.0788 64.0931 31.2336 63.9251 29.2391C63.8761 28.6587 63.876 28.0765 63.895 27.4913C64.213 26.6576 64.8921 25.857 65.3811 25.2416C66.1761 24.2425 67.092 23.3568 68.09 22.5391C68.562 22.1515 67.9311 21.4577 67.4531 21.8434C66.1631 22.886 65.0241 24.077 64.0711 25.4042C64.3221 23.5297 64.772 21.6439 65.158 19.7648C65.773 18.5009 66.817 17.4451 68.166 16.7361C68.661 16.4752 68.299 15.7512 67.778 15.9818C66.921 16.3618 66.1831 16.9053 65.5661 17.5472C66.0521 14.4155 66.047 11.3273 64.267 8.37624C63.952 7.85351 63.0521 8.25997 63.3711 8.78837C64.912 11.3415 65.0561 14.0459 64.7191 16.8023C64.4291 15.3438 63.9061 13.9268 63.1751 12.611C62.8861 12.0911 62.023 12.4825 62.304 13.0118C63.459 15.1897 63.99 17.3988 64.057 19.8271C64.058 19.8593 64.068 19.8848 64.075 19.9132C63.805 20.6325 63.641 21.3916 63.629 22.1705C63.628 22.2395 63.6411 22.3009 63.6651 22.3548C63.2991 24.078 62.975 25.7955 62.905 27.4857C62.736 28.0339 62.7171 28.603 62.9281 29.1834C62.9281 29.1862 62.9281 29.189 62.9281 29.1909C63.0121 30.3054 63.2471 31.3905 63.569 32.4559C62.946 31.7025 62.299 30.968 61.611 30.2732C61.203 29.8611 60.525 30.4094 60.908 30.848C62.189 32.315 63.451 33.7745 64.624 35.3181C65.661 37.7682 66.9211 40.1635 67.6751 42.6382C67.6251 42.8934 67.5761 43.1496 67.5471 43.4124C67.5151 43.7102 67.7551 43.8614 67.9981 43.8595C68.3181 45.2708 68.4511 46.7114 68.2401 48.2115C68.2451 47.8296 68.248 47.4477 68.213 47.0649C68.035 45.0751 67.208 43.2158 66.134 41.5162C63.923 38.0178 60.407 34.922 59.715 30.7383C59.394 28.8015 59.7511 26.8089 61.0861 25.269C62.1221 24.0752 62.3231 23.0127 61.4101 21.6383C60.4521 20.1949 58.727 19.3384 57.926 17.7892C57.021 16.0404 57.0711 13.7397 57.3241 11.851C57.8071 8.24579 59.7411 4.33807 62.8501 2.08551C64.8831 0.612794 67.465 3.39848 68.408 4.90712C69.468 6.60387 70.0481 8.55962 70.3801 10.4936C70.7881 12.8681 70.7551 15.3097 70.2951 17.6757C69.8381 20.0238 68.836 22.1402 67.856 24.3209C66.984 26.2606 66.3211 28.2334 66.3811 30.364C66.4481 32.7432 67.187 35.027 67.937 37.2805C68.127 37.8505 68.9811 37.721 68.9141 37.1084C68.6441 34.6489 69.499 32.2573 71.163 30.4368C70.422 33.0684 70.9981 35.8701 71.5141 38.5802C72.3031 42.7271 71.8231 46.6093 70.8211 50.6815C68.8871 58.5423 66.82 66.4031 63.775 73.9548C63.756 74.002 63.755 74.0436 63.752 74.0862C63.236 74.7734 62.6861 75.4407 62.0761 76.0712C62.1591 75.1449 62.2091 74.2176 62.2691 73.2903C62.3561 73.2628 62.44 73.2184 62.51 73.1343C64.681 70.4686 65.5111 67.2122 65.9511 63.9312ZM60.7331 67.8956C60.9001 64.8604 60.6271 61.9225 59.1311 59.186C57.8151 56.7794 55.8181 54.7338 53.4881 53.1703C52.3361 52.3971 51.092 51.7402 49.796 51.2089C48.793 50.7977 44.2081 49.7069 45.9371 47.9421C46.2591 47.6131 46.0411 47.0507 45.5221 47.1273C39.8411 47.9648 33.9641 46.4287 29.556 42.9653C31.092 42.7932 32.5811 42.4236 34.1101 42.142C35.9921 41.795 37.887 41.7705 39.779 42.0692C42.408 42.4841 44.863 43.4663 47.146 44.7386C45.532 44.4796 43.853 44.4456 42.254 44.334C40.596 44.2178 38.9381 44.1053 37.2811 43.9918C35.6921 43.8841 34.112 43.8359 32.628 43.23C32.067 43.0012 31.7761 43.8226 32.3111 44.0637C33.4191 44.5637 34.6011 44.7169 35.8151 44.8114C37.5181 44.9447 39.2231 45.0524 40.9271 45.1677C43.9181 45.371 47.216 45.2396 49.965 46.5129C49.973 46.5166 49.9811 46.5147 49.9891 46.5185C50.1561 46.6348 50.3281 46.7473 50.4931 46.8654C51.5601 47.6292 52.6561 48.4327 53.7301 49.2759C53.0491 49.0329 52.35 48.8335 51.642 48.6945C51 48.5688 50.35 48.497 49.694 48.5319C49.1711 48.5593 48.659 48.7664 48.154 48.8401C48.076 48.7976 47.9831 48.7711 47.8671 48.7853C47.8421 48.7881 47.817 48.7909 47.793 48.7938C47.606 48.8165 47.44 48.9961 47.43 49.1719C47.428 49.2012 47.4271 49.2314 47.4251 49.2607C47.4131 49.4772 47.585 49.7211 47.836 49.722C48.24 49.7239 48.5821 49.5727 48.9771 49.5008C49.6871 49.3732 50.4311 49.3987 51.1401 49.5141C52.4751 49.7324 53.6731 50.2741 54.9421 50.6881C55.0961 50.7382 55.242 50.6919 55.353 50.6049C56.717 51.7714 57.998 53.0115 59.07 54.3434C61.799 57.7331 61.533 62.1598 61.53 66.2093C61.526 70.5726 61.25 74.9303 60.765 79.269C60.506 79.1169 60.2451 78.9703 59.9801 78.8276C60.2371 75.1865 60.5321 71.5425 60.7331 67.8956ZM71.3501 93.9055C72.3331 97.3878 72.358 101.144 71.372 104.589C71.27 104.393 71.041 104.268 70.781 104.408C68.658 105.552 66.3801 106.218 63.9351 106.327C63.3451 106.354 63.26 107.229 63.856 107.203C66.453 107.09 68.918 106.446 71.171 105.212C70.374 107.654 69.0641 109.92 67.2011 111.787C67.0841 111.718 66.939 111.687 66.778 111.74C64.382 112.532 61.929 113.022 59.405 113.255C58.781 113.313 58.965 114.212 59.583 114.159C61.745 113.974 63.8511 113.551 65.91 112.935C65.163 113.535 64.352 114.085 63.465 114.563C59.368 116.77 54.2851 117.175 49.7251 117.981C47.9031 118.304 45.7921 118.479 44.3001 119.632C42.9161 120.702 42.348 122.397 41.24 123.681C36.364 129.334 26.96 127.612 21.478 123.88C18.125 121.597 15.408 118.611 12.792 115.616C10.751 113.281 8.78906 110.704 6.34706 108.694C7.62706 109.454 8.81105 110.398 9.90605 111.399C12.6631 113.919 15.1211 116.685 18.0441 119.048C22.4331 122.595 32.7581 130.435 37.5411 123.3C39.6381 120.171 38.8741 116.389 37.431 113.173C35.904 109.77 33.803 106.63 32.167 103.277C34.652 106.75 38.0951 109.478 42.1861 111.175C42.7511 111.41 43.0711 110.556 42.5101 110.324C38.1551 108.52 34.5191 105.469 32.1171 101.59C31.9381 101.301 31.566 101.326 31.365 101.497C30.916 100.421 30.56 99.3228 30.292 98.213C30.679 98.5978 31.076 98.9475 31.409 99.25C33.079 100.763 34.9701 101.989 37.0531 102.937C37.5991 103.186 37.8951 102.358 37.3691 102.107C35.7871 101.35 34.2901 100.433 32.9421 99.3426C32.1961 98.7396 30.5831 97.5117 29.9401 96.3131C29.7981 95.2099 29.7761 94.0993 29.8761 92.9876C30.7401 94.3308 32.0741 95.3196 33.6951 95.71C34.2751 95.8499 34.597 95.0209 34.012 94.8763C32.61 94.5303 31.4161 93.7363 30.6651 92.5547C30.4931 92.2844 30.1541 92.2929 29.9461 92.4365C30.0451 91.6803 30.1851 90.9251 30.4201 90.1717C30.6351 89.4835 30.906 88.8134 31.211 88.1583C32.893 90.1783 35.1531 91.652 37.8111 92.3638C38.4031 92.5226 38.7321 91.6728 38.1361 91.5092C35.5201 90.7899 33.2631 89.321 31.6691 87.2471C32.7961 85.159 34.3491 83.2751 36.2011 81.7163C36.6811 81.3118 37.1821 80.9431 37.6911 80.5915C40.0441 83.2023 42.9081 85.2894 46.1871 86.7716C46.7441 87.023 47.0601 86.1704 46.5111 85.9199C43.4161 84.5077 40.7031 82.5255 38.4641 80.0725C43.7801 76.7537 50.3991 76.1525 56.4851 78.3465C57.8691 78.8456 59.19 79.4751 60.444 80.2058C60.417 80.255 60.4031 80.3069 60.3971 80.3608C60.6341 80.4969 60.859 80.6482 61.083 80.8023C61.141 80.7701 61.197 80.7361 61.257 80.7058C61.486 80.8514 61.7201 80.9913 61.944 81.1435C61.903 81.1624 61.864 81.1851 61.822 81.204C61.789 81.2182 61.7711 81.2409 61.7451 81.2588C62.0301 81.4488 62.306 81.6492 62.575 81.8591C62.648 81.8194 62.723 81.7815 62.799 81.7447C66.91 84.8064 69.9911 89.0913 71.3501 93.9055ZM75.03 68.3938C71.215 72.6352 68.1301 77.8408 62.9101 80.6642C62.6801 80.496 62.4431 80.3362 62.2071 80.1755C68.497 76.3822 71.3011 69.2852 76.4281 64.3537C77.8761 62.9604 79.518 61.7609 81.395 60.9291C82.81 60.3023 84.3141 59.8722 85.7791 59.358C81.7891 61.8913 78.154 64.9218 75.03 68.3938ZM136.519 59.4667C136.087 61.2155 134.163 64.2394 132.088 62.0823C130.439 60.3685 131.309 57.9449 132.225 56.1422C133.364 53.8991 134.358 51.7997 133.793 49.2598C133.243 46.7889 131.64 44.6412 129.818 42.8519C129.375 42.417 128.618 43.0296 129.064 43.4682C131.23 45.5959 133.264 48.4176 132.955 51.5171C132.836 52.7109 132.32 53.7866 131.765 54.8491C128.292 51.4509 122.9 50.7694 118.134 50.5841C112.726 50.3743 107.285 50.9811 102.065 52.3262C98.1941 53.3235 94.4391 54.7215 90.8891 56.4816C93.0031 54.541 94.4081 51.9746 95.7031 49.4555C96.7941 47.3324 97.832 45.1214 99.356 43.2347C100.254 42.1221 101.456 41.0067 102.97 40.7439C104.479 40.4821 106.226 41.209 106.557 42.7148C106.646 43.1175 107.203 43.2281 107.457 42.8953C110.303 39.1682 115.373 37.5981 120.096 38.1747C124.928 38.7645 129.177 41.5833 132.302 44.9967C134.093 46.9533 135.82 49.222 136.536 51.7524C137.207 54.126 137.11 57.0667 136.519 59.4667Z" fill="#4b9097"/>
<path d="M40.5571 98.8548C38.8771 98.2565 37.2801 97.5116 35.7701 96.5947C35.2821 96.2988 34.7711 96.9974 35.2601 97.298C36.8271 98.264 38.4891 99.0675 40.2451 99.6782C40.8041 99.8738 41.1141 99.0533 40.5571 98.8548Z" fill="#4b9097"/>
<path d="M37.4151 86.7887C36.2391 86.576 35.2901 85.8094 34.8511 84.7649C34.6261 84.2289 33.7731 84.6222 33.9981 85.1581C34.5601 86.5013 35.8311 87.44 37.3381 87.6461C37.9261 87.7264 37.9791 86.8908 37.4151 86.7887Z" fill="#4b9097"/>
<path d="M42.6551 89.5515C41.6851 89.4881 40.7541 89.1866 40.0531 88.5315C39.6371 88.144 38.941 88.7045 39.361 89.0968C40.263 89.9381 41.42 90.405 42.693 90.2897C43.141 90.2491 43.0911 89.5798 42.6551 89.5515Z" fill="#4b9097"/>
<path d="M47.4161 81.912C46.3261 81.4649 45.3211 80.8656 44.4431 80.1065C44.0031 79.7266 43.2881 80.3013 43.7341 80.686C44.7341 81.55 45.8511 82.2457 47.1011 82.7429C47.6571 82.9641 47.9641 82.137 47.4161 81.912Z" fill="#4b9097"/>
<path d="M53.9621 82.8165C52.7831 82.5197 51.7021 81.9875 50.8261 81.1783C50.4071 80.7908 49.7081 81.3542 50.1311 81.7465C51.1571 82.6974 52.3711 83.3326 53.7781 83.6105C54.2561 83.705 54.4351 82.9356 53.9621 82.8165Z" fill="#4b9097"/>
<path d="M69.882 97.5154C68.694 97.7734 67.5581 97.9549 66.3341 97.8604C65.7441 97.815 65.6671 98.6799 66.2561 98.7253C67.5701 98.8274 68.912 98.7291 70.14 98.2555C70.574 98.0892 70.338 97.4171 69.882 97.5154Z" fill="#4b9097"/>
<path d="M130.264 47.9375C125.995 45.2454 120.684 45.4562 115.831 46.3258C116.878 45.5592 117.858 44.7103 118.744 43.7812C119.142 43.3634 118.558 42.6828 118.123 43.1025C117.263 43.9324 116.384 44.7359 115.423 45.4618C114.972 45.8021 114.509 46.1301 114.032 46.4373C113.893 46.5271 113.712 46.6576 113.512 46.7928C112.422 47.0272 111.339 47.2938 110.262 47.5745C111.311 46.6604 112.286 45.6745 113.159 44.6016C113.536 44.1385 112.755 43.6441 112.373 44.0921C111.134 45.5469 109.777 46.8731 108.249 48.0575C108.212 48.0868 108.192 48.119 108.168 48.1511C104.071 49.3402 100.079 50.8517 96.2451 52.6685C95.6931 52.9304 96.11 53.7471 96.666 53.4852C101.421 51.2487 106.405 49.4726 111.541 48.2069C111.628 48.3023 111.752 48.3695 111.914 48.3619C114.735 48.2229 117.51 48.584 120.198 49.3998C120.76 49.5709 121.07 48.7599 120.509 48.5831C118.534 47.963 116.51 47.6303 114.457 47.5395C114.472 47.5367 114.487 47.5329 114.501 47.5301C119.507 46.5035 125.211 45.8683 129.708 48.7041C130.234 49.0368 130.792 48.2702 130.264 47.9375Z" fill="#4b9097"/>
</svg>
