<svg width="250" height="175" viewBox="0 0 250 175" fill="none" xmlns="http://www.w3.org/2000/svg">
<path d="M133.925 96.4932C124.189 101.923 114.161 106.866 103.864 111.274C103.23 111.546 103.73 112.491 104.362 112.22C114.66 107.814 124.698 102.887 134.421 97.4346C135.014 97.1033 134.523 96.1602 133.925 96.4932Z" fill="#4b9097"/>
<path d="M97.5874 117.196C92.5483 120.149 87.6024 123.245 82.6263 126.291C82.0698 126.632 82.5432 127.545 83.1074 127.202C88.0937 124.167 93.1149 121.178 98.0378 118.051C98.5485 117.726 98.1296 116.879 97.5874 117.196Z" fill="#4b9097"/>
<path d="M99.9665 100.096C91.0324 105.176 81.8363 109.832 72.3691 113.96C67.637 116.023 62.8415 117.959 57.9922 119.766C53.2356 121.537 48.302 122.939 43.5977 124.82C39.0983 126.619 34.7592 129.799 34.331 134.859C34.2763 135.503 35.3172 135.572 35.3732 134.929C35.8207 129.786 40.6874 126.979 45.1941 125.337C49.7576 123.675 54.4088 122.236 58.9584 120.534C68.1051 117.112 77.054 113.225 85.7566 108.895C90.7411 106.415 95.639 103.784 100.445 101.004C101.009 100.677 100.541 99.7699 99.9665 100.096Z" fill="#4b9097"/>
<path d="M136.284 72.2089C126.656 81.7682 116.154 90.4811 104.928 98.285C104.399 98.6534 105.089 99.3965 105.615 99.0359C116.886 91.2865 127.372 82.5497 136.978 72.9691C137.433 72.5161 136.743 71.7532 136.284 72.2089Z" fill="#4b9097"/>
<path d="M89.0834 111.215C79.5039 116.109 69.7729 120.718 59.7767 124.808C55.1963 126.683 50.3673 128.19 45.9504 130.392C42.3847 132.17 39.028 134.721 38.1948 138.723C38.0613 139.366 39.0812 139.716 39.217 139.067C40.1388 134.656 44.2473 132.239 48.1987 130.52C52.6301 128.591 57.2433 127.018 61.7148 125.168C71.2073 121.239 80.5299 116.921 89.5324 112.068C90.0757 111.776 89.6391 110.931 89.0834 111.215Z" fill="#4b9097"/>
<path d="M93.1399 109.289C80.3065 121.773 66.034 132.823 50.4967 142.101C49.9218 142.444 50.4092 143.379 50.9889 143.031C66.593 133.722 81.0348 122.676 93.8406 110.057C94.3032 109.602 93.6084 108.834 93.1399 109.289Z" fill="#4b9097"/>
<path d="M133.524 110.216C115.006 118.919 96.9815 128.66 79.3331 138.851C74.3495 141.729 69.4043 144.667 64.4889 147.648C63.9283 147.988 64.4032 148.905 64.9702 148.562C82.4231 138.032 100.27 128.096 118.498 118.826C123.64 116.211 128.822 113.667 133.989 111.099C134.565 110.815 134.107 109.942 133.524 110.216Z" fill="#4b9097"/>
<path d="M154.852 49.957C151.955 56.553 148.262 62.7641 143.869 68.5239C143.472 69.0443 144.357 69.6156 144.754 69.1003C149.225 63.2835 152.934 56.9731 155.862 50.2933C156.122 49.697 155.111 49.364 154.852 49.957Z" fill="#4b9097"/>
<path d="M145.651 55.9279C144.005 60.1192 141.717 63.9911 138.824 67.4854C138.411 67.9854 139.291 68.552 139.702 68.0573C142.657 64.4986 144.988 60.5392 146.65 56.2602C146.882 55.6601 145.885 55.331 145.651 55.9279Z" fill="#4b9097"/>
<path d="M216.75 62.6722C216.174 61.7167 215.492 60.8345 214.728 60.0164C216.933 60.0726 219.486 59.581 219.695 57.1244C219.812 55.745 218.76 54.7308 217.786 53.8333C216.603 52.7443 215.349 51.7318 214.06 50.7619C217.044 50.6908 220.726 49.7935 220.952 46.4176C221.012 45.5282 220.656 44.7042 220.079 44.0876C220.319 44.005 220.559 43.9276 220.794 43.8206C220.993 43.7313 221.16 43.4601 221.082 43.2402C220.617 41.9368 219.721 40.8888 218.509 40.2736C219.463 39.8153 220.297 39.2062 221.037 38.3977C221.244 38.1718 221.086 37.8207 220.876 37.6575C219.983 36.9634 219.003 36.4892 217.96 36.1837C219.58 35.5883 221.139 34.8715 222.633 34.0088C223.058 33.7628 222.999 33.2274 222.547 33.0273C218.611 31.2746 214.33 31.4914 210.173 31.8912C210.449 29.9596 208.639 27.9907 206.57 27.8159C204.679 27.656 203.24 28.787 202.402 30.2674C202.238 29.6311 201.985 29.022 201.555 28.4896C200.731 27.4665 199.302 26.7732 197.989 27.1943C196.608 27.6376 195.869 29.1256 195.331 30.3141C194.683 31.743 194.357 33.2663 194.288 34.8218C193.918 34.2556 193.63 33.5995 193.141 33.166C193.195 33.0658 193.261 32.9705 193.308 32.8675C193.876 31.6348 193.71 29.7353 191.823 29.8585C191.748 29.8638 191.679 29.8879 191.606 29.8976C191.658 28.6745 190.647 27.711 189.425 27.4343C187.951 27.1005 186.592 27.8577 185.453 28.6327C183.981 29.6338 182.684 30.8348 181.509 32.1417C181.191 31.6121 180.872 31.0828 180.553 30.5532C180.381 30.2668 179.955 30.1317 179.688 30.3774C178.361 31.5968 177.489 33.0487 177.05 34.7132C176.539 33.6503 176.663 32.1988 175.93 31.2214C175.351 30.4498 174.392 29.8729 173.416 30.2755C172.672 30.5828 172.209 31.3598 171.909 32.1673C171.835 32.0362 171.766 31.903 171.684 31.7758C170.726 30.2827 169.225 29.8159 167.904 31.111C167.898 31.1164 167.894 31.1242 167.888 31.1297C166.887 29.6804 166.139 28.0793 165.781 26.3799C165.488 24.9891 165.724 23.3282 167.596 23.9666C168.468 24.2645 169.234 24.8861 169.87 25.5166C170.182 25.8263 170.863 25.7038 170.839 25.2078C170.741 23.1251 171.49 20.6749 173.626 19.7748C175.528 18.9739 178.162 19.9484 178.605 22.0283C178.676 22.36 179.092 22.5633 179.403 22.4069C180.459 21.878 181.166 21.0674 181.917 20.2083C182.382 19.6754 182.852 19.1355 183.481 18.774C184.272 18.3194 186.598 18.2389 186.039 19.8818C185.887 20.3315 186.395 20.7183 186.824 20.5386C188.305 19.9204 190.714 19.0779 191.788 20.7042C191.532 20.7721 191.277 20.8387 191.022 20.9065C190.946 20.907 190.874 20.8953 190.798 20.8979C190.212 20.9195 189.96 21.7306 190.606 21.9328C191.017 22.0619 191.447 22.0896 191.847 22.0061C192.558 22.0884 193.217 22.297 193.865 22.6269C191.606 24.3417 189.044 25.4703 186.181 26.0562C185.499 26.1958 185.729 27.1998 186.419 27.0824C189.715 26.5215 192.734 25.0627 195.234 22.9855C195.504 22.7619 195.465 22.3382 195.166 22.1408C194.472 21.6814 193.746 21.3548 192.986 21.1478C193.159 20.6425 192.81 20.1152 192.361 19.672C190.906 18.2374 188.872 18.6228 187.155 19.2472C186.936 18.1318 185.757 17.2555 184.497 17.3201C182.098 17.4424 181.144 19.8628 179.438 21.0926C178.557 19.0992 176.051 18.0342 173.873 18.5564C171.309 19.1715 169.983 21.6317 169.758 24.031C168.144 22.8451 165.717 21.8491 164.735 23.9811C164.701 24.054 164.685 24.1328 164.658 24.2081C164.643 24.1887 164.633 24.1697 164.617 24.1507C163.736 23.0783 161.995 22.7886 160.906 23.4745C160.52 22.0525 159.648 20.6372 157.905 21.1249C156.269 21.582 155.947 22.9884 155.87 24.4617C155.269 23.6352 154.406 23.2039 153.313 24.0127C152.338 24.7347 151.955 26.3648 151.753 27.4572C151.606 28.2516 151.568 29.0468 151.615 29.8394C151.58 29.8221 151.55 29.8001 151.515 29.7845C150.72 29.4357 149.715 29.5375 149.168 30.2017C148.373 31.17 148.626 33.0646 148.54 34.2258C148.479 35.0442 148.418 35.8615 148.357 36.6799C148.324 36.6018 148.3 36.5173 148.264 36.4415C148.017 35.935 147.681 35.4475 147.048 35.3735C145.513 35.1934 144.822 37.5926 144.443 38.5784C144.351 38.8173 144.279 39.0636 144.196 39.3063C144.047 39.1018 143.865 38.8999 143.65 38.7002C142.744 37.8616 141.34 37.4444 140.268 38.1654C138.837 39.1269 139.348 40.9863 138.649 42.2964C138.104 41.7334 137.448 41.347 136.611 41.142C136.296 41.065 136.043 41.1868 135.915 41.4675C135.08 43.2845 134.705 45.1969 134.769 47.1562C134.362 46.8958 133.881 46.7231 133.327 46.6549C133.088 46.6251 132.846 46.7977 132.777 47.0086C132.296 48.456 132.025 49.9296 131.933 51.4312C131.021 50.11 129.692 49.0954 128.022 49.985C126.898 50.5832 126.852 51.8361 126.917 52.9488C126.982 54.0564 127.164 55.147 127.434 56.2234C126.267 55.3903 124.784 54.69 123.849 55.4488C122.649 56.4225 123.545 59.0919 124.011 60.2606C125.502 64.0066 129.156 66.802 133.292 67.2359C133.302 67.2372 133.31 67.2332 133.32 67.2337C120.412 80.5165 105.285 91.7689 88.6102 100.463C80.3012 104.794 71.6221 108.496 62.6689 111.503C53.9511 114.43 44.608 116.745 37.3185 122.372C31.8385 126.602 27.7402 133.221 27.9046 140.082C27.4468 141.227 27.4052 142.546 27.6799 143.762C28.2742 146.386 29.925 148.92 31.3101 151.24C32.7323 153.622 34.34 155.967 36.3862 157.912C36.4464 157.969 36.5215 158.031 36.5866 158.09C36.1896 157.886 35.7913 157.683 35.3966 157.479C34.7869 157.165 34.1945 158.006 34.8093 158.325C36.3501 159.125 37.9194 159.921 39.5107 160.679C39.5148 160.698 39.5185 160.717 39.5225 160.736C39.6151 161.128 40.0341 161.202 40.3113 161.056C43.6962 162.631 47.1864 163.99 50.7476 164.765C50.6513 165.124 51.0086 165.57 51.4303 165.339C51.6249 165.232 51.8187 165.123 52.0142 165.015C55.8538 165.691 59.7716 165.64 63.7292 164.381C72.371 161.632 78.7212 154.912 85.3736 149.352C101.227 136.102 119.849 126.435 137.695 115.892C143.029 112.74 148.307 109.49 153.439 106.051C153.445 106.322 153.657 106.589 154.021 106.517C161.553 105.004 169.164 104.716 176.798 106.401C177.832 106.629 179.053 107.022 180.058 106.562C180.855 106.197 181.212 105.359 180.917 104.544C180.541 103.504 179.444 102.882 178.481 102.414C177.227 101.806 175.93 101.328 174.6 100.948C174.903 100.88 175.206 100.812 175.507 100.745C176.28 100.571 177.204 100.501 177.907 100.138C178.862 99.647 179.081 98.6819 178.7 97.7252C177.679 95.1621 174.06 94.5968 171.643 94.9179C168.959 95.275 166.719 96.5847 164.557 98.0349C165.107 97.6052 165.663 97.1835 166.208 96.7475C166.747 96.3159 166.007 95.5104 165.47 95.9412C162.694 98.1667 159.841 100.288 156.932 102.337C156.062 102.595 155.154 102.767 154.182 102.797C153.499 102.816 153.435 103.836 154.139 103.832C154.372 103.83 154.6 103.813 154.827 103.798C141.909 112.659 127.967 120.139 114.452 128.153C105.979 133.177 97.6363 138.436 89.8452 144.384C86.0789 147.26 82.5339 150.359 78.9548 153.44C75.5752 156.347 72.0858 159.222 68.0942 161.352C63.5933 163.753 58.6234 164.873 53.4286 164.234C73.9656 152.922 94.0438 140.862 113.667 128.182C119.436 124.455 125.16 120.669 130.844 116.826C131.404 116.448 130.678 115.666 130.123 116.04C110.132 129.503 89.6633 142.317 68.7281 154.426C63.1321 157.663 57.5004 160.845 51.8486 163.992C49.588 163.573 47.388 162.909 45.2389 162.085C46.5622 162.036 47.7369 161.508 48.5349 160.213C49.8049 158.156 49.1781 155.373 48.3038 153.245C47.1925 150.542 45.595 148.011 43.6485 145.767C41.4325 142.841 38.5394 140.296 35.4197 138.539C33.5185 137.468 31.1109 136.747 29.2748 138.212C29.1831 138.285 29.1102 138.371 29.0263 138.45C29.5135 132.551 33.1909 126.986 37.898 123.302C45.0588 117.699 54.3511 115.411 62.9606 112.533C80.2718 106.745 96.5601 98.3645 111.138 87.8468C119.415 81.8751 127.121 75.2058 134.171 67.9373C134.538 67.5585 134.18 66.994 133.779 66.9816C133.908 66.6951 133.77 66.2693 133.337 66.2211C130.45 65.9045 127.864 64.3066 126.195 62.0072C125.4 60.9099 124.833 59.6719 124.576 58.3663C124.42 57.5745 124.118 56.3898 125.263 56.3462C126.124 56.3139 127.529 57.5929 128.04 58.1073C128.392 58.4623 129.171 58.2053 128.986 57.6659C128.437 56.0618 127.952 54.269 128 52.582C128.02 51.8745 128.033 51.1924 128.79 50.9137C129.282 50.7321 129.764 50.7997 130.226 51.0646C131.169 51.6058 131.592 52.8127 131.935 53.7369C132.125 54.2463 133.069 54.3334 133.028 53.6718C132.901 51.6651 133.131 49.7263 133.705 47.8226C134.292 48.0113 134.751 48.4198 134.961 49.0284C135.183 49.6739 136.161 49.5156 136.043 48.8259C135.653 46.565 135.915 44.3824 136.77 42.3024C137.353 42.522 137.821 42.8614 138.201 43.4095C138.374 43.6612 138.804 43.8623 139.063 43.5845C139.957 42.6208 139.937 41.5306 140.228 40.3205C140.461 39.3579 141.094 38.5346 142.22 39.0167C142.947 39.3276 143.428 39.9749 143.574 40.704C143.285 40.4366 142.698 40.5187 142.713 40.9874C142.736 41.653 142.918 42.3033 143.2 42.9203C142.721 43.9649 141.958 44.9326 141.425 45.8865C140.765 47.0654 140.393 48.2321 140.545 49.5917C140.57 49.8241 140.837 50.0001 141.062 50.0187L142.755 50.1604C142.978 51.8835 142.699 53.5324 141.905 55.0858C141.829 55.236 141.833 55.3861 141.884 55.5183C138.939 57.4916 135.953 59.5724 135.12 63.0972C134.981 63.685 135.915 64.0086 136.067 63.4125C137.265 58.7053 142.574 56.6738 146.109 53.8273C149.693 50.9414 152.473 47.3095 154.441 43.2345C154.798 42.4952 155.1 41.2788 156.388 41.5868C156.985 41.7296 157.659 42.3593 158.061 42.7767C158.869 43.6168 159.413 44.7025 159.569 45.8247C159.937 48.4768 158.037 50.9304 156.781 53.091C153.925 58.0091 151.069 62.9273 148.212 67.8458C147.871 68.4329 148.797 69.0416 149.14 68.4508C151.774 63.9172 154.407 59.3831 157.04 54.8487C158.949 51.5623 162.025 47.7112 160.043 43.735C159.362 42.3692 157.921 40.7604 156.293 40.4606C154.601 40.1492 153.955 41.6867 153.389 42.8823C151.374 47.135 148.299 50.8797 144.462 53.7361C144.096 54.0082 143.716 54.2743 143.332 54.539C143.807 53.3245 143.998 52.0552 143.926 50.7436C143.946 50.808 143.957 50.8734 143.976 50.9378C144.166 51.5584 145.17 51.3862 145.003 50.7458C144.473 48.712 144.216 46.6515 144.307 44.5964C144.797 45.1467 145.363 45.631 145.971 46.0083C146.558 46.3738 147.145 45.5304 146.559 45.1628C145.589 44.5557 144.942 43.8036 144.476 42.9327C144.493 42.8132 144.493 42.6935 144.513 42.5751C144.673 42.1287 144.777 41.6845 144.797 41.2464C145.056 40.1772 145.387 39.1235 145.836 38.1191C145.932 37.9021 146.197 37.0406 146.429 36.9307C146.97 36.6746 147.269 37.1827 147.477 37.6329C147.82 38.3725 147.922 39.3074 148.13 40.0893C148.286 40.6785 149.183 40.6327 149.229 40.0248C149.364 38.2032 149.5 36.3808 149.637 34.5589C149.699 33.7213 149.642 32.7706 149.831 31.9564C150.396 29.5179 151.828 31.1998 152.112 32.4856C152.32 33.1378 153.348 32.9679 153.198 32.283C153.167 32.1459 153.132 32.0075 153.092 31.8696C152.669 30.3421 152.564 28.7666 152.938 27.2327C153.009 26.9434 153.093 26.6553 153.193 26.3747C153.456 25.6363 153.495 25.3643 154.311 25.1399C154.85 24.9917 155.034 25.0173 155.187 25.2372C155.162 25.2787 155.135 25.3179 155.12 25.3736C154.224 28.8271 153.402 32.3122 152.323 35.6849C151.995 35.7727 151.909 36.1705 152.073 36.4506C150.616 40.8125 148.678 44.9649 145.505 48.5832C145.067 49.083 145.97 49.6633 146.404 49.1692C149.559 45.5811 151.697 41.3001 153.257 36.7968C156.589 37.0961 159.885 36.6932 162.992 35.5679C163.647 35.3306 163.139 34.4027 162.492 34.6257C159.632 35.6137 156.645 35.9979 153.603 35.7697C154.502 33.0032 155.199 30.1664 155.784 27.3641C155.966 27.8787 156.747 27.8658 156.853 27.2603C157.075 25.9848 156.657 24.4946 157.147 23.2807C157.431 22.5781 158.233 21.7701 159.119 22.2957C159.838 22.7225 159.97 23.9962 160.036 24.7129C160.087 25.2647 160.925 25.5474 161.119 24.9255C161.403 24.0109 162.682 23.9558 163.422 24.4756C164.367 25.1387 164.36 26.4749 164.196 27.4347C163.883 29.2644 162.887 30.8458 162.917 32.7518C162.923 33.1296 163.344 33.469 163.725 33.267C165.347 32.407 165.484 34.8094 165.179 35.6569C164.896 36.4454 164.412 37.1869 163.886 37.8441C162.792 39.2141 161.333 40.1906 159.689 40.8749C159.052 41.1399 159.55 42.0519 160.185 41.8094C162.066 41.0912 163.834 39.8045 165.049 38.1772C164.871 39.425 164.836 40.6844 164.921 41.9462C164.864 42.0144 164.818 42.0939 164.804 42.199C164.5 44.4118 164.359 46.6341 164.348 48.8708C162.77 50.3143 161.193 51.7577 159.616 53.2029C159.133 53.6459 159.836 54.4176 160.322 53.9745C161.797 52.6286 163.271 51.2814 164.745 49.935C165.038 50.013 165.382 49.887 165.384 49.5134C165.384 49.4572 165.39 49.402 165.39 49.3458C166.977 47.8968 168.563 46.4481 170.15 44.9991C173.01 45.5741 175.893 45.9638 178.803 46.0954C179.495 46.1267 179.543 45.1062 178.846 45.0646C176.244 44.9111 173.665 44.6077 171.101 44.1302C175.238 40.3528 179.375 36.5772 183.509 32.7974C183.868 32.4694 183.595 31.9748 183.228 31.8819C184.413 30.6617 185.774 29.5102 187.267 28.808C188.681 28.1424 190.876 28.4445 190.322 30.2994C188.947 31.0261 187.892 32.5082 187.375 33.779C187.168 34.2877 187.877 34.6728 188.275 34.3604C189.271 33.5806 190.576 32.4584 191.222 31.2036C191.823 31.0104 192.525 30.9992 192.499 31.7973C192.488 32.119 192.327 32.4362 192.147 32.7268C192.121 32.7231 192.102 32.7115 192.075 32.7091C190.782 32.5899 190.414 33.8819 190.35 34.8714C189.472 35.6588 188.478 36.3405 187.535 37.0358C185.188 38.768 182.875 41.0096 182.955 44.009C182.2 43.96 181.444 43.9113 180.689 43.8623C180.228 43.8326 179.913 44.3964 180.254 44.7367C181.983 46.4642 182.472 49.2007 181.096 51.2031C179.719 53.2068 176.923 53.8207 174.612 52.936C174.519 52.9001 174.435 52.8934 174.356 52.9013C174.067 52.482 173.561 52.1714 172.815 52.0867C171.606 51.9486 170.275 52.3058 169.109 52.5239C167.675 52.7932 166.255 53.1213 164.854 53.5099C162.003 54.3013 159.25 55.3384 156.599 56.5937C155.988 56.883 156.476 57.8031 157.089 57.5169C160.756 55.8077 164.619 54.5058 168.633 53.6974C169.584 53.5058 170.545 53.3238 171.511 53.2034C172.331 53.1004 172.618 52.9685 173.175 53.5956C173.782 54.2806 173.371 54.5721 172.744 55.1085C171.174 56.4526 169.092 57.3843 167.099 58.0146C166.621 58.1658 166.473 58.8537 167.051 59.0369C169.215 59.7233 168.446 62.663 166.215 62.0671C165.976 62.003 165.722 62.065 165.582 62.2652C164.994 63.1047 165.518 63.819 166.037 64.5891C166.654 65.5089 166.609 66.5374 165.44 66.9865C164.756 67.2482 163.982 67.1524 163.242 66.97C162.898 66.771 162.489 66.6418 161.999 66.6283C161.395 66.6119 161.187 67.4698 161.808 67.6574C162.07 67.7368 162.341 67.8116 162.617 67.8816C163.528 68.3975 163.68 69.8743 163.119 70.6973C163.001 70.8704 162.855 71.0125 162.698 71.139C162.623 71.1631 162.548 71.1795 162.473 71.2161C162.316 71.2928 162.181 71.391 162.057 71.5008C161.155 71.8611 160.008 71.8273 159.108 71.6875C156.439 71.2734 154.073 69.8722 151.314 70.3032C150.615 70.4125 150.855 71.4514 151.553 71.342C154.688 70.8532 158.191 73.3254 161.332 72.8196C161.121 73.7057 161.183 74.7885 161.328 75.7861C160.803 75.3102 160.194 74.9478 159.5 74.8687C159.235 74.8383 159.005 74.8631 158.792 74.9129C158.799 74.8658 158.811 74.8197 158.816 74.773C158.854 74.4545 158.473 74.1303 158.148 74.2198C157.814 74.3123 157.478 74.4051 157.143 74.4975C156.769 73.8495 156.475 73.1861 156.303 72.4512C156.215 72.078 155.696 71.874 155.399 72.1496C154.245 73.2169 153.097 74.2897 151.939 75.3514C151.238 75.9944 150.977 75.9647 150.093 75.4843C149.81 75.3308 149.534 75.235 149.203 75.2635C147.483 75.4125 146.516 77.8867 146.016 79.5508C145.729 79.294 145.441 79.0375 145.154 78.7806C144.834 78.4946 144.387 78.5606 144.22 78.9475C143.634 80.3013 143.213 81.7584 142.881 83.2734C142.801 83.2838 142.72 83.3069 142.642 83.3569C132.514 89.9246 122.148 96.0343 111.287 101.419C116.424 96.9814 121.566 92.5504 126.713 88.1259C133.269 82.4903 139.826 76.8556 146.383 71.2208C146.907 70.7705 146.166 69.9605 145.642 70.4114C132.904 81.3594 120.146 92.2876 107.444 103.276C106.954 103.509 106.469 103.75 105.977 103.98C105.647 104.134 105.643 104.469 105.8 104.705C95.8555 113.316 85.9435 121.961 76.1245 130.703C69.6264 136.488 63.1711 142.317 56.7742 148.205C56.2818 148.658 56.9996 149.445 57.4955 148.992C62.6173 144.304 67.7752 139.652 72.9531 135.022C74.7719 136.887 77.823 135.64 79.83 134.773C83.22 133.307 86.5918 131.804 89.9466 130.269C96.5041 127.268 102.997 124.145 109.42 120.9C119.073 116.024 128.565 110.87 137.886 105.453C137.633 105.93 137.38 106.408 137.124 106.884C136.81 107.47 137.721 108.071 138.038 107.48C138.584 106.464 139.115 105.437 139.651 104.411C142.285 102.867 144.912 101.314 147.518 99.7276C153.454 96.1142 159.3 92.3714 165.081 88.5415C165.231 88.801 165.601 88.9748 165.918 88.749C174.776 82.4045 183.797 76.2719 192.931 70.2923C193.453 69.9511 192.784 69.2395 192.268 69.5688C188.243 72.1469 184.259 74.7828 180.303 77.4561C181.19 76.8449 182.068 76.2218 182.924 75.5817C184.898 74.108 186.792 72.5387 188.598 70.8826C190.177 69.4345 191.83 67.2378 194.207 67.0782C195.88 66.9653 197.442 67.7959 198.29 69.0812C197.713 69.5916 197.079 70.0539 196.367 70.4329C195.785 70.7428 196.261 71.6506 196.849 71.3416C197.539 70.9788 198.165 70.5342 198.751 70.0525C198.877 70.4476 198.963 70.8579 198.951 71.2945C198.877 74.0139 196.621 74.9299 194.311 75.7041C193.634 75.9312 193.002 76.2191 192.389 76.5314C192.747 76.1458 192.101 75.5075 191.585 75.839C175.582 86.1001 159.632 96.436 143.661 106.743C143.105 107.102 143.817 107.868 144.367 107.515C159.305 97.8939 174.259 88.2945 189.174 78.639C187.687 79.8427 186.336 81.2211 184.982 82.5878C183.441 84.1423 181.863 85.6981 179.998 86.9023C179.034 87.5249 177.977 88.0001 176.979 88.544C176.792 88.579 176.605 88.6149 176.418 88.6507C176.133 88.7044 176.013 88.9106 176.009 89.127C175.382 89.5355 174.798 90.0011 174.308 90.5992C173.899 91.0983 174.77 91.6555 175.177 91.1671C175.71 90.5291 176.383 90.0377 177.11 89.6039C178.689 89.3043 180.268 89.0056 181.847 88.7061C183.213 88.4469 184.723 88.2938 185.963 87.6592C187.02 87.1184 187.564 86.2733 188.014 85.2342C188.688 83.6751 189.7 82.4655 191.496 82.068C193.126 81.7068 194.727 82.2681 196.007 83.2976C196.663 83.8252 197.231 84.4628 197.748 85.1139C198.16 85.6314 199.114 86.5662 199.216 87.1883C199.42 88.4265 198.126 88.075 197.37 88.1053C196.745 88.1311 196.14 88.2417 195.555 88.4397C194.385 88.8351 193.451 89.5479 192.691 90.4684C192.559 90.629 192.57 90.9656 192.743 91.1126C194.523 92.6255 196.23 94.2074 197.886 95.8426C193.232 97.3707 188.071 93.8532 183.662 92.5839C178.964 91.2313 173.801 90.964 169.445 93.1715C168.872 93.4612 169.329 94.3325 169.913 94.0532C174.861 91.6865 180.659 92.4584 185.748 94.3799C189.959 95.9712 194.681 98.5289 199.119 96.5233C199.426 96.3842 199.525 95.9536 199.276 95.7041C197.561 93.982 195.774 92.3345 193.927 90.7463C194.609 90.0407 195.444 89.5258 196.453 89.2918C197.202 89.1175 197.957 89.2124 198.715 89.1325C199.629 89.0367 200.652 88.6568 200.56 87.6043C200.452 86.3697 198.809 84.6515 197.993 83.7395C196.923 82.5428 195.592 81.4979 193.989 81.0838C191.393 80.4128 188.596 81.6201 187.412 83.8703C186.893 84.8585 186.67 85.995 185.626 86.6185C184.895 87.0536 183.999 87.2051 183.164 87.3699C182.216 87.5571 181.265 87.7302 180.316 87.9099C180.66 87.7163 180.999 87.5156 181.313 87.2925C183.143 85.9955 184.705 84.3979 186.266 82.8225C187.812 81.2633 189.37 79.6713 191.211 78.4239C192.198 77.7544 193.257 77.2065 194.395 76.8005C194.801 76.6553 195.215 76.5249 195.627 76.3901C195.585 76.5605 195.637 76.7528 195.841 76.8902C197.794 78.2136 199.939 79.2991 202.11 80.2372C203.254 80.7303 204.429 81.2187 205.623 81.5778C206.236 81.762 206.86 81.9172 207.463 81.6473C208.575 81.1492 208.463 79.8319 207.995 78.8964C207.427 77.7614 205.11 76.6857 204.998 75.3811C206.363 75.4514 207.723 74.693 207.932 73.2884C208.103 72.137 207.418 71.1218 206.427 70.5879C207.561 69.7408 208.575 68.6386 208.704 67.392C209.049 68.3656 209.534 69.2833 210.197 70.1154C210.826 70.9036 211.966 72.2505 213.12 72.1944C213.964 72.1528 214.423 71.4355 214.497 70.6882C214.543 70.2096 214.435 69.732 214.23 69.2919C214.013 68.8299 213.043 67.8151 213.337 67.3559C213.717 66.7603 215.6 67.4671 216.293 67.4212C217.076 67.3702 217.742 66.9709 217.935 66.2068C218.23 65.0412 217.338 63.649 216.75 62.6722ZM157.501 103.26C160.823 102.157 163.526 99.681 166.536 97.9195C168.842 96.5691 171.759 95.4331 174.55 96.0196C175.683 96.2581 179.329 98.1799 177.112 99.2766C176.451 99.6035 175.481 99.6642 174.76 99.8256L172.192 100.402C171.718 100.508 171.57 101.301 172.144 101.414C173.705 101.722 175.231 102.151 176.705 102.754C177.407 103.042 178.152 103.338 178.789 103.746C179.05 103.914 179.554 104.211 179.669 104.515C179.84 104.964 179.496 105.586 178.99 105.703C178.381 105.843 177.5 105.484 176.896 105.355C176.288 105.224 175.676 105.103 175.063 104.991C173.611 104.728 172.15 104.528 170.684 104.39C165.253 103.879 159.591 104.142 154.337 105.446C155.398 104.726 156.452 103.997 157.501 103.26ZM33.4398 152.673C33.6643 152.672 33.8734 152.544 33.8677 152.263C33.8357 150.725 33.9427 149.111 33.6761 147.585C33.5945 147.117 32.9148 147.212 32.8613 147.633C32.6911 148.994 32.8291 150.434 32.8869 151.819C32.4292 151.094 31.9939 150.356 31.5771 149.611C31.6683 149.7 31.7576 149.79 31.8707 149.868C32.3752 150.217 32.8592 149.489 32.3858 149.125C31.7655 148.648 31.8933 147.827 32.2742 147.279C32.6511 146.737 33.2618 146.537 33.9022 146.576C33.9998 148.981 34.109 151.386 34.2245 153.79C33.9551 153.423 33.6923 153.051 33.4398 152.673ZM35.2824 155.159C35.1691 152.387 35.0595 149.612 34.931 146.839C35.8202 147.213 36.5722 147.9 37.186 148.66C37.098 148.712 37.021 148.786 36.9764 148.906C36.0983 151.316 35.9471 153.904 36.4155 156.428C36.0239 156.018 35.6443 155.597 35.2824 155.159ZM37.7399 157.695C36.9914 154.965 37.0767 152.279 37.8675 149.613C37.8975 149.66 37.93 149.708 37.9587 149.754C38.8259 151.168 39.2808 152.711 39.3776 154.278C39.0412 155.725 39.0019 157.23 39.1737 158.718C38.6418 158.378 38.143 158.03 37.7399 157.695ZM42.0716 160.218C41.4882 159.991 40.918 159.711 40.3649 159.416C40.2669 158.759 40.2062 158.107 40.1972 157.46C40.4761 156.35 40.5639 155.15 40.4524 153.942C40.4558 153.92 40.4568 153.898 40.4602 153.876C40.4735 153.788 40.4516 153.715 40.4176 153.649C40.0807 150.788 38.6627 147.951 36.181 146.359C35.7849 146.104 35.3403 145.902 34.8812 145.759C34.8549 145.226 34.8358 144.692 34.8073 144.159C34.7735 143.546 33.7797 143.465 33.7995 144.092C33.8153 144.582 33.841 145.071 33.86 145.561C33.0487 145.515 32.2621 145.74 31.6659 146.377C31.1007 146.981 30.8477 147.795 30.9914 148.537C30.6257 147.856 30.2686 147.175 29.9224 146.499C29.7948 146.249 29.6818 145.976 29.561 145.712C29.8221 145.642 30.04 145.425 29.9333 145.139C29.9204 145.104 29.9126 145.069 29.8997 145.034C30.1324 144.973 30.3482 144.838 30.5062 144.611C30.8619 144.102 30.0765 143.631 29.6835 144.075C29.4793 143.759 29.5273 143.474 29.828 143.221C30.0998 142.901 30.4321 142.664 30.8233 142.511C31.3394 142.298 31.9279 142.231 32.4928 142.284C33.9325 142.42 35.1966 143.328 36.2484 144.236C37.8736 145.636 39.2644 147.312 40.3529 149.121C41.4125 150.88 42.2004 152.771 42.6752 154.739C43.0008 156.087 43.917 159.551 42.0716 160.218ZM29.196 139.955C30.7057 137.491 33.5402 138.578 35.5929 139.867C40.1187 142.709 43.2591 146.639 45.7225 151.18C45.8741 151.458 46.1526 151.488 46.3598 151.38C47.4534 153.367 48.1963 155.48 48.126 157.542C48.0182 160.732 45.8937 161.249 43.49 160.668C44.6887 159.322 44.0988 156.084 43.7888 154.743C43.008 151.371 41.3526 148.166 39.0092 145.505C36.9995 143.222 33.6592 140.168 30.3359 141.593C29.9455 141.76 29.5367 142.038 29.1933 142.376C29.0802 141.721 29.003 141.068 28.9756 140.416C29.0456 140.261 29.1044 140.105 29.196 139.955ZM143.554 49.2413C143.471 49.1887 143.378 49.1498 143.282 49.142L141.626 49.0033C141.652 47.7692 142.416 46.4711 143.188 45.1628C143.166 46.5282 143.282 47.897 143.554 49.2413ZM166.329 33.5452C166.228 33.2884 166.085 33.0441 165.881 32.8256C165.4 32.3113 164.738 32.0579 164.083 32.0921C164.256 30.8525 164.841 29.5176 165.183 28.1992C165.204 28.2547 165.224 28.3136 165.244 28.3674C165.721 29.6611 166.383 30.8626 167.193 31.9835C166.862 32.4617 166.574 32.9892 166.329 33.5452ZM169.767 43.9121C169.491 43.9378 169.304 44.1492 169.26 44.3765C167.99 45.5396 166.719 46.7039 165.448 47.8674C165.491 46.6134 165.574 45.363 165.697 44.1154C165.973 44.0782 166.232 43.8635 166.177 43.5198C165.653 40.3194 166.029 37.0599 167.351 34.1204C167.528 33.727 167.715 33.3212 167.932 32.9336C167.947 32.9508 167.958 32.9694 167.973 32.9867C168.419 33.5171 169.223 32.8406 168.781 32.3117C168.705 32.2217 168.643 32.1224 168.569 32.0308C168.983 31.618 169.835 31.4862 170.385 31.7921C170.637 31.9321 170.967 32.6774 171.12 32.9886C171.266 33.2859 171.37 33.5919 171.472 33.8973C171.235 35.2728 171.334 36.6615 171.742 38.0215C171.927 38.6395 172.733 38.5344 172.84 37.9561C173.097 36.5837 173.026 35.1511 172.614 33.8019C172.931 32.5366 173.94 30.1101 175.157 31.9913C176.1 33.4514 175.502 35.1838 177.06 36.3853C177.424 36.6654 177.872 36.3485 177.919 35.9841C178.137 34.3313 178.85 32.8955 179.972 31.6872C180.293 32.2201 180.613 32.7529 180.934 33.2858C180.991 33.3789 181.062 33.4488 181.141 33.4981C177.348 36.968 173.558 40.4407 169.767 43.9121ZM219.717 38.1641C218.91 38.9185 217.965 39.4613 216.857 39.7782C216.403 39.9083 216.207 40.6773 216.809 40.8025C218.156 41.0811 219.247 41.8566 219.821 43.036C219.542 43.1398 219.26 43.2247 218.977 43.2905C218.061 42.8728 216.972 42.8692 216.035 43.5281C215.618 43.8217 215.945 44.404 216.384 44.4639C217.239 44.5791 218.062 44.5527 218.864 44.4107C219.025 44.5133 219.177 44.6299 219.306 44.7674C220.133 45.6482 219.917 46.8788 219.296 47.7702C218.201 49.3389 216.195 49.6698 214.311 49.7164C214.859 48.3163 214.559 46.6077 213.214 45.6044C211.532 44.3497 209.25 44.8882 208.063 46.3344C206.917 44.5432 205.857 41.1641 203.226 41.9633C202.916 42.0576 202.668 42.2348 202.461 42.4443C202.085 41.8833 201.637 41.3784 201.12 41.0046C205.342 38.1503 210.339 36.7717 215.583 37.1389C215.814 37.1547 215.968 37.0484 216.052 36.9016C217.399 37.0089 218.61 37.4339 219.717 38.1641ZM192.511 34.118C192.863 34.455 193.192 35.0856 193.382 35.4015C193.682 35.9008 194.007 36.264 194.531 36.5531C194.867 36.7376 195.406 36.5915 195.387 36.1542C195.28 33.7686 195.768 31.1742 197.207 29.2106C198.2 27.8542 199.876 27.8496 200.865 29.3799C201.498 30.3594 201.545 31.6163 201.609 32.7157C201.648 33.3926 202.654 33.4815 202.721 32.7888C202.888 31.0323 204.057 29.0309 206.088 28.8877C207.921 28.7587 209.667 30.6416 208.882 32.3233C208.696 32.7223 209.162 33.0597 209.532 33.0224C213.39 32.6333 217.363 32.3191 221.089 33.6099C219.372 34.5155 217.581 35.2614 215.69 35.8173C215.533 35.8636 215.425 35.9654 215.356 36.0858C209.989 35.7358 204.611 37.1859 200.383 40.2666C200.276 40.3441 200.229 40.4364 200.21 40.5308C199.698 40.3647 199.132 40.3307 198.505 40.5006C197.451 40.785 196.857 41.7149 196.88 42.6461C195.875 42.3745 194.78 42.5243 193.966 43.2475C193.448 43.7076 193.172 44.3032 193.089 44.9286C192.88 44.7557 192.654 44.6108 192.42 44.4836C192.583 44.458 192.731 44.368 192.802 44.1765C193.564 42.1023 192.696 40.0769 192.028 38.0574C191.77 37.2757 191.377 36.2247 191.386 35.3106C191.803 34.9299 192.18 34.5348 192.511 34.118ZM95.1476 126.677C91.661 128.32 88.1549 129.929 84.631 131.501C82.8684 132.287 81.1023 133.065 79.3328 133.835C77.7779 134.512 75.2131 135.748 73.7314 134.328C85.1348 124.141 96.6618 114.082 108.233 104.07C120.17 98.4432 131.815 92.0403 142.612 84.634C141.866 88.6723 141.572 93.0172 140.436 96.8954C140.079 97.3359 139.721 97.7765 139.368 98.2214C139.226 98.0888 139.019 98.0366 138.798 98.1621C129.171 103.642 119.097 108.381 108.645 112.312C108.028 112.543 108.508 113.438 109.122 113.209C119.191 109.438 128.922 104.921 138.22 99.6908C138.07 99.8841 137.917 100.075 137.768 100.27C137.375 100.779 138.245 101.343 138.637 100.838C138.819 100.602 139.014 100.378 139.198 100.144C138.13 102.313 136.604 104.223 134.305 105.686C134.076 105.831 134.092 106.093 134.22 106.297C121.496 113.585 108.469 120.398 95.1476 126.677ZM140.962 99.7459C140.253 101.024 139.562 102.312 138.876 103.602C138.426 103.865 137.972 104.124 137.52 104.387C139.414 102.435 140.56 100.071 141.335 97.5075C144.721 93.4476 148.333 89.5936 152.063 85.8017C152.504 85.3527 151.85 84.6083 151.374 85.0497C150.834 85.5502 150.313 86.0699 149.785 86.5835C148.975 84.7016 149.619 82.5098 151.407 81.4348C151.984 81.0887 151.497 80.152 150.911 80.5003C148.55 81.9067 147.68 84.7918 148.935 87.2589C148.953 87.2936 148.979 87.314 149.001 87.3421C148.091 88.2503 147.195 89.1734 146.319 90.1138C146.162 88.1766 146.326 86.2782 146.79 84.3927C146.944 83.7647 145.946 83.4194 145.775 84.0546C145.172 86.2987 145.058 88.596 145.352 90.916C145.361 90.9915 145.385 91.0529 145.417 91.1052C144.238 92.4014 143.078 93.7152 141.954 95.056C143.037 90.0572 143.23 84.5903 144.974 80.0372C145.285 80.3152 145.596 80.5931 145.907 80.871C146.192 81.1255 146.73 81.1253 146.842 80.7041C147.164 79.4972 147.599 77.8985 148.519 76.9835C148.737 76.5517 149.115 76.3714 149.653 76.4437C149.839 76.6064 150.031 76.7628 150.229 76.9108C150.534 77.0809 150.793 77.155 151.136 77.125C151.94 77.054 152.531 76.2933 153.061 75.8027C153.879 75.045 154.698 74.287 155.516 73.5293C155.737 74.16 156.003 74.7694 156.382 75.354C156.504 75.5418 156.747 75.7105 156.991 75.6429L157.571 75.4822C157.511 75.7552 157.431 76.0209 157.343 76.2824C157.276 76.4322 157.214 76.585 157.161 76.742C156.847 77.4998 156.417 78.2072 155.827 78.8242C155.113 79.5698 154.04 80.1023 153.62 81.0771C153.15 82.1684 153.5 83.4597 153.182 84.6039C152.79 86.0126 151.939 87.1608 150.768 88.0548C150.52 88.2447 150.565 88.5652 150.727 88.7952C151.899 90.4541 151.616 92.6798 150.414 94.189C149.782 94.9829 148.93 95.5174 147.902 95.7247C146.813 95.9442 145.681 95.7697 144.613 96.1091C142.833 96.6732 141.799 98.2397 140.962 99.7459ZM167.9 86.0611C167.717 85.857 167.387 85.7469 167.101 85.9385C158.441 91.7297 149.609 97.2835 140.617 102.594C141.146 101.609 141.683 100.629 142.26 99.6736C142.974 98.4885 143.886 97.3166 145.364 97.004C146.585 96.7454 147.859 96.9517 149.04 96.5023C152.203 95.2998 153.428 91.4134 151.83 88.5757C152.649 87.8842 153.324 87.0733 153.786 86.1065C154.416 84.7902 154.301 83.6014 154.494 82.2094C154.656 81.031 155.78 80.2675 156.687 79.4174C156.48 82.647 157.525 85.9561 159.673 88.5384C160.107 89.0591 160.855 88.4076 160.455 87.8856C158.765 85.6816 157.762 83.1107 157.738 80.3949C157.729 79.4667 157.79 78.4344 158.047 77.5071C158.199 77.1886 158.327 76.8612 158.434 76.5271C159.392 74.9487 161.215 77.1016 161.804 78.1144C162.11 78.6413 162.969 78.3898 162.837 77.7839C162.637 76.862 162.49 75.9398 162.445 75.0005C162.423 74.5496 162.212 73.0516 162.606 72.6937C163.012 72.3254 163.875 72.5729 164.232 72.8448C164.498 73.0482 164.743 73.3935 164.954 73.6542C165.523 74.3576 165.963 75.1043 166.351 75.9068C166.663 76.5311 167.636 76.0724 167.335 75.4473C166.746 74.2713 166.315 72.8951 166.963 71.6863C167.281 71.0912 167.831 70.5504 168.564 70.4541C169.294 70.3579 170.029 70.7883 170.293 71.4173C170.29 71.8003 170.312 72.165 170.352 72.4762C170.417 72.9916 171.301 73.0505 171.418 72.5508C171.538 72.0364 171.488 71.5422 171.313 71.1041C171.292 70.5614 171.351 70.0191 171.632 69.5751C172.141 68.7757 173.294 68.4976 173.762 69.4893C174.156 70.324 173.757 71.4403 173.454 72.2249C173.228 72.8665 174.263 73.2061 174.507 72.5755C175.086 72.9493 175.235 73.4022 174.951 73.9332C174.862 74.2586 174.773 74.5827 174.684 74.9081C174.527 75.4768 174.371 76.0454 174.214 76.614C173.878 77.8325 173.543 79.0507 173.208 80.2688C173.188 80.3417 173.189 80.4091 173.196 80.4728C172.297 80.973 171.393 81.4659 170.475 81.9433C169.875 82.2559 170.349 83.164 170.968 82.8745C173.989 81.4621 176.882 79.7627 179.641 77.9051C175.693 80.5795 171.783 83.3032 167.9 86.0611ZM205.001 70.2696C204.552 70.5491 204.649 71.2021 205.231 71.2745C207.601 71.5701 207.052 74.9061 204.676 74.2898C204.394 74.2171 204.067 74.3244 203.981 74.614C203.751 75.3962 203.925 76.0797 204.432 76.7534C205.056 77.5816 207.103 78.5633 207.107 79.6272C207.334 79.9803 207.159 80.1842 206.581 80.2388C206.245 80.6298 205.869 80.688 205.45 80.4111C205.035 80.3559 204.574 80.1009 204.187 79.9543C203.349 79.6373 202.523 79.2943 201.707 78.9265C199.878 78.1018 198.164 77.1102 196.436 76.1063C196.939 75.9153 197.429 75.6983 197.876 75.3937C199.964 73.9694 200.493 71.3826 199.603 69.2802C200.09 68.7858 200.528 68.2486 200.91 67.6785C202.828 67.0773 204.761 66.8493 206.788 66.7319C207.398 66.6961 207.483 65.8271 206.827 65.7887C205.067 65.6848 203.316 65.9452 201.633 66.3958C202.297 65.023 202.67 63.5104 202.655 61.928C202.653 61.6549 202.468 61.4875 202.253 61.4256C202.366 61.3148 202.437 61.1624 202.405 60.9784C202.176 59.7131 201.867 58.1839 202.677 57.0692C203.991 55.2595 205.914 56.9377 207.089 58.0659C208.033 58.9715 208.946 60.0245 208.982 61.3465C209.024 62.8769 208.06 64.1785 207.194 65.3674C207.047 65.5704 207.1 65.8203 207.246 66.0107C208.615 67.7963 206.349 69.4281 205.001 70.2696ZM214.365 66.1361C213.85 66.077 213.304 66.0513 212.824 66.2554C211.319 66.8947 212.576 68.4999 213.08 69.4407C213.214 69.6906 213.6 70.3216 213.406 70.6229C212.762 71.6247 211.651 70.192 211.281 69.771C210.389 68.7556 209.813 67.5958 209.477 66.3242C209.35 65.8432 208.734 65.8291 208.503 66.1245C208.444 65.9827 208.4 65.8426 208.313 65.6987C209.419 64.1504 210.486 62.3732 209.96 60.4021C209.497 58.6653 207.889 57.2195 206.481 56.126C205.07 55.0319 203.343 54.7631 202.068 56.1004C201.325 56.8795 201.095 57.8454 201.085 58.8492C200.483 58.1904 199.722 57.7344 198.753 57.8862C198.134 57.9834 197.599 58.3097 197.276 58.7538C196.841 58.4354 196.296 58.2703 195.747 58.2631C196.073 56.6664 196.843 55.2173 197.909 54.0096C201.354 53.693 204.786 54.1439 208.114 55.2919C208.739 55.5072 209.045 54.5937 208.424 54.3685C205.384 53.2611 202.187 52.8032 199.003 52.9499C200.229 51.9385 201.705 51.1948 203.358 50.8715C204.049 50.7367 203.812 49.6959 203.118 49.8327C200.791 50.2894 198.759 51.4703 197.246 53.0963C197.121 53.1108 196.997 53.1284 196.873 53.1446C197.161 51.7304 196.994 50.2831 196.301 48.9458C196.014 48.392 195.195 48.6981 195.288 49.27C195.439 50.2038 195.554 51.1506 195.811 52.0666C195.834 52.1493 195.884 52.2126 195.942 52.2655C195.912 52.6817 195.85 53.0988 195.718 53.5126C195.647 53.7366 195.735 53.9175 195.882 54.0347C195.985 54.153 196.138 54.2304 196.337 54.2025C195.435 55.4796 194.819 56.9521 194.578 58.5294C194.368 58.6361 194.168 58.7652 193.994 58.9396C192.142 60.7946 193.572 63.4025 194.987 65.1C195.433 65.6348 196.242 64.9543 195.798 64.4228C195.007 63.4745 194.133 62.3374 194.212 61.0696C194.238 60.6582 194.401 60.1773 194.685 59.8133C194.993 60.0334 195.546 59.9379 195.578 59.4606C195.582 59.403 195.591 59.3477 195.597 59.2906C196.171 59.2216 196.738 59.4887 196.977 59.9992C196.989 60.0642 197.022 60.1308 197.043 60.1975C197.055 60.2389 197.072 60.2769 197.08 60.3209L197.084 60.3192C197.101 60.3628 197.106 60.4045 197.127 60.4475C197.403 61.0149 198.241 60.6909 198.147 60.121C198.138 60.067 198.11 60.0245 198.097 59.9723C197.953 59.6206 198.395 59.1212 198.688 58.9893C199.284 58.7222 199.926 59.1636 200.318 59.5557C200.8 60.0383 201.095 60.7096 201.381 61.3072C201.451 61.4534 201.56 61.5384 201.681 61.5768C201.623 61.6497 201.58 61.7385 201.578 61.8597C201.554 63.6609 201.052 65.3665 200.155 66.8436C199.923 66.9252 199.843 67.0986 199.867 67.2755C199.621 67.6356 199.358 67.9856 199.065 68.3118C198.575 67.6212 197.906 67.0268 197.052 66.6139C192.374 64.3546 189.059 69.099 186.082 71.6544C182.489 74.7389 178.602 77.3746 174.498 79.7392C174.819 78.5708 175.141 77.4022 175.464 76.2344C175.755 75.175 176.38 73.8561 176.16 72.7259C176.028 72.0514 175.441 71.5678 174.836 71.449C175.146 69.9879 175.041 68.2244 173.301 67.8189C171.525 67.4054 170.73 68.5884 170.435 69.9805C169.688 69.4146 168.646 69.2001 167.657 69.6136C166.244 70.2042 165.668 71.3632 165.599 72.6393C165.116 72.0428 164.574 71.5234 164.002 71.2531C164.563 70.3426 164.664 69.1188 164.261 68.1566C165.284 68.2153 166.266 68.0088 167.003 67.1975C167.459 66.695 167.729 66.0228 167.616 65.3393C167.533 64.8356 166.567 63.7959 166.472 63.1766C169.191 63.4441 170.399 60.2334 168.533 58.6552C170.511 57.9441 172.59 56.9533 173.943 55.4891C174.353 55.0459 174.573 54.5341 174.623 54.0421C175.361 54.2801 176.13 54.3883 176.897 54.3749C176.003 54.9377 175.496 55.9897 175.497 57.0249C174.372 57.1923 173.938 58.4268 173.945 59.4647C173.961 62.0218 174.727 65.6785 177.384 66.7512C176.772 67.4785 176.602 68.6025 177.093 69.4972C178.694 72.4097 182.924 70.9085 185.484 71.4985C186.164 71.6558 186.503 70.6707 185.816 70.5119C184.127 70.1218 182.507 70.4648 180.812 70.3251C179.793 70.2411 178.31 69.891 177.951 68.795C177.705 68.0432 178.164 66.9925 179.08 67.066C179.776 67.0594 179.84 66.0759 179.125 66.0181C176.959 66.0384 175.774 64.1785 175.373 62.3466C175.199 61.5501 175.103 60.723 175.058 59.9143C175.042 59.618 174.944 59.0113 175.108 58.745C175.252 58.5125 175.501 58.3347 175.759 58.2452C175.99 58.739 176.373 59.1676 176.935 59.4468C177.302 59.629 177.762 59.4865 177.787 59.0493C177.833 58.2543 177.347 57.5228 176.612 57.1911C176.528 56.3668 176.944 55.4693 177.761 55.1325C179.633 54.3629 181.32 56.4382 181.534 58.012C181.651 58.6891 182.696 58.4776 182.606 57.8112C182.407 56.6563 182.451 55.5217 182.866 54.4271C183.539 52.6533 184.957 54.3009 185.608 55.1387C186.814 56.6925 187.456 58.5475 187.515 60.4515C187.535 61.0868 188.567 61.1638 188.553 60.5201C188.495 57.7879 187.269 54.4367 184.754 52.8058C182.671 51.4543 181.807 53.5335 181.55 55.5419C180.908 54.7641 180.036 54.1719 179.099 53.9794C180.272 53.5632 181.317 52.8462 182.023 51.8119C183.419 49.7654 183.243 47.0474 181.853 45.004C182.41 45.0399 182.968 45.0767 183.527 45.1122C183.908 45.1364 184.138 44.8174 184.09 44.4813C183.53 40.5419 187.404 38.5231 190.413 36.1324C190.823 38.7264 192.695 41.2567 191.792 43.8418C191.74 43.9924 191.761 44.1266 191.826 44.2333C191.425 44.1094 190.994 44.0584 190.52 44.128C188.782 44.3835 188.322 46.0255 188.932 47.4519C189.358 48.4471 190.11 49.2551 190.694 50.1637C191.354 51.1903 191.83 52.3152 192.113 53.4812C192.717 55.974 192.434 58.5821 191.276 60.8412C190.972 61.4338 191.886 62.038 192.193 61.44C193.664 58.5724 193.935 55.2524 192.846 52.1489C192.294 50.578 191.347 49.3683 190.446 47.9765C189.867 47.0825 189.047 45.2053 190.954 45.1501C192.082 45.1174 192.874 46.0478 193.473 46.9101C193.594 47.1296 193.731 47.3411 193.899 47.5323C194.297 47.9833 195.141 47.4838 194.796 46.9633C194.671 46.7765 194.54 46.5848 194.403 46.3943C193.392 44.5282 195.798 42.5216 197.619 44.1717C197.621 44.1689 197.624 44.1657 197.626 44.1638C197.664 44.1955 197.687 44.2336 197.727 44.2643C198.219 44.6311 198.897 43.9084 198.436 43.4903C198.401 43.4579 198.359 43.434 198.323 43.4041C198.324 43.4025 198.326 43.4009 198.328 43.3981C197.262 42.6026 198.403 41.4436 199.331 41.4692C199.939 41.487 200.566 41.8273 200.994 42.2283C201.383 42.5914 201.673 43.036 201.915 43.506C201.816 44.2005 202.105 44.93 202.886 45.2801C203.372 45.4983 203.692 44.9316 203.542 44.5541C203.411 44.226 203.255 43.8723 203.077 43.5146C203.294 43.2098 203.698 42.9451 203.96 42.9474C204.859 42.954 205.602 44.0749 205.954 44.7165C206.507 45.7271 206.88 46.7449 207.683 47.6141C207.985 47.941 208.456 47.7999 208.618 47.4472C209.265 46.032 211.381 45.4154 212.668 46.5391C213.631 47.3794 213.715 48.7904 213.078 49.7782C212.936 49.8469 212.848 49.9724 212.811 50.1129C212.769 50.1588 212.734 50.2102 212.688 50.2524C212.424 50.4937 212.461 50.8747 212.755 51.0893C214.549 52.3997 216.895 53.9102 218.142 55.7435C219.119 57.1796 218.138 58.5019 216.611 58.8881C215.567 59.152 214.423 58.9854 213.362 58.8568C212.911 58.8027 212.585 59.4079 212.93 59.725C213.871 60.5869 214.721 61.5235 215.422 62.5753C215.895 63.2837 216.854 64.6112 216.861 65.4676C216.877 66.9311 215.19 66.2305 214.365 66.1361Z" fill="#4b9097"/>
<path d="M139.536 52.5682C138.077 52.7193 136.744 53.3512 135.68 54.2741C136.1 52.8371 136.678 51.4374 137.465 50.1054C137.802 49.5352 136.898 48.9425 136.559 49.5155C133.846 54.1011 133.038 59.6524 134.575 64.846C134.762 65.4789 135.79 65.2982 135.617 64.6517C134.89 61.9229 134.75 59.1568 135.18 56.4833C136.209 54.8563 137.81 53.9016 139.755 53.5192C140.4 53.3927 140.174 52.5019 139.536 52.5682Z" fill="#4b9097"/>
<path d="M165.715 60.3014C163.479 60.5922 161.299 61.1672 159.208 61.9587C158.89 61.854 158.572 61.749 158.253 61.6434C159.097 60.1743 160.176 59.0362 161.354 57.8131C161.767 57.3831 161.218 56.7962 160.718 57.1188C159.198 58.0966 158.096 59.6791 157.327 61.2479C157.257 61.3903 157.29 61.5254 157.37 61.6355C157.175 61.8558 157.187 62.257 157.567 62.3844C157.673 62.4202 157.781 62.4565 157.888 62.4923C156.658 63.023 155.462 63.6231 154.313 64.2966C154.185 64.3146 154.074 64.3813 153.994 64.4778C152.761 65.2204 151.579 66.0358 150.469 66.9203C149.942 67.34 150.663 68.1238 151.19 67.7072C152.25 66.8666 153.353 66.1114 154.496 65.4336C155.917 66.2829 157.491 66.7841 159.161 66.8216C159.836 66.8372 159.888 65.8454 159.204 65.8126C157.886 65.7496 156.676 65.439 155.534 64.8619C156.827 64.1621 158.179 63.5773 159.562 63.0554C160.137 63.2485 160.711 63.4419 161.286 63.635C161.89 63.838 162.192 62.9438 161.587 62.7442C161.385 62.6779 161.182 62.6107 160.981 62.544C162.585 62.0172 164.236 61.5868 165.942 61.2695C166.591 61.1486 166.366 60.2171 165.715 60.3014Z" fill="#4b9097"/>
<path d="M169.009 81.1392C167.322 81.0543 165.675 81.2928 164.127 81.8295C165.6 79.3083 167.922 77.2699 170.793 76.1104C171.424 75.8554 170.931 74.9427 170.303 75.1873C167.111 76.4277 164.576 78.7559 163.02 81.6081C163.021 80.4328 162.393 79.2874 161.325 78.6502C160.734 78.2985 160.154 79.124 160.739 79.4923C161.56 80.0089 162.018 80.8366 161.954 81.7665C161.925 82.19 162.36 82.3643 162.683 82.2585C162.645 82.338 162.598 82.4124 162.563 82.493C162.52 82.5143 162.475 82.5278 162.433 82.55C162.133 82.7068 162.115 83.0176 162.246 83.2435C161.685 84.6906 161.359 86.2309 161.321 87.815C161.306 88.4641 162.36 88.5376 162.378 87.8844C162.424 86.2579 162.783 84.6901 163.405 83.2427C165.148 82.4667 167.004 82.0878 168.966 82.1616C169.652 82.1868 169.701 81.1736 169.009 81.1392Z" fill="#4b9097"/>
<path d="M191.513 91.8111C189.575 90.8332 187.387 90.287 185.219 89.9606C187.633 89.1082 190.026 87.9165 192.428 87.665C193.014 87.6036 192.935 86.637 192.334 86.6602C187.495 86.8478 182.944 91.5122 178.011 89.1763C177.396 88.8851 177.083 89.8402 177.689 90.1294C179.581 91.0332 181.441 90.985 183.284 90.545C183.361 90.6333 183.47 90.7014 183.619 90.7188C186.258 91.0226 188.595 91.8094 191.102 92.6245C191.602 92.7875 192.014 92.0638 191.513 91.8111Z" fill="#4b9097"/>
</svg>
