<svg width="139" height="119" viewBox="0 0 139 119" fill="none" xmlns="http://www.w3.org/2000/svg">
<path d="M77.3987 68.2381C77.3367 68.2107 77.2748 68.1833 77.2128 68.1559C76.9048 68.0198 76.6057 68.3015 76.7527 68.5935L76.8408 68.7684C77.1398 69.3668 78.0377 68.5208 77.3987 68.2381Z" fill="#4b9097"/>
<path d="M56.3568 40.385C52.3748 38.7081 47.9807 41.4796 48.4117 45.6728C48.4887 46.4177 49.7268 46.4215 49.6508 45.67C49.3268 42.4561 52.5308 40.0646 55.7368 41.422C56.4698 41.7321 57.0978 40.697 56.3568 40.385Z" fill="#4b9097"/>
<path d="M44.0878 48.5861C42.4478 47.4688 40.0818 48.6844 39.8998 50.4946C39.8268 51.231 41.0278 51.214 41.1088 50.4918C41.2248 49.4671 42.6747 49.054 43.4827 49.5985C44.1277 50.0324 44.7238 49.02 44.0878 48.5861Z" fill="#4b9097"/>
<path d="M35.7108 61.2951C35.6118 60.1107 36.1558 59.0274 37.2368 58.4026C37.8838 58.0283 37.3017 57.0613 36.6517 57.4337C35.2297 58.2495 34.3918 59.7203 34.5168 61.297C34.5738 62.0201 35.7718 62.0211 35.7108 61.2951Z" fill="#4b9097"/>
<path d="M125.135 99.1264C124.934 97.0005 124.733 94.8746 124.532 92.7487C125.879 90.759 127.064 88.6785 128.035 86.4968C128.564 85.3095 129.04 84.1024 129.452 82.8745C129.636 82.3263 129.716 81.9 129.725 81.5001C130.431 82.3244 130.983 83.2394 131.096 84.3407C131.164 84.9986 132.128 85.1725 132.343 84.49C134.909 76.3248 133.899 67.4148 129.658 59.9444C131.09 60.831 132.51 61.7347 133.903 62.6771C134.27 62.9248 134.906 62.5835 134.849 62.1534C134.744 61.367 134.638 60.5805 134.533 59.7931C135.326 60.1542 136.278 60.176 137.181 59.812C137.422 59.7147 137.56 59.3678 137.48 59.1381C136.666 56.8203 135.851 54.5034 135.037 52.1866C135.808 52.4806 136.579 52.7755 137.35 53.0695C137.816 53.2472 138.24 53.0279 138.296 52.5458C138.608 49.8433 138.216 47.1379 137.118 44.6217C136.594 43.4202 135.919 42.2878 135.097 41.2452C134.282 40.212 134.597 38.7393 134.482 37.4812C133.986 32.0525 131.787 26.9311 128.236 22.6528C127.986 22.3522 127.411 22.4675 127.243 22.7823C125.515 26.0246 124.411 29.4644 123.984 33.0743C123.908 33.7124 125.085 33.8608 125.174 33.2161C125.606 30.0873 126.519 27.0965 127.92 24.2465C131.094 28.3726 133.011 33.3296 133.281 38.4349C133.33 39.3518 133.119 40.4077 133.479 41.2405C133.739 41.8407 134.454 42.4211 134.828 42.9977C135.172 43.528 135.483 44.0782 135.755 44.6453C136.82 46.8629 137.213 49.2686 137.07 51.6809C136.153 51.3311 135.235 50.9805 134.318 50.6307C133.864 50.4577 133.202 50.7621 133.393 51.3066C134.279 53.8285 135.166 56.3505 136.052 58.8725C135.259 58.9689 134.578 58.552 134.228 57.843C133.969 57.3194 132.964 57.55 133.043 58.1418C133.166 59.0624 133.29 59.9841 133.413 60.9048C131.667 59.7506 129.898 58.6286 128.09 57.5604C127.567 57.2513 126.891 57.8846 127.228 58.379C132.011 65.4118 133.593 74.0354 131.668 82.1514C131.061 81.0417 130.14 80.0917 129.16 79.1682C128.716 78.7494 127.938 79.172 128.101 79.7457C128.257 80.294 128.323 80.7571 128.339 81.2062C125.108 79.4782 122.34 77.3381 120.058 74.5534C119.945 74.4154 119.79 74.3738 119.636 74.388C119.424 70.9104 119.473 67.4157 119.81 63.9324C119.904 62.9626 120.041 62.0041 120.187 61.0465C121.686 64.009 124.136 66.4629 127.352 67.8212C128.058 68.1199 128.669 67.152 127.954 66.8136C124.689 65.2653 122.243 62.9248 120.846 59.7118C120.77 59.5379 120.62 59.4604 120.453 59.4415C120.539 58.9594 120.652 58.482 120.746 58.0018C121.417 58.0274 121.489 57.1587 120.971 56.8959C121.431 54.6793 121.934 52.4711 122.461 50.2583C123.828 52.8256 126.401 55.0196 129.449 55.0857C129.858 55.0942 130.076 54.4779 129.662 54.3153C126.478 53.0638 123.904 51.4361 122.929 48.2373C123.545 45.4875 124.011 42.716 124.076 39.9284C124.343 40.177 124.599 40.4332 124.852 40.6903C125.399 41.4673 126.081 42.198 126.751 42.9287C127.88 44.4837 128.771 46.1983 129.358 48.1456C129.559 48.812 130.536 48.6494 130.587 47.9925C130.731 46.1114 129.761 44.6907 128.579 43.3484C128.432 43.1017 128.268 42.8654 128.11 42.6253C129.412 43.2368 130.868 43.562 132.396 43.5138C133.189 43.4892 133.19 42.3285 132.393 42.3474C129.554 42.4145 127.002 41.1743 125.478 38.8943C125.371 38.7346 125.222 38.6542 125.067 38.6325C125.06 38.6107 125.049 38.5918 125.043 38.5701C124.909 38.157 124.445 38.1022 124.15 38.2761C124.119 38.2525 124.092 38.2241 124.061 38.2005C124.021 37.2221 123.932 36.2419 123.767 35.2598C123.724 35.0017 123.551 34.8751 123.351 34.8401C123.368 34.6888 123.388 34.5376 123.397 34.3863C123.77 34.3939 124.171 34.1085 124.064 33.6585C122.498 27.0483 117.656 21.2151 111.101 18.402C108.272 17.1883 105.076 16.4916 101.87 16.4065C103.866 16.0965 105.9 15.9613 107.858 15.8876C111.965 15.7335 117.032 16.5729 118.511 20.7954C118.646 21.1829 119.251 21.4457 119.575 21.0648C120.287 20.2282 122.337 18.6317 122.014 17.4104C121.694 16.2023 119.311 15.2174 118.286 14.6559C115.115 12.9194 111.56 11.7086 107.889 11.4477C99.1577 10.8276 92.9707 16.519 87.5517 22.2123C87.5007 22.2662 87.4817 22.3239 87.4557 22.3806C87.4817 21.9108 86.7747 21.6215 86.4457 22.1017C86.2067 22.4486 86.0107 22.8201 85.7958 23.1803C85.7818 22.9752 85.7918 22.7681 85.7698 22.564C85.2197 17.4709 81.2007 13.0319 77.0577 10.0336C76.9527 9.95794 76.8357 9.88421 76.7287 9.80859C76.7277 9.57511 76.6047 9.34446 76.3227 9.29342C74.6787 8.99566 74.8957 6.29504 75.1517 5.16167C75.4107 4.01696 75.9877 2.94315 76.9577 2.19639C78.8647 0.728399 81.9628 1.2067 82.9778 3.39971C83.2958 4.08597 84.3427 3.50085 84.0417 2.82594C82.5887 -0.433328 77.7868 -0.577005 75.4778 1.90147C74.3998 3.05942 73.4287 5.89614 73.7947 7.97099C70.6197 6.23266 66.9197 5.02839 63.4117 5.78744C59.8267 6.5635 56.7807 10.217 58.2817 13.7116C58.5827 14.413 59.8017 14.1171 59.4997 13.4072C58.7387 11.6188 59.3978 9.74998 60.8167 8.42945C62.3127 7.03708 64.4067 6.63346 66.4447 6.80266C71.2547 7.20156 75.9637 10.2566 79.2267 13.4431C80.8827 15.0595 82.3798 16.8915 83.3998 18.9351C84.4758 21.0913 84.6607 23.3362 84.5187 25.6673C82.9927 29.2205 82.4158 33.1613 82.6758 36.9887C82.4898 36.8989 82.3097 36.8034 82.1077 36.7268C81.7947 36.6077 81.5647 36.7438 81.4487 36.9584C79.6877 35.8326 76.9727 35.8156 74.9817 36.6295C74.6287 36.7741 74.2718 36.9357 73.9157 37.1059C73.6738 34.2663 70.2677 32.5251 67.3077 32.3654C64.1237 32.1934 61.2367 33.9979 60.5547 36.776C58.2957 35.7608 55.4337 35.7003 53.0607 36.3043C49.1787 37.2931 45.6247 40.1723 45.1687 44.116C45.0837 44.8495 45.1387 45.583 45.2627 46.3052C42.4067 45.479 39.2807 47.1228 37.1727 48.8725C35.0837 50.609 35.7177 53.1045 36.9657 55.1112C33.6297 56.7182 31.3707 60.0625 31.7977 63.6763C32.0067 65.443 32.8187 67.0178 34.0257 68.223C30.6497 68.2277 26.9947 73.1459 29.8857 75.8579C27.2227 77.0111 25.0717 79.3657 24.6987 82.1098C22.3547 80.5331 18.6208 81.536 16.7018 83.4918C14.9508 85.2765 15.2438 87.6661 16.4988 89.533C15.8628 89.4347 15.2117 89.3931 14.5437 89.4848C10.5007 90.0387 7.77376 93.5759 7.52976 97.2775C7.45676 98.3787 7.57974 99.5424 7.88474 100.675C5.58674 99.9072 2.32074 101.585 0.923742 103.167C-0.0182576 104.235 -0.123246 105.594 0.0977537 106.917C0.349754 108.428 0.816726 110.29 1.85673 111.499C4.58373 114.669 11.2867 113.632 13.8667 110.445C14.7797 111.554 16.1007 112.527 16.8967 112.921C18.6977 113.81 20.7487 113.95 22.6267 113.422C23.8237 116.324 26.7028 119.75 30.4178 118.664C32.1648 118.153 33.4127 116.549 34.4557 115.221C35.3187 114.124 35.9267 112.919 35.9277 111.618C35.9377 111.627 35.9487 111.637 35.9587 111.645C37.4577 112.808 39.4887 113.131 41.3497 112.721C42.9057 112.379 44.5767 111.419 45.7157 110.147C47.4247 112.526 52.0367 112.389 54.7977 111.751C57.9167 111.031 60.6018 108.27 59.7958 105.223C61.9108 105.335 64.0638 104.628 65.6628 103.316C69.6148 104.365 73.4838 101.693 73.6968 97.8182C74.3748 97.891 75.0707 97.9052 75.7857 97.8003C79.1677 97.3049 82.1857 94.8879 82.5777 91.5719C82.6867 90.6437 82.5857 89.7097 82.3247 88.8165C85.5077 89.5689 88.1597 85.9693 88.1207 83.1496C91.5017 85.5402 96.1597 85.3303 99.3207 82.6808C102.363 80.1304 102.98 75.8437 101.057 72.5012C100.463 71.469 99.6507 70.6277 98.7087 69.9755C99.8517 69.9604 100.908 69.517 101.834 68.3808C102.864 67.1161 103.367 65.5205 103.362 63.9296C103.931 62.6554 104.903 61.6014 106.172 60.9029C106.756 60.5815 107.386 60.3376 108.044 60.192C108.72 60.0427 109.973 60.2317 110.561 59.916C109.956 60.2412 110.346 61.246 111.036 61.0125C111.088 60.9946 111.135 60.9709 111.187 60.953V60.9539L111.189 60.953C111.264 60.9265 111.331 60.8925 111.404 60.8651C110.251 61.9304 108.954 62.886 107.873 64.0241C106.399 65.5772 105.351 67.4223 104.67 69.3998C103.16 73.7821 103.402 78.5471 103.711 83.0806C103.747 83.6128 104.373 83.8491 104.792 83.5013C105.245 83.125 105.699 82.7498 106.152 82.3736C104.817 84.9967 103.819 87.754 103.194 90.6248C103.065 91.2165 103.783 91.5974 104.256 91.1976C104.968 90.5945 105.73 90.086 106.523 89.6124C106.5 90.1285 106.512 90.6446 106.584 91.1777C106.652 91.6806 107.236 91.9812 107.667 91.5984L108.146 91.1721C108.367 93.384 109.066 95.491 110.297 97.4212C110.59 97.8806 111.297 97.7728 111.461 97.2747C112.141 95.2046 113.154 93.3008 114.478 91.5483C115.361 92.9444 116.243 94.3406 117.126 95.7367C117.44 96.233 118.337 96.0543 118.311 95.438C118.265 94.367 118.393 93.3547 118.692 92.3565C120.693 94.5448 122.449 96.8918 123.945 99.4242C124.244 99.9233 125.193 99.7399 125.135 99.1264ZM127.846 82.28C127.991 82.349 128.127 82.3528 128.253 82.3272C128.187 82.6411 128.095 82.9672 127.965 83.3292C127.503 84.6186 126.97 85.8843 126.369 87.1216C125.638 88.6255 124.781 90.0623 123.864 91.467C123.516 91.4273 123.155 91.6088 123.195 92.0304C123.208 92.1703 123.221 92.3102 123.235 92.4501C123.231 92.4548 123.229 92.4605 123.225 92.4652C121.392 87.115 120.242 81.5814 119.767 75.9921C121.993 78.5717 124.688 80.7638 127.846 82.28ZM120.996 37.8838C119.984 39.5021 118.332 40.661 116.057 40.6194C114.334 40.5882 112.643 39.6364 111.257 38.3659C110.675 37.3932 109.938 36.4971 109.112 35.6804C109.44 35.4989 109.768 35.3193 110.081 35.1095C110.952 34.5263 111.718 33.8494 112.411 33.0819C113.055 32.3682 113.861 30.7632 114.656 30.3066C115.88 29.6024 116.599 31.8143 117.098 32.6121L118.624 35.0509C118.228 36.1805 118.879 37.4868 120.133 37.8271C120.422 37.9056 120.713 37.915 120.996 37.8838ZM79.8918 54.9128C81.1488 56.3864 80.0848 58.6239 79.0248 59.9C78.7608 60.2185 76.6137 62.0958 75.4737 62.3737C75.5197 62.2083 75.4887 62.0268 75.3077 61.8718C72.8517 59.7808 69.3717 60.7564 66.9507 62.4701C67.0117 62.2404 66.9577 61.9767 66.7048 61.8018C65.8658 61.2224 65.3807 60.2828 65.3457 59.3092C69.1687 58.5019 71.9117 55.2351 71.3667 51.42C71.2577 50.6581 70.0368 50.9729 70.1448 51.7263C70.6068 54.9619 68.0788 57.5132 64.9568 58.1559C64.7508 58.0624 64.5147 58.0652 64.3497 58.1862C64.0937 58.0255 63.7197 58.104 63.5217 58.311C63.4827 58.3119 63.4457 58.3176 63.4067 58.3176C61.5057 58.3129 59.7047 57.6531 58.1907 56.5896C57.3677 56.0111 56.6507 55.3315 56.0207 54.5677C55.9417 54.4722 55.4567 53.8607 55.1957 53.6168C57.6287 53.3654 59.9777 52.2518 61.5727 50.4908C63.3447 48.5332 63.9937 46.0112 63.6917 43.5696C64.2777 43.1499 65.1838 43.1291 65.8688 43.4269C66.6598 43.7709 67.2668 44.3816 67.8138 45.0225C67.8488 45.3013 67.9027 45.5849 67.9827 45.8741C68.9437 49.3622 72.2407 52.4352 75.7997 53.6064C79.2447 54.7407 82.3727 53.5544 84.2497 50.9729C84.3767 50.9994 84.5188 50.988 84.6678 50.9001C86.9028 49.59 90.0458 50.8755 90.4908 53.3464C90.6188 54.062 91.7497 53.7614 91.6357 53.06C91.2017 50.3868 88.0657 48.6769 85.4097 49.331C86.6667 47.1351 91.4667 49.2024 92.7527 50.4417C94.6307 52.2509 94.2697 54.6812 93.3237 56.8279C92.3277 59.087 90.7207 61.7725 87.6877 61.0929C85.0457 60.5011 82.9618 58.4074 81.7178 56.2295C81.7018 56.2011 81.6777 56.187 81.6587 56.1624C81.5877 55.4241 81.3287 54.7124 80.7497 54.0979C80.2207 53.5383 79.4118 54.3494 79.8918 54.9128ZM78.8577 65.6074C78.3597 66.1765 79.2207 66.9979 79.7257 66.4241C81.8317 64.0298 85.4758 63.4683 88.2748 65.1131C88.7138 65.3711 89.1158 65.0327 89.1628 64.6546C89.9868 65.8504 90.1768 67.325 89.7228 68.7211C87.7688 69.5927 86.1288 71.0663 85.2668 73.0145C84.9228 73.7915 84.7317 74.6073 84.6437 75.4297C82.5047 76.9128 79.4307 76.4959 77.7977 74.3369C78.1597 73.8341 78.4827 73.3057 78.7117 72.7328C79.6887 70.2874 79.1147 67.6312 77.5757 65.5895C78.9617 62.679 82.5647 61.5437 85.4617 63.0543C83.0097 62.8643 80.4917 63.7443 78.8577 65.6074ZM68.1717 86.0903C67.0157 86.3881 65.8527 86.2822 64.8237 85.8843C64.6597 85.6867 64.4567 85.5014 64.1527 85.3492C64.0047 85.2746 63.8637 85.2717 63.7347 85.302C62.7507 84.6233 61.9927 83.6298 61.6957 82.3877C61.5117 81.6183 61.5127 80.9027 61.6517 80.2382C61.6687 80.2004 61.6787 80.1645 61.6867 80.1267C62.1247 78.2749 63.6747 76.8542 65.5807 75.9685C66.8717 77.0026 68.4807 77.6888 70.1727 77.858C72.3057 78.0717 74.3947 77.3703 76.0337 76.1244C77.9997 78.1794 77.6658 81.1617 75.4648 82.8292C73.5348 82.7243 71.5717 83.2016 69.9507 84.3199C69.2297 84.8171 68.6387 85.4211 68.1717 86.0903ZM67.4577 87.4213C67.2027 88.0385 67.0668 88.6926 66.9858 89.3553C66.0278 88.9393 64.9977 88.9601 64.1127 89.3184C64.1237 89.3042 64.1357 89.291 64.1467 89.2768C64.5977 88.6973 65.0348 87.9601 65.1578 87.253C65.8988 87.4326 66.6737 87.4988 67.4577 87.4213ZM46.7308 102.242C48.3338 103.318 50.4587 102.468 51.4477 101.013C51.9537 100.268 52.1197 99.4497 52.0837 98.616C52.9367 101.955 49.9098 104.835 46.6058 105.297C46.3738 105.076 45.9637 105.145 45.7447 105.362C44.5647 105.372 43.3877 105.066 42.3777 104.331C42.9667 102.508 42.6798 100.573 41.7798 98.926C41.6918 98.1973 41.4778 97.4788 41.1058 96.7992C40.8857 96.3975 40.3177 96.5204 40.1477 96.8531C40.1347 96.8417 40.1247 96.8285 40.1127 96.8172C40.0897 96.7917 40.0798 96.7652 40.0508 96.7406C39.9758 96.6782 39.9157 96.6064 39.8627 96.5308C40.0117 96.4221 40.1207 96.2614 40.1347 96.0723C41.0897 96.2472 42.0957 96.2075 43.1087 95.8889C44.8417 95.3454 46.3617 94.0806 47.2687 92.5881C48.4257 92.865 49.4108 93.4161 50.1498 94.1837C49.8138 94.2659 49.5167 94.6289 49.6957 95.0268C50.3237 96.4287 51.1927 98.1623 50.7187 99.7191C50.3197 101.032 48.6577 102.127 47.3277 101.244C46.6887 100.818 46.0988 101.818 46.7308 102.242ZM29.5857 89.0594C29.9017 89.4574 30.4848 89.3288 30.6838 89.0121C31.9188 89.5755 33.2417 89.9517 34.5487 89.8629C34.5117 89.9971 34.5067 90.137 34.5007 90.2769C34.0547 89.6767 33.0057 90.2202 33.4377 90.8516C34.3127 92.1315 34.5288 93.7044 33.8528 95.1119C33.7788 95.266 33.7837 95.4135 33.8298 95.543C33.2848 95.6366 32.7457 95.7642 32.2297 95.957C29.3337 97.0393 26.7708 99.0168 26.5168 101.811C26.2528 101.923 26.0018 101.946 25.7618 101.916C25.3698 101.556 24.9467 101.284 24.5107 101.179C24.2557 100.909 24.0267 100.6 23.8327 100.294C24.6567 97.8333 24.4398 95.1459 23.0818 92.9851L23.0827 92.9841C23.6897 90.6248 26.6707 85.3823 29.5857 89.0594ZM42.0967 75.4212C41.8957 75.6726 41.7347 75.9401 41.5707 76.2057C41.5407 76.0034 41.4167 75.8097 41.1617 75.7227C39.7737 75.2491 37.6748 71.8944 38.8218 70.5086C38.9998 70.5275 39.1677 70.5701 39.3497 70.5786C43.4547 70.7563 46.3517 67.8808 47.2857 64.3578C47.4587 64.4003 47.6467 64.3653 47.7987 64.1791C47.8747 64.0865 47.9847 64.0241 48.1007 63.9844C48.0147 65.1254 48.3897 66.2719 49.1117 67.2673C49.8467 68.2806 51.3918 70.0483 52.8818 70.4604C52.3818 71.1382 51.9997 71.8632 51.8777 72.5788C51.5557 72.436 51.2257 72.3056 50.8827 72.2044C50.6127 72.125 50.4107 72.2177 50.2997 72.3774C47.2147 71.9539 44.0477 72.9786 42.0967 75.4212ZM62.9227 68.1927C62.6497 67.8789 62.3227 67.6369 61.9747 67.4261C63.8317 66.1831 65.0408 64.198 65.2618 62.1052C65.5038 62.368 65.7787 62.6119 66.0928 62.8265C66.1817 62.887 66.2677 62.9153 66.3517 62.9267C66.2847 62.9825 66.2137 63.0363 66.1487 63.0921C64.5987 64.4315 63.4167 66.2455 62.9227 68.1927ZM60.5077 79.7372C59.2597 80.8054 57.7838 79.742 56.7278 78.7315C56.3578 76.5318 55.0127 74.5128 53.0967 73.2433C52.9017 71.5834 55.4608 69.3715 56.6028 68.671C58.5568 67.4724 61.4108 67.5509 62.4908 69.7666C62.5428 69.8734 62.6147 69.9405 62.6927 69.9897C62.6797 70.6324 62.7238 71.279 62.8868 71.9171C63.1888 73.1043 63.8088 74.1876 64.6448 75.095C62.5868 76.028 61.0427 77.7408 60.5077 79.7372ZM61.1477 66.5914C60.9957 66.6869 60.9167 66.8155 60.8857 66.9497C59.2987 66.4856 57.4077 66.7606 55.9757 67.6341C55.3207 68.033 54.5018 68.6767 53.7618 69.4367C53.7228 69.431 53.6907 69.4169 53.6457 69.4178C52.5437 69.4395 50.7807 67.4601 50.2057 66.6765C49.6877 65.9723 49.3507 65.1736 49.3287 64.3616C49.6607 64.2765 49.9147 63.9542 49.6897 63.5761C49.6327 63.4796 49.5598 63.3974 49.4858 63.318C49.5388 63.1621 49.6037 63.007 49.6857 62.8529C49.7247 62.7792 49.7408 62.7074 49.7488 62.6374C51.9688 61.7763 53.2717 59.2345 53.5647 56.7267C53.7607 56.8335 54.0037 56.8297 54.1977 56.6048C54.7367 55.978 55.6887 55.9781 56.2457 56.5868C56.2567 56.5991 56.2697 56.6019 56.2807 56.6123C56.7907 57.0802 57.3378 57.5084 57.9308 57.8856C59.6178 58.9575 61.6217 59.502 63.6487 59.4566C64.4857 62.1052 63.7127 64.9836 61.1477 66.5914ZM51.6227 73.7622C51.6427 73.7679 51.6587 73.7632 51.6777 73.7669C51.8007 73.8359 51.9057 73.9286 52.0257 74.0042C52.0867 74.146 52.1577 74.2868 52.2507 74.4239C52.4257 74.6829 52.7067 74.7302 52.9497 74.6593C53.8417 75.4126 54.5467 76.3466 55.0087 77.3731C53.4007 76.1424 51.6278 75.0686 49.5458 74.8209C47.2848 74.5515 45.0677 75.2907 43.7727 77.0981C43.3227 77.7267 44.4118 78.3051 44.8608 77.6784C47.6148 73.8369 52.6328 77.0385 55.4078 79.1436C55.4578 79.1965 55.5027 79.2495 55.5547 79.3024C55.6307 80.0114 55.5898 80.7373 55.3918 81.4623C54.4848 84.7821 50.6207 87.1452 47.0547 86.3664C44.6737 85.8465 42.7987 84.0382 42.0547 81.8972C42.0877 81.8017 42.1027 81.6968 42.0697 81.5748C41.9957 81.3007 41.8737 81.0445 41.7717 80.7808C41.6537 79.9877 41.6798 79.1738 41.9128 78.3789C43.0838 74.3766 47.6177 72.6156 51.6227 73.7622ZM42.1947 84.6743C42.9997 85.6442 44.0108 86.3975 45.1318 86.9099C45.1778 86.9968 45.2407 87.0791 45.3437 87.1453C48.7947 89.3732 46.0017 93.5872 43.0027 94.6639C42.1397 94.9739 41.2608 95.059 40.4208 94.9219C40.6408 94.4654 40.0747 93.8906 39.5407 94.1752C39.3767 94.2631 39.2317 94.3708 39.1017 94.4928C38.8137 94.35 38.5317 94.1846 38.2657 93.9776C37.5627 93.4303 35.0417 90.897 35.8837 89.843C35.9667 89.74 35.9837 89.6303 35.9717 89.5254C37.6007 88.8798 38.8298 87.4298 39.8818 86.1272C40.5698 85.2764 41.1147 84.3529 41.3487 83.3869C41.5867 83.8312 41.8567 84.2669 42.1947 84.6743ZM38.4687 95.6914C38.4187 95.6668 38.3768 95.6318 38.3268 95.6082C38.0388 95.473 37.7707 95.56 37.5937 95.7301C36.7817 95.4796 35.9087 95.3823 35.0307 95.4116C35.3967 94.5523 35.5418 93.6326 35.4468 92.7318C35.8368 93.2781 36.2797 93.7715 36.6387 94.1487C37.1917 94.73 37.8267 95.1866 38.5097 95.5269C38.4947 95.5817 38.4787 95.6356 38.4687 95.6914ZM29.5747 98.7965C32.4917 96.5534 37.8947 95.0807 39.9747 99.1066C40.0867 99.3231 40.2718 99.4025 40.4598 99.3959C40.5228 101.805 39.4947 104.078 37.0807 105.419C36.4037 105.795 37.0067 106.794 37.6857 106.42C39.3997 105.475 40.7407 103.863 41.3937 102.059C41.4227 102.622 41.3957 103.19 41.2457 103.751C40.8717 103.858 40.6108 104.301 40.9078 104.66C40.8548 104.773 40.8108 104.888 40.7488 104.998C38.9808 108.176 34.7377 109.382 31.4267 107.658C28.0717 105.913 26.2017 101.39 29.5747 98.7965ZM47.7937 91.5142C48.0837 90.7353 48.2147 89.929 48.0917 89.1463C48.4087 90.05 49.1047 91.0189 49.4317 91.4178C50.5387 92.7686 52.1607 93.676 53.9057 93.6326C53.2777 94.454 52.8567 95.4059 52.6517 96.4098C52.1427 94.0438 50.3027 92.0852 47.7937 91.5142ZM55.2707 92.3045C55.1717 92.2761 55.0628 92.2657 54.9338 92.3026C53.7168 92.6505 52.5318 92.4208 51.5168 91.709C51.2528 91.5237 48.6687 88.4847 49.2847 88.3807C49.7377 88.3041 49.8077 87.909 49.6437 87.6103C50.0947 87.5489 50.5457 87.4562 50.9927 87.3135C54.1237 86.3162 56.6128 83.5967 56.8348 80.432C56.8358 80.4178 56.8327 80.4046 56.8337 80.3904C57.9077 81.1353 59.1677 81.6079 60.3237 81.2203C60.3187 81.9094 60.4067 82.6127 60.6647 83.3217C61.2597 84.956 62.4777 86.1546 63.9577 86.8305C64.1407 87.7001 62.7228 89.1293 62.3608 89.497C61.6228 90.2485 60.8047 90.8176 59.6877 90.8705C59.6567 90.8715 59.6347 90.8847 59.6067 90.8894C58.7257 90.8772 57.8277 91.0161 56.9497 91.3526C56.3257 91.5918 55.7767 91.9273 55.2707 92.3045ZM76.7677 66.531C78.1077 68.516 78.3927 71.0843 77.0647 73.266C76.7377 73.8038 76.3397 74.2755 75.8977 74.6924C75.5837 74.7046 75.3048 74.9429 75.2828 75.2104C72.9598 76.943 69.6458 77.1964 67.0248 75.5242C66.7698 75.3616 66.5367 75.1848 66.3147 75.0005C66.2427 74.8644 66.1237 74.7557 65.9757 74.7056C63.6387 72.5041 63.3857 69.1153 65.0187 66.3296C65.1327 66.1349 65.2697 65.9335 65.4157 65.7313C65.0638 66.4062 64.8457 67.1747 64.8298 68.0311C64.8158 68.7741 66.0327 68.7703 66.0497 68.0283C66.1347 64.0742 71.1497 62.5892 73.7477 65.5923C74.2507 66.1736 75.1138 65.3428 74.6188 64.7652C72.6618 62.4852 69.6397 62.3453 67.4687 63.611C69.3527 62.1156 71.7988 61.1401 73.8037 62.2385C73.7107 62.3907 73.6788 62.5769 73.7798 62.7754C73.8398 62.8926 73.9108 62.9881 73.9858 63.077C73.6298 63.2982 73.4957 63.8426 73.9827 64.0856C74.8407 64.5138 75.5867 65.0951 76.1927 65.7776C76.1847 65.8003 76.1737 65.8192 76.1667 65.8419C76.0187 66.2719 76.3947 66.5404 76.7677 66.531ZM54.7657 55.0243C54.3407 55.1018 53.9447 55.2861 53.6207 55.5659C53.6147 54.8768 53.5367 54.2095 53.3677 53.6083C53.5267 53.6206 53.6838 53.6546 53.8428 53.6593C53.8307 53.733 53.8257 53.8096 53.8437 53.8824C53.9467 54.2993 54.3977 54.6764 54.7657 55.0243ZM94.9808 55.996C95.0068 55.9109 95.0357 55.824 95.0597 55.7399C95.9737 52.5865 94.7297 49.7091 91.5747 48.2486C90.0177 47.5283 87.5618 46.8988 85.8428 47.5217C86.5977 44.7928 86.6857 41.5789 85.2337 39.2563C87.4967 36.4149 90.8548 34.5404 94.4308 33.3711C98.8358 31.9306 103.083 32.338 106.748 35.1936C106.817 35.2475 106.883 35.3137 106.952 35.3694C106.647 35.4961 106.335 35.6171 106.006 35.7268C103.519 36.5539 100.88 36.8818 98.2757 37.1777C97.8717 37.2231 97.4038 37.6721 97.7278 38.0719C99.0068 39.6505 100.638 40.7499 102.611 41.2887C102.418 41.819 102.515 42.44 102.93 42.9457C103.63 43.7993 104.79 43.769 105.827 43.5734C105.986 44.1103 106.296 44.5527 106.765 44.893C105.918 45.8779 105.072 46.8638 104.225 47.8488C102.972 47.0671 102.23 45.6151 102.581 44.1528C102.756 43.4259 101.588 43.1319 101.391 43.8607C100.868 45.7947 101.827 47.6938 103.445 48.7572C102.86 49.4387 102.274 50.1203 101.688 50.8018C101.242 51.3208 100.519 51.8936 100.245 52.525C99.5427 54.1461 102.569 54.1301 104.51 54.0289C103.236 55.4865 101.968 56.9488 100.732 58.4357L100.731 58.4376C100.107 57.9035 99.4067 57.429 98.6507 57.0131C97.7347 56.5112 96.1418 55.8004 94.9808 55.996ZM108.155 45.1576C108.388 44.8863 108.428 44.3882 108.018 44.2152C107.385 44.0413 107.032 43.5857 106.96 42.8474C106.936 42.4655 106.577 42.1687 106.166 42.2708C105.907 42.3464 105.643 42.4022 105.375 42.4381C104.725 42.647 104.277 42.3143 104.029 41.4399C104.49 41.2008 104.426 40.4379 103.874 40.3425C102.189 40.0494 100.709 39.3443 99.5287 38.2251C102.383 37.8838 105.304 37.4178 107.909 36.2722C108.37 37.1872 109.313 38.0852 110.013 38.7289C111.398 40.9011 111.999 43.441 110.648 45.8127C109.754 47.3837 107.92 48.5549 105.983 48.4292C105.79 48.4169 105.609 48.3715 105.426 48.3318C106.335 47.275 107.245 46.2163 108.155 45.1576ZM105.562 12.6189C108.68 12.4638 111.801 13.1255 114.662 14.2759C116.061 14.8383 117.406 15.5199 118.689 16.2884C119.41 16.7204 120.728 17.2185 120.343 18.2583C120.187 18.6808 119.748 19.1308 119.327 19.5467C117.632 16.2524 113.748 14.8393 109.961 14.6805C105.49 14.4933 100.385 15.0321 96.2278 16.6438C95.7368 16.8338 95.2657 17.055 94.8027 17.2875C94.6347 17.3376 94.4687 17.3915 94.3017 17.4454C97.5117 14.8421 101.155 12.8382 105.562 12.6189ZM85.7837 26.0577C86.2507 24.894 86.7768 23.7408 87.3918 22.6065C87.3998 22.5923 87.3988 22.5791 87.4048 22.564C87.3898 22.8022 87.5287 23.0309 87.7387 23.1453C87.0017 24.1076 86.3518 25.1341 85.7748 26.1985C85.7788 26.1522 85.7807 26.1049 85.7837 26.0577ZM85.2757 31.0449C85.3047 30.7584 85.3408 30.4664 85.3738 30.1781C87.0288 25.3723 90.3047 21.044 94.9487 18.5844C100.202 17.2412 105.598 17.2866 110.697 19.5325C116.487 22.0828 120.725 27.0105 122.512 32.7444C122.309 32.8182 122.154 32.9893 122.168 33.2643C122.211 34.1311 122.111 35.0301 121.872 35.8893C121.701 36.4281 121.143 36.8715 120.518 36.7316C120.321 36.6871 120.166 36.5832 120.032 36.4556C120.381 36.3591 120.658 36.0084 120.421 35.6256C119.678 34.4251 118.935 33.2237 118.191 32.0223C117.643 31.1365 117.168 29.9805 116.371 29.2583C114.814 27.848 113.645 29.5948 112.73 30.7518C111.46 32.3559 110.132 33.6406 108.474 34.6085C108.329 34.4705 108.069 34.4582 107.892 34.5669C107.551 34.289 107.205 34.0187 106.851 33.7691C103.251 31.2301 99.0747 30.7669 94.8307 31.9958C91.0677 33.0857 87.0577 35.0651 84.5737 38.0927L85.2757 31.0449ZM81.4577 38.6003C76.4627 37.1219 71.1737 39.8245 69.9357 44.8249C69.7557 45.5518 70.9427 45.8477 71.1257 45.117C72.2617 40.5835 77.2867 38.1041 81.8417 39.988C81.9007 40.0126 81.9567 40.0154 82.0147 40.0239C82.0197 40.074 82.0317 40.1213 82.0347 40.1733C82.0657 40.7092 82.7178 40.8482 83.0428 40.5826C82.9508 41.127 83.7437 41.5278 84.0627 40.9597C84.1847 40.7423 84.3327 40.5457 84.4667 40.3377C85.9007 43.2378 84.9797 47.6181 83.4657 50.0456C80.9687 54.0469 76.0818 53.2094 72.8188 50.6108C71.2058 49.3262 69.7838 47.5189 69.2828 45.6397C69.4608 45.4582 69.5407 45.2058 69.3587 44.9799C69.2777 44.8788 69.1927 44.7767 69.1097 44.6737C68.9897 43.269 69.4477 41.8662 70.8077 40.6525C71.3867 40.1355 72.0677 39.6307 72.7817 39.1562C73.1057 39.3046 73.5677 39.2318 73.7087 38.8083C73.7397 38.7147 73.7527 38.6259 73.7777 38.5342C74.7048 38.0095 75.6767 37.5709 76.6357 37.3327C78.3137 36.9168 80.4477 37.294 81.4577 38.6003ZM66.7917 33.546C69.4067 33.5271 72.9527 34.9895 72.6347 37.7799C70.3477 39.108 68.3357 40.9852 67.8767 43.3399C67.1457 42.6688 66.2977 42.1375 65.2597 42.0421C64.9927 42.0175 64.7267 42.0383 64.4657 42.0723C64.4317 41.4635 64.2548 40.8595 63.9417 40.3245C63.9497 40.2498 63.9397 40.1676 63.9027 40.0768C63.4297 38.9331 62.6487 38.0597 61.6907 37.4093C62.1267 35.1171 64.1587 33.5649 66.7917 33.546ZM49.9477 38.9567C52.5427 37.2401 57.3477 36.2958 60.4057 37.8876C60.3987 38.1447 60.4048 38.4056 60.4338 38.6741C60.4418 38.7431 60.4667 38.7998 60.4927 38.8556C60.4607 39.0191 60.4717 39.1911 60.6047 39.3518C61.5347 40.4682 62.1227 41.7972 62.3697 43.1735C62.1777 43.425 62.0277 43.7123 61.9457 44.0403C61.8447 44.4449 62.1608 44.7086 62.4988 44.7512C62.4658 46.9168 61.5767 49.0502 59.7527 50.5324C56.2607 53.371 50.8147 53.0837 48.0207 49.5304C45.2677 46.0301 46.2157 41.4257 49.9477 38.9567ZM38.7828 49.2185C40.6838 47.9547 42.9387 46.6805 45.3047 47.518C45.4057 47.5539 45.4967 47.5605 45.5798 47.5501C46.4007 49.9908 48.3077 52.1176 50.8387 53.0799C51.2267 53.2273 51.6277 53.3247 52.0307 53.4145C52.0317 53.4164 52.0307 53.4183 52.0317 53.4202C52.6347 55.185 52.6478 57.0547 51.8398 58.7704C51.0998 60.3414 49.5347 61.9521 47.5857 61.7621C47.5627 61.0078 47.4547 60.2544 47.2427 59.5332C47.4627 59.4188 47.6147 59.1995 47.5317 58.9018C46.3937 54.822 42.1677 53.2774 38.1357 54.6206C37.0367 52.6328 36.3458 50.8377 38.7828 49.2185ZM35.2417 57.7362C36.0177 56.9867 36.9737 56.4157 37.9887 56.0102C38.0837 55.9979 38.1717 55.9648 38.2517 55.9156C38.9387 55.6661 39.6437 55.4742 40.3507 55.4062C40.4487 55.547 40.6057 55.6519 40.8377 55.6567C45.7567 55.7587 47.1318 61.0711 45.8608 64.7614C44.8958 67.5651 42.2267 69.4159 39.4227 69.3998C39.2717 69.156 38.9517 69.0019 38.6047 69.1701C38.5237 69.2089 38.4637 69.2599 38.3907 69.3034C37.4187 69.1342 36.4537 68.7381 35.5597 68.0575C32.1767 65.4817 32.3267 60.5494 35.2417 57.7362ZM31.0497 75.3436C28.1527 73.0381 32.6157 67.9564 35.3837 69.8413C35.6437 70.019 35.9308 69.9141 36.1058 69.7137C36.5418 69.9282 36.9937 70.1192 37.4767 70.2543C36.3987 72.4067 38.8297 76.1622 40.8567 76.8381C40.9987 76.8854 41.1177 76.8721 41.2237 76.8353C40.9297 77.4346 40.7297 78.0584 40.6097 78.6917C38.7977 76.3314 35.7817 74.8237 32.6117 75.1319C32.1067 75.1811 31.6038 75.2784 31.1108 75.4164C31.0878 75.3928 31.0767 75.3654 31.0497 75.3436ZM33.7107 76.2879C34.7067 76.3267 35.6497 76.5706 36.5157 76.9591C32.5007 75.6821 28.3767 78.2012 27.9627 82.3216C27.8867 83.0759 29.1318 83.0664 29.2068 82.3187C29.5578 78.8269 33.3198 76.8088 36.6708 78.2692C37.2438 78.5188 37.7407 77.927 37.5527 77.5139C38.6897 78.2465 39.6257 79.2608 40.2517 80.4358C40.0157 80.5842 39.8598 80.8706 40.0068 81.1816C40.9448 83.1695 39.2867 85.0175 37.9927 86.4344C36.6107 87.9478 35.1647 89.032 32.9447 88.5187C31.0447 88.0801 29.1987 86.9401 27.7287 85.7538C26.1027 84.4408 25.5097 83.0116 26.2757 81.054C27.3827 78.2258 30.4997 76.1632 33.7107 76.2879ZM17.3587 84.6602C18.1407 83.6156 19.5907 82.9246 20.8887 82.624C22.4347 82.2658 23.6167 82.7394 24.7287 83.6743C25.0197 84.9277 25.9338 85.8966 27.0038 86.7331C26.5568 86.7596 26.1057 86.8579 25.6667 87.0498C23.7927 87.8655 22.7357 89.9092 22.1397 91.7742C21.6617 91.2675 21.1147 90.8015 20.4757 90.4045C20.0567 90.1436 19.6697 90.4423 19.5967 90.8062C19.4637 90.707 19.3108 90.6351 19.1708 90.5453C19.1488 90.5236 19.1387 90.5 19.1117 90.4801C17.2947 89.1539 15.8387 86.6906 17.3587 84.6602ZM11.2167 92.3007C13.1147 90.6512 15.8757 90.3109 17.9657 91.2193C14.2327 91.0681 10.8247 93.8226 10.4457 97.4193C10.3667 98.167 11.6007 98.1566 11.6797 97.4165C12.0267 94.1771 15.5207 91.8394 18.8677 92.4482C19.1397 92.4973 19.3517 92.3848 19.4767 92.2166C20.1797 92.9047 20.6787 93.8264 20.8417 94.9843C20.9317 95.6243 22.1227 95.4825 22.0357 94.8359C21.9237 94.0003 21.6287 93.2252 21.1997 92.5342C22.9867 94.4209 23.4037 96.9873 22.7647 99.3892C22.4317 99.4942 22.1647 99.8411 22.3747 100.224C22.3967 100.264 22.4267 100.307 22.4497 100.348C22.0677 101.321 21.5148 102.248 20.8008 103.064C19.4318 104.631 17.3567 106.238 15.0797 106.145C14.9267 106.138 14.7797 106.109 14.6307 106.088C14.6227 106.067 14.6227 106.048 14.6147 106.027C14.4287 105.536 13.8237 105.528 13.5497 105.821C12.1307 105.273 10.9697 104.114 10.2007 102.894C8.15572 99.6567 8.13771 94.9767 11.2167 92.3007ZM10.5867 111.464C8.61671 112.299 5.30276 112.552 3.47776 111.291C1.93476 110.225 0.99472 107.014 1.31272 105.226C1.70172 103.045 6.36274 100.556 8.31974 102.301C5.95974 102.547 3.88773 103.869 2.87473 105.94C2.54873 106.606 3.59674 107.181 3.93674 106.507C4.86374 104.673 6.64573 103.485 8.80973 103.39C8.88773 103.386 8.95272 103.365 9.01572 103.34C9.89272 104.818 11.1407 106.066 12.7517 106.781C12.9807 106.882 13.2087 106.959 13.4377 107.029C13.4027 107.053 13.3658 107.069 13.3318 107.104C12.7448 107.718 12.7618 108.471 13.0978 109.233C12.5998 110.194 11.7237 110.983 10.5867 111.464ZM23.7577 111.677C21.9967 112.677 19.8327 112.844 17.9417 112.066C17.1487 111.74 16.4068 111.261 15.7958 110.683C15.5998 110.498 15.0207 109.892 14.5947 109.277C14.8497 108.666 14.9708 108.004 14.9048 107.295C18.1528 107.461 21.2027 104.972 22.8457 102.392C22.8607 102.37 22.8707 102.345 22.8847 102.321C23.0387 102.589 23.3687 102.761 23.6877 102.546C23.8437 102.441 24.0027 102.414 24.1617 102.42C24.4817 102.674 24.8227 102.885 25.1857 103.013C25.6607 103.524 26.0408 104.216 26.1838 104.522C26.5648 105.342 26.7427 106.227 26.7057 107.124C26.6237 109.033 25.4717 110.703 23.7577 111.677ZM32.9917 115.122C32.1647 116.084 31.2367 117.271 29.9027 117.587C26.7817 118.328 25.0067 115.15 23.5437 113.107C24.0877 112.881 24.6148 112.609 25.1028 112.261C27.1188 110.825 28.1447 108.534 27.9277 106.219C29.3397 108.122 31.6177 109.467 34.0777 109.663C34.2717 109.678 34.4638 109.663 34.6578 109.664C34.6598 109.831 34.6878 109.999 34.7538 110.168C34.6348 110.285 34.5667 110.448 34.6267 110.655C35.1297 112.392 34.1067 113.826 32.9917 115.122ZM42.7937 110.912C41.6437 111.515 40.3727 111.826 39.0597 111.643C38.7637 111.601 35.1118 110.294 35.9938 109.613C36.0188 109.594 36.0277 109.571 36.0477 109.55C38.5097 109.12 40.7378 107.582 41.8868 105.467C43.0758 106.255 44.4457 106.573 45.8177 106.542C45.8777 106.946 45.8327 107.337 45.7287 107.716C45.3917 107.674 45.0337 107.85 45.0627 108.262C45.0787 108.485 45.1177 108.691 45.1637 108.891C44.5757 109.732 43.6907 110.441 42.7937 110.912ZM54.4787 110.598C52.2557 111.112 47.5417 111.385 46.5017 109.051C46.9517 108.237 47.1897 107.353 47.0267 106.432C49.9857 105.917 52.7108 103.817 53.3738 101.095C54.3948 102.997 56.2237 104.498 58.4197 105.027C58.4207 105.03 58.4197 105.031 58.4217 105.033C59.6467 107.676 56.9677 110.022 54.4787 110.598ZM64.6127 102.567C62.4497 104.204 59.2507 104.577 56.8727 103.112C53.9487 101.309 52.7767 97.3815 54.7267 94.5448C57.1307 91.0492 62.4617 91.4434 64.6507 94.8851C64.7017 94.9645 64.7627 95.025 64.8298 95.0694C64.5727 95.0949 64.3497 95.2584 64.3827 95.5779C64.6167 97.8069 63.8227 99.8524 62.1457 101.43C61.6007 101.943 62.4387 102.731 62.9927 102.227C64.8957 100.496 65.8138 98.0536 65.5277 95.5751C65.5047 95.3738 65.3848 95.2376 65.2358 95.1545C65.6278 95.1062 65.9807 94.7244 65.7187 94.3085C65.4987 93.9587 65.2498 93.6326 64.9778 93.3301C67.1158 95.4636 67.7367 98.8712 65.8487 101.375C65.6867 101.591 65.4887 101.776 65.2997 101.968C64.8647 101.847 64.5897 102.203 64.6127 102.567ZM66.6727 102.299C66.8527 102.081 67.0337 101.864 67.1857 101.627C69.2287 98.4477 68.1927 94.1288 65.1867 91.8526C64.6057 91.4121 63.8097 92.0928 64.1847 92.5805C63.8817 92.3291 63.5547 92.1126 63.2167 91.916C63.6167 90.3421 65.5567 89.7145 66.9357 90.69C66.9827 91.5483 67.1447 92.4075 67.4817 93.2261C68.3907 95.4361 70.2487 96.9873 72.4897 97.5923C72.3707 100.629 69.6777 102.683 66.6727 102.299ZM81.1957 92.141C80.2787 95.6876 75.6288 97.6074 72.1448 96.2784C68.5148 94.8926 67.0937 90.2457 68.9717 87.0942C69.1207 87.045 69.2698 86.9978 69.4178 86.9382C69.7948 86.7851 69.8118 86.4514 69.6448 86.1971C70.7458 84.9749 72.3048 84.2707 73.9598 84.0712C74.0378 84.4087 74.4447 84.7178 74.8897 84.5401C75.1837 84.4229 75.4567 84.2849 75.7167 84.1346C75.7737 84.2858 75.8827 84.4201 76.1047 84.4711C79.5737 85.2708 82.0657 88.7777 81.1957 92.141ZM81.9648 87.4789C81.9008 87.4468 81.8397 87.4373 81.7787 87.4269C81.3777 86.6556 80.8477 85.9448 80.2127 85.336C80.4647 85.1186 80.5787 84.7301 80.2687 84.5014C79.3137 83.7962 78.2128 83.3311 77.0667 83.0636C79.0677 80.9282 79.1167 77.565 76.9227 75.3607C76.9467 75.337 76.9737 75.3162 76.9967 75.2926C78.9097 77.5622 82.0957 78.0688 84.6137 76.8192C84.7447 78.9328 85.6638 80.9897 87.2878 82.486C87.0488 82.5484 86.8547 82.7261 86.8677 83.0324C86.9627 85.2008 84.7878 88.8826 81.9648 87.4789ZM100.597 74.5458C101.904 78.7636 98.8897 83.0494 94.2847 83.6062C89.5827 84.1743 85.6827 80.3403 85.8517 76.0138C86.2277 75.701 86.5767 75.3418 86.8857 74.9287C87.2417 74.4532 86.6918 74.0042 86.2018 74.0874C86.7498 72.4833 87.8907 71.1769 89.3417 70.2865C89.5687 70.5682 90.0797 70.6495 90.3597 70.2572C90.4007 70.1995 90.4207 70.1362 90.4587 70.0785C91.1497 69.8167 91.8627 69.6626 92.5747 69.5936C90.2927 70.7393 88.5457 72.7357 87.8857 75.1848C87.6927 75.9004 88.8527 76.1868 89.0617 75.4731C89.9207 72.539 92.3688 70.4236 95.4858 69.8328C97.8398 70.4595 99.8437 72.1146 100.597 74.5458ZM101.279 67.0357C100.806 67.8156 100.099 68.6493 99.1158 68.8535C98.2128 69.0406 97.2387 68.6077 96.4407 68.2778C96.0547 68.118 95.7048 68.3336 95.5688 68.6153C95.4488 68.5879 95.3307 68.5529 95.2087 68.5302C95.2127 68.2353 95.0157 67.9177 94.6177 67.8808C93.4597 67.7749 92.3057 67.9044 91.2048 68.1975C91.5508 66.0952 90.5497 63.8417 88.7217 62.5419C88.1767 62.1544 87.4397 63.06 87.9887 63.456C88.2017 63.6101 88.3957 63.7755 88.5737 63.9504C88.1727 63.7358 87.7607 63.5572 87.3337 63.4182C87.4697 63.2159 87.4787 62.9588 87.2187 62.7565C83.7037 60.0247 78.7847 61.0579 76.7267 64.6291C76.3167 64.2283 75.8797 63.8512 75.3887 63.5345C77.0107 63.3303 79.1748 61.5872 79.8167 60.8632C80.5078 60.0852 81.1068 59.087 81.4338 58.0472C83.1268 60.3745 85.8277 62.4928 88.8567 62.4068C90.2287 62.3671 91.3467 61.7489 92.2568 60.8566C92.5267 61.0106 92.8808 60.9908 93.0428 60.6391C93.5218 59.5927 94.8697 59.4311 95.8677 59.9141C96.8837 60.4057 97.6107 61.349 98.2897 62.1846C98.7007 62.6904 99.6437 62.0154 99.2417 61.4955C98.2477 60.2109 97.0917 58.7807 95.3147 58.5199C94.8447 58.4508 94.3637 58.4745 93.9097 58.5803C93.9847 58.4395 94.0637 58.3006 94.1327 58.1588C94.4137 58.2145 94.7127 58.1068 94.7777 57.758C95.0537 56.2862 97.5177 57.7561 98.0317 58.0397C98.8037 58.465 99.5657 58.9301 100.201 59.5313C101.005 60.2922 101.57 61.2167 101.868 62.2319C101.907 62.8492 101.963 63.4683 102.058 64.0903C102.066 64.1442 102.087 64.1839 102.106 64.2273C102.066 65.2076 101.795 66.185 101.279 67.0357ZM118.901 90.7476C118.543 90.3752 118.003 90.6333 117.84 91.0218C117.503 91.8214 117.286 92.6278 117.161 93.4511C116.468 92.3546 115.775 91.259 115.083 90.1635C114.894 89.8648 114.346 89.7192 114.083 90.0378C112.665 91.761 111.565 93.6231 110.749 95.6366C109.832 93.8349 109.336 91.9217 109.316 89.878C109.311 89.3477 108.63 89.1048 108.233 89.4574C108.08 89.5935 107.927 89.7296 107.774 89.8657C107.78 89.4574 107.815 89.0481 107.889 88.6265C107.977 88.1264 107.468 87.6982 106.962 87.9563C106.227 88.3306 105.541 88.755 104.878 89.2106C105.76 85.9892 107.086 82.9209 108.908 80.0511C109.291 79.448 108.426 78.9054 107.908 79.3355C106.905 80.1664 105.903 80.9982 104.9 81.8291C104.636 77.6302 104.541 73.265 106.053 69.2722C106.937 66.9374 108.435 65.0611 110.354 63.3946C111.891 62.0599 113.433 60.8159 114.41 59.1173C114.569 58.9831 114.731 58.8564 114.884 58.7089C115.124 58.4783 115.097 58.2004 114.952 57.9905C115.201 57.3042 114.081 57.0623 113.804 57.7135C113.726 57.8969 113.624 58.0614 113.532 58.2344C112.901 58.7666 112.234 59.2203 111.473 59.5559C111.41 59.4689 111.338 59.3848 111.252 59.3073C110.474 58.6068 109.107 58.7911 108.151 58.9528C106.074 59.3054 104.305 60.4208 103.107 61.9805C103.039 60.745 103.082 59.5077 103.259 58.2722C103.295 58.0227 103.192 57.7911 103.016 57.654C104.115 56.3562 105.209 55.0545 106.337 53.7794C106.68 53.3918 106.466 52.767 105.887 52.7604C104.762 52.7481 103.604 52.8067 102.482 52.7216C101.649 52.6592 101.706 52.7651 102.182 52.1062C102.529 51.626 102.988 51.1685 103.376 50.7167C103.778 50.2488 104.179 49.7819 104.581 49.314C105.091 49.4907 105.625 49.6174 106.193 49.624C109.692 49.6609 112.271 46.7986 112.579 43.6707C112.685 42.5941 112.549 41.5571 112.25 40.5674C113.379 41.2887 114.651 41.7774 116.06 41.801C118.843 41.8483 120.943 40.3661 122.173 38.3177C122.385 38.4813 122.592 38.6467 122.797 38.8149C122.853 41.6838 122.437 44.5385 121.827 47.3629C121.733 47.4253 121.665 47.5142 121.62 47.6172C121.516 47.6352 121.412 47.6711 121.315 47.7533C118.613 50.0579 116.247 52.7018 114.411 55.6775C114.014 56.3202 115.057 56.8713 115.473 56.2446C117.165 53.6962 119.114 51.385 121.39 49.3035C121.276 49.7818 121.161 50.2592 121.044 50.7356C120.532 52.8152 120.054 54.8919 119.634 56.9772C119.195 57.1284 118.794 57.3789 118.478 57.706C118.324 57.7287 118.176 57.8071 118.069 57.965C116.274 60.6268 114.766 63.4201 113.553 66.3608C113.27 67.0471 114.438 67.3212 114.724 66.6482C115.678 64.4032 116.799 62.2395 118.079 60.1523C118.426 60.3197 118.964 60.124 118.963 59.6702C118.962 59.2581 119.097 58.88 119.33 58.5851C118.949 60.6741 118.633 62.7745 118.458 64.9051C118.423 65.3333 118.408 65.7625 118.381 66.1916C118.306 66.22 118.233 66.2653 118.165 66.3391C115.577 69.1843 113.889 72.5901 113.227 76.2898C113.097 77.0168 114.274 77.3183 114.412 76.581C115.003 73.4323 116.306 70.5502 118.281 67.9895C118.182 70.813 118.26 73.6393 118.51 76.4524C116.549 78.6341 115.449 81.64 115.979 84.4947C116.09 85.0931 117.08 84.9456 117.076 84.3586C117.058 82.0626 117.473 80.0293 118.695 78.1407C119.309 83.5315 120.539 88.8581 122.405 93.9937C122.566 94.4361 123.062 94.5221 123.405 94.2669C123.478 95.0401 123.551 95.8133 123.625 96.5865C122.227 94.5192 120.653 92.5729 118.901 90.7476Z" fill="#4b9097"/>
</svg>
