<svg width="38" height="30" viewBox="0 0 38 30" fill="none" xmlns="http://www.w3.org/2000/svg">
<path d="M3.35231 4.37947C1.82631 5.09503 1.10235 6.63204 1.43135 8.10475C0.989349 8.10854 0.596349 8.27961 0.306349 8.71727C-0.853651 10.4736 2.14131 13.3179 3.18031 14.49C7.17931 18.9989 12.4183 22.4746 17.7683 25.4078C17.8943 25.4768 18.0213 25.4862 18.1383 25.4654C20.7353 27.2095 23.6523 28.4742 26.7803 29.1529C28.2153 29.4639 29.9213 29.894 31.3823 29.4828C31.8493 29.3524 32.3233 29.1539 32.6453 28.7947C33.1443 28.2379 32.9193 27.8503 32.9133 27.2246C32.9023 26.0676 33.3733 26.2944 33.9713 25.5685C34.3503 25.1091 34.2953 24.8246 34.3064 24.2876C34.3254 23.3915 34.2393 23.3216 34.9863 22.8868C35.2513 22.7327 35.5683 22.5975 35.8123 22.4113C36.3033 22.0379 36.6583 21.5606 36.8693 20.9991C37.9993 17.9818 34.5683 14.9825 32.6243 13.0475C27.6143 8.05939 21.3103 4.10158 14.2923 2.16946C12.6063 1.70534 10.8823 1.35463 9.14131 1.13722C7.66631 0.952897 5.63233 0.549266 4.27333 1.35274C3.08933 2.05412 2.98231 3.19883 3.35231 4.37947ZM5.66231 2.01536C6.45331 1.89436 7.32129 2.01821 8.10829 2.09477C9.76029 2.25547 11.3993 2.53527 13.0053 2.93417C18.9423 4.405 24.3843 7.36273 28.9723 11.1863C31.2543 13.0882 33.9833 15.4258 35.4153 18.0073C35.8193 18.7352 36.0623 19.5093 35.8753 20.3308C35.6483 21.3261 34.9753 21.6069 34.1653 22.1107C33.1593 22.7365 33.1533 23.1004 33.0753 24.1099C32.9843 25.2934 32.6833 24.9739 32.0303 25.7159C31.7543 26.0298 31.6503 26.3039 31.6093 26.6943C31.5793 26.9845 31.7023 26.9854 31.7033 27.1801C31.7053 28.4723 31.1863 28.5584 30.1403 28.5631C29.2263 28.5678 28.2623 28.3759 27.3713 28.1963C23.5393 27.4259 19.9933 25.7188 16.9843 23.3632C16.7543 23.1826 16.5143 23.2431 16.3543 23.3953C13.2403 21.4991 10.1853 19.5216 7.44032 17.1538C5.73932 15.6867 4.16935 14.0807 2.80635 12.3253C2.45135 11.8688 0.285299 9.42527 1.8553 9.25134C1.8833 9.24851 1.91731 9.25607 1.95131 9.26363C2.01231 9.35438 2.05432 9.45176 2.12532 9.53967C2.28832 9.74006 2.50829 9.77407 2.69929 9.71168C2.87929 9.84969 3.04434 9.98298 3.15034 10.051C3.71034 10.4131 4.27032 10.777 4.83632 11.1315C5.42932 11.503 6.06929 10.6702 5.48329 10.2798C4.93129 9.91209 3.82633 8.9706 2.73433 8.45259C2.12433 7.2937 2.56433 6.00154 3.73933 5.32946C4.31333 6.47984 5.19432 7.55839 5.81532 8.17376C12.4423 14.7528 22.1113 18.047 30.8903 21.1626C31.5683 21.4027 31.9613 20.4045 31.2803 20.1635C24.5473 17.7738 17.7063 15.3474 11.7533 11.4548C9.23631 9.80812 6.01929 7.72193 4.78529 4.95609C4.34429 3.96829 4.18631 2.24128 5.66231 2.01536Z" fill="#4b9097"/>
<path d="M9.6043 14.6933C15.0663 19.3535 21.6093 22.8963 28.6733 24.8738C29.3323 25.0581 29.7133 24.1185 29.0463 23.9172C22.0623 21.8159 15.7203 18.463 10.2533 13.8369C9.71928 13.386 9.0773 14.2443 9.6043 14.6933Z" fill="#4b9097"/>
<path d="M28.4403 15.0251C29.5203 15.6206 30.4443 16.3617 31.2173 17.2919C31.6223 17.7787 32.4093 17.1756 32.0083 16.6888C31.1853 15.6896 30.1993 14.8691 29.0303 14.2491C28.4713 13.9522 27.8733 14.7132 28.4403 15.0251Z" fill="#4b9097"/>
<path d="M23.8593 10.5133C24.9153 10.8214 25.8173 11.3073 26.5293 12.1164C26.9553 12.6004 27.7583 11.9869 27.3333 11.502C26.4843 10.5341 25.3823 9.86672 24.0703 9.63229C23.5363 9.53776 23.3393 10.3611 23.8593 10.5133Z" fill="#4b9097"/>
<path d="M16.0883 6.54597C17.0443 6.55164 17.8993 6.81066 18.6173 7.41563C19.1383 7.85423 19.7703 7.01673 19.2513 6.58096C18.3653 5.83799 17.2293 5.48257 16.0543 5.63192C15.5173 5.69998 15.5253 6.54219 16.0883 6.54597Z" fill="#4b9097"/>
<path d="M8.55529 4.6185C9.79529 4.46915 10.9563 4.71494 11.9783 5.40404C12.5503 5.78971 13.1853 4.95407 12.6143 4.56557C11.3853 3.72996 9.87732 3.36225 8.37932 3.60802C7.69032 3.72239 7.86529 4.70169 8.55529 4.6185Z" fill="#4b9097"/>
<path d="M16.8733 9.48682C17.7843 9.6702 18.5443 10.1466 19.0993 10.848C19.5093 11.366 20.3313 10.7346 19.9243 10.2184C19.1943 9.29208 18.1723 8.70791 16.9693 8.51885C16.3073 8.41393 16.2393 9.35921 16.8733 9.48682Z" fill="#4b9097"/>
</svg>
