<svg width="114" height="100" viewBox="0 0 114 100" fill="none" xmlns="http://www.w3.org/2000/svg">
<path d="M105.973 84.548C106.271 83.6084 106.529 82.6575 106.802 81.7113C106.966 81.1422 106.036 80.8984 105.868 81.4665C105.589 82.4117 105.296 83.3532 105.043 84.3041C104.891 84.8741 105.794 85.1114 105.973 84.548Z" fill="#4b9097"/>
<path d="M80.3913 93.7945C87.4383 88.5824 91.8504 79.6893 90.1504 71.303C91.9704 70.5723 93.4904 69.2536 94.4404 67.6079C94.9474 66.7298 95.2904 65.7741 95.4334 64.7825C95.6224 63.4705 95.3374 62.1471 95.7254 60.871C98.3164 61.4476 100.858 62.2407 103.241 63.3041C105.14 64.152 106.537 65.4064 107.103 67.3565C107.581 69.0031 107.465 70.7897 107.064 72.4382C106.191 76.0217 103.76 79.3859 103.682 83.1339C103.653 84.5026 104.329 85.5736 105.514 86.3298C106.467 86.9367 108.275 87.8895 109.425 87.3913C109.917 87.1786 110.245 86.8213 110.465 86.4016C110.469 86.3912 110.477 86.3856 110.481 86.3752C110.482 86.3714 110.484 86.3676 110.485 86.3648C110.6 86.1379 110.691 85.8988 110.741 85.6435C113.262 78.5418 115.542 69.9493 110.22 63.497C107.802 60.5657 104.357 58.6913 100.607 57.6231C104.536 55.4131 106.534 50.6329 105.372 46.4482C110.136 41.5244 111.102 34.0228 109.088 27.6659C106.301 18.8683 97.9194 12.8678 89.5254 9.03567C79.4354 4.42846 68.2584 1.74297 57.1304 0.704129C51.2734 0.156822 45.3674 0.0887668 39.4984 0.51319C34.4654 0.877116 29.1873 1.38377 24.5423 3.38016C19.7223 5.45123 16.5144 9.34289 15.3724 14.2082C15.1394 15.1988 14.9923 16.1998 14.8963 17.2056C14.5463 17.8162 14.2934 18.4694 14.1314 19.1462C14.0734 19.1954 14.0304 19.2615 14.0144 19.3504C13.4124 22.6872 10.0014 24.4463 8.46739 27.3284C7.87239 28.4467 7.6264 29.6878 7.6754 30.9166C7.4424 30.8996 7.17935 31.0291 7.15135 31.3127C7.09535 31.8713 6.91136 32.4054 6.62236 32.8818C6.53436 32.8714 6.44137 32.879 6.34337 32.931C-1.81163 37.2801 -0.810635 48.0986 2.20536 55.0841C4.32936 60.0052 7.47139 64.4479 10.9544 68.5957C14.5234 72.8456 18.3904 76.9112 22.4244 80.7688C30.2384 88.243 39.3564 94.9837 50.2074 97.897C60.2164 100.585 71.9323 100.05 80.3913 93.7945ZM93.9404 66.4453C93.1624 68.2091 91.7324 69.5618 89.9404 70.3775C89.7594 69.6771 89.5484 68.9795 89.2774 68.2914C89.5084 68.2772 89.7394 68.1344 89.7644 67.8565C89.9984 65.2334 90.2084 62.6084 90.4244 59.9844C91.8784 60.1498 93.3394 60.3814 94.7894 60.6735C94.1934 62.5536 94.7704 64.5651 93.9404 66.4453ZM92.6404 57.3858C92.7334 57.5503 92.9154 57.6581 93.1604 57.5787C93.3044 57.5324 93.4464 57.4775 93.5894 57.4284C95.3274 57.5229 97.0903 57.7394 98.8103 58.1232C98.9164 58.2517 99.0824 58.3273 99.2744 58.2555C99.2844 58.2517 99.2934 58.247 99.3024 58.2432C103.244 59.197 106.914 61.0071 109.441 64.0641C114.088 69.6865 112.539 76.9878 110.491 83.3957C109.767 81.6801 108.005 80.6866 106.384 79.8198C105.825 79.5211 105.321 80.333 105.88 80.6318C106.925 81.1904 108.021 81.7585 108.823 82.6234C109.193 83.0233 109.584 83.7946 109.741 84.5442C109.528 84.3882 109.21 84.3722 109.055 84.6633C108.901 84.9526 108.748 85.2408 108.602 85.5329C108.789 84.893 108.966 84.2502 109.144 83.6093C109.302 83.0412 108.375 82.7973 108.214 83.3654C107.99 84.1528 107.753 84.9374 107.551 85.7296C107.431 86.2012 108.025 86.4376 108.33 86.1852C108.329 86.2986 108.384 86.396 108.472 86.464C108.347 86.4621 108.226 86.465 108.079 86.4432C107.69 86.3865 107.239 86.2201 106.803 86.0018C106.861 85.9517 106.912 85.8903 106.941 85.8033C107.299 84.7616 107.6 83.7001 107.924 82.648C108.097 82.0856 107.174 81.8445 106.998 82.4051C106.67 83.4496 106.319 84.4903 106.024 85.5433C105.763 85.3637 105.527 85.1747 105.349 84.9894C104.448 84.0555 104.639 82.8087 104.88 81.6696C105.71 77.7496 108.187 74.273 108.384 70.2121C108.56 66.5823 106.873 63.8108 103.34 62.3239C99.2894 60.6187 94.9584 59.5685 90.5594 59.0854C90.6964 58.954 90.8424 58.8331 90.9814 58.7045C93.3164 58.9077 95.5564 59.4342 97.7243 60.285C98.3083 60.5137 98.5664 59.6138 97.9874 59.3879C96.0213 58.6204 93.9844 58.1335 91.8894 57.883C92.0784 57.7167 92.2584 57.5409 92.4494 57.3774C92.5154 57.3792 92.5784 57.384 92.6404 57.3858ZM53.5104 97.7022C42.9004 95.6085 33.7854 89.711 26.0154 82.7784C22.2014 79.3755 18.6464 75.7145 15.2144 71.9694C11.7094 68.1458 8.3654 64.153 5.7144 59.7452C3.0384 55.2959 0.960351 50.3654 0.966351 45.1797C0.970351 41.2351 2.20837 37.2385 5.37437 34.6731C5.48437 34.8744 5.72337 34.9964 5.96837 34.8224C6.90937 34.156 7.54835 33.2694 7.85435 32.24C8.13935 33.4925 8.73634 34.6816 9.66734 35.6448C10.0963 36.0891 10.7464 35.4454 10.3564 34.9964C7.89037 32.1483 8.29536 28.6225 10.6794 25.884C12.1614 24.1816 13.9764 22.6238 14.6604 20.5055C14.6984 20.4856 14.7284 20.4573 14.7564 20.427C14.7854 23.4594 15.2044 26.506 15.6734 29.476C15.6734 29.4789 15.6754 29.4808 15.6764 29.4836C14.8444 31.308 13.5534 32.9414 11.8634 34.2524C11.3864 34.622 12.0604 35.2365 12.5334 34.8877C15.9534 32.3666 17.8384 28.3238 17.6704 24.2459C17.6474 23.6731 16.7034 23.6684 16.7254 24.244C16.7684 25.3651 16.6334 26.4559 16.3674 27.5071C15.8994 24.227 15.5783 20.6756 15.9143 17.2992C15.9353 17.2623 15.9514 17.2254 15.9734 17.1886C16.0664 17.0269 16.0424 16.8776 15.9654 16.7604C16.5284 12.139 18.4074 7.89759 22.9964 5.21588C27.1494 2.78844 32.2194 2.12393 36.9864 1.66358C42.3094 1.15031 47.6754 1.04441 53.0154 1.33839C63.9074 1.93769 74.7164 4.21012 84.8274 8.09231C93.3684 11.3714 102.091 16.2858 106.543 24.2289C110.273 30.8854 110.167 40.2463 104.595 45.8886C104.513 45.9302 104.448 45.9917 104.407 46.0701C103.792 46.6704 103.134 47.2404 102.388 47.7442C101.877 48.0892 102.367 48.8974 102.883 48.5486C103.499 48.1327 104.059 47.6714 104.592 47.1912C105.44 51.2766 103.131 55.3469 99.2614 57.2753C98.0604 56.9983 96.8394 56.8073 95.6174 56.6778C96.9314 56.1476 98.2144 55.5511 99.4464 54.8601C99.9524 54.5756 99.5024 53.8449 98.9864 54.1134C97.2414 55.0199 95.4524 55.7997 93.5884 56.45C95.5474 54.862 97.6224 53.3855 99.8284 51.9874C100.314 51.6793 99.8914 50.9741 99.3684 51.2407C96.6444 52.6331 94.1144 54.4423 91.8084 56.486C92.9354 54.9178 93.9374 53.2673 94.7944 51.5432C95.0484 51.0327 94.2484 50.5828 93.9894 51.0961C92.1124 54.8157 89.6024 58.1496 86.5354 61.0752C86.2544 61.3437 86.4324 61.701 86.7124 61.8172C86.3274 62.2833 85.9304 62.7455 85.5674 63.2191C85.1954 63.7049 86.0484 64.1719 86.4164 63.6898C87.3684 62.4439 88.3823 61.2813 89.4483 60.1801C89.2263 62.7238 89.0004 65.2684 88.7954 67.813C88.4684 67.7752 88.1164 68.0002 88.2654 68.366C88.6054 69.2035 88.8574 70.0543 89.0584 70.9097C88.9844 71.1016 89.0414 71.3238 89.1914 71.4447C90.6514 78.6788 87.3764 86.2873 81.8004 91.3945C74.3764 98.1976 63.3144 99.6362 53.5104 97.7022Z" fill="#4b9097"/>
<path d="M110.751 76.0757C111.108 71.9364 110.185 67.8396 108.149 64.1654C107.875 63.6719 107.092 64.1058 107.359 64.6002C109.287 68.1667 110.097 72.0829 109.814 76.0738C109.773 76.6447 110.702 76.639 110.751 76.0757Z" fill="#4b9097"/>
<path d="M108.442 78.8708C108.831 77.8177 108.986 76.7165 108.98 75.603C108.977 75.0188 108.017 75.016 108.019 75.6011C108.022 76.64 107.848 77.6382 107.56 78.6392C107.405 79.1818 108.249 79.3907 108.442 78.8708Z" fill="#4b9097"/>
<path d="M91.9384 62.2322C91.8364 61.8616 91.7294 61.4939 91.6184 61.1262C91.4644 60.6129 90.6154 60.8294 90.7704 61.3455C90.8814 61.7142 90.9944 62.08 91.1134 62.4458C91.2734 62.9421 92.0774 62.7388 91.9384 62.2322Z" fill="#4b9097"/>
<path d="M92.6444 66.5945L92.6484 64.3892C92.6494 63.8287 91.7274 63.8259 91.7264 64.3873L91.7224 66.5926C91.7214 67.1541 92.6434 67.156 92.6444 66.5945Z" fill="#4b9097"/>
<path d="M93.3204 61.5894C93.2144 61.3256 93.1084 61.061 93.0024 60.7972C92.7924 60.2754 91.8934 60.5089 92.1134 61.0269C92.2244 61.2897 92.3354 61.5525 92.4464 61.8153C92.6584 62.3181 93.5294 62.1093 93.3204 61.5894Z" fill="#4b9097"/>
<path d="M103.733 25.0503C101.009 17.749 91.9394 14.4548 84.9454 11.8837C75.8814 8.55068 66.3244 6.51837 56.6304 5.80847C56.0154 5.76405 56.0184 6.66583 56.6284 6.71309C65.7694 7.41731 74.7934 9.29273 83.3904 12.3185C87.3494 13.7118 91.3334 15.2762 94.9734 17.3208C98.3364 19.2095 101.452 21.7125 102.791 25.2941C102.998 25.8499 103.942 25.6127 103.733 25.0503Z" fill="#4b9097"/>
<path d="M21.0614 12.537C26.2114 7.32203 33.6013 4.49665 41.1433 4.95605C41.7483 4.99291 41.7474 4.10435 41.1454 4.06654C33.4074 3.58068 25.6273 6.47981 20.3883 11.899C19.9763 12.3263 20.6414 12.9634 21.0614 12.537Z" fill="#4b9097"/>
<path d="M74.2454 94.0714C74.8254 93.8597 74.5744 92.9654 73.9874 93.181C70.5984 94.4212 67.0574 94.7633 63.4554 94.3881C62.9804 94.3389 62.8644 95.1055 63.3404 95.1821C67.0304 95.7729 70.7604 95.3447 74.2454 94.0714Z" fill="#4b9097"/>
<path d="M60.0354 94.0375C59.2094 93.6377 58.3424 93.3399 57.4264 93.1887C56.8314 93.0913 56.5644 93.9392 57.1714 94.0574C58.0004 94.219 58.7924 94.4582 59.5494 94.8212C60.0984 95.0849 60.5864 94.305 60.0354 94.0375Z" fill="#4b9097"/>
</svg>
